<svg width="220" height="221" viewBox="0 0 220 221" fill="none" xmlns="http://www.w3.org/2000/svg">
<circle cx="110" cy="110.223" r="110" fill="#FFEDEF"/>
<mask id="mask0_8641_1902" style="mask-type:alpha" maskUnits="userSpaceOnUse" x="0" y="0" width="220" height="221">
<circle cx="110" cy="110.223" r="110" fill="#FFEDEF"/>
</mask>
<g mask="url(#mask0_8641_1902)">
<g clip-path="url(#clip0_8641_1902)">
<path d="M141.263 210.092C132.926 198.513 126.404 176.127 125.632 164.934L85.9737 147.855L69.4737 210.092H141.263Z" fill="#AC6651" stroke="black" stroke-width="2.31579"/>
<mask id="mask1_8641_1902" style="mask-type:alpha" maskUnits="userSpaceOnUse" x="69" y="147" width="73" height="69">
<path d="M141.263 215.882C132.926 204.303 126.404 176.127 125.632 164.934L85.9737 147.855L69.4737 215.882H141.263Z" fill="#AC6651"/>
</mask>
<g mask="url(#mask1_8641_1902)">
<g style="mix-blend-mode:multiply">
<ellipse cx="123.895" cy="146.697" rx="34.1579" ry="31.2632" fill="black"/>
</g>
</g>
<mask id="path-6-inside-1_8641_1902" fill="white">
<path d="M94.7059 39.0756C118.775 33.3089 142.959 48.0631 148.875 72.057H148.878L148.924 72.2504C148.932 72.2837 148.941 72.3166 148.949 72.35C148.955 72.3761 148.96 72.4029 148.967 72.4291L158.716 113.115L158.705 113.117C163.965 137.009 149.136 160.809 125.244 166.534C101.352 172.258 77.3474 157.762 71.2089 134.08L71.1981 134.083L61.3612 93.0258L61.3651 93.0248C55.7648 68.9547 70.6365 44.8424 94.7059 39.0756Z"/>
</mask>
<path d="M94.7059 39.0756C118.775 33.3089 142.959 48.0631 148.875 72.057H148.878L148.924 72.2504C148.932 72.2837 148.941 72.3166 148.949 72.35C148.955 72.3761 148.96 72.4029 148.967 72.4291L158.716 113.115L158.705 113.117C163.965 137.009 149.136 160.809 125.244 166.534C101.352 172.258 77.3474 157.762 71.2089 134.08L71.1981 134.083L61.3612 93.0258L61.3651 93.0248C55.7648 68.9547 70.6365 44.8424 94.7059 39.0756Z" fill="#AC6651"/>
<path d="M94.7059 39.0756L94.1664 36.8235L94.1664 36.8235L94.7059 39.0756ZM148.875 72.057L146.626 72.6114L147.061 74.3728H148.875V72.057ZM148.878 72.057L151.131 71.5222L150.708 69.7412H148.878V72.057ZM148.924 72.2504L146.671 72.7852L146.673 72.795L148.924 72.2504ZM148.949 72.35L151.201 71.8104V71.8104L148.949 72.35ZM148.967 72.4291L146.714 72.9647L146.715 72.9687L148.967 72.4291ZM158.716 113.115L159.13 115.393L161.538 114.955L160.968 112.575L158.716 113.115ZM158.705 113.117L158.291 110.838L155.927 111.268L156.443 113.614L158.705 113.117ZM125.244 166.534L125.784 168.786L125.244 166.534ZM71.2089 134.08L73.4506 133.499L72.8621 131.229L70.5995 131.846L71.2089 134.08ZM71.1981 134.083L68.9461 134.623L69.5027 136.946L71.8074 136.318L71.1981 134.083ZM61.3612 93.0258L60.7995 90.7791L58.5749 91.3353L59.1092 93.5653L61.3612 93.0258ZM61.3651 93.0248L61.9268 95.2714L64.1369 94.7189L63.6207 92.5L61.3651 93.0248ZM94.7059 39.0756L95.2455 41.3276C118.076 35.8578 141.015 49.8525 146.626 72.6114L148.875 72.057L151.123 71.5026C144.903 46.2738 119.474 30.76 94.1664 36.8235L94.7059 39.0756ZM148.875 72.057V74.3728H148.878V72.057V69.7412H148.875V72.057ZM148.878 72.057L146.625 72.5919L146.671 72.7852L148.924 72.2504L151.177 71.7155L151.131 71.5222L148.878 72.057ZM148.924 72.2504L146.673 72.795C146.678 72.8175 146.683 72.8373 146.687 72.8523C146.691 72.8666 146.694 72.8803 146.696 72.8871C146.701 72.9063 146.7 72.9002 146.697 72.8896L148.949 72.35L151.201 71.8104C151.191 71.7665 151.18 71.7271 151.177 71.7132C151.171 71.6919 151.172 71.6972 151.175 71.7057L148.924 72.2504ZM148.949 72.35L146.697 72.8895C146.694 72.8785 146.693 72.8708 146.692 72.8687C146.692 72.8672 146.692 72.867 146.693 72.8743C146.695 72.8794 146.697 72.8925 146.7 72.9063C146.704 72.921 146.708 72.9412 146.714 72.9647L148.967 72.4291L151.22 71.8935C151.222 71.9038 151.224 71.9109 151.224 71.9124C151.224 71.913 151.224 71.9129 151.222 71.9047C151.221 71.8988 151.218 71.8854 151.215 71.8707C151.212 71.8554 151.207 71.8345 151.201 71.8104L148.949 72.35ZM148.967 72.4291L146.715 72.9687L156.464 113.654L158.716 113.115L160.968 112.575L151.219 71.8894L148.967 72.4291ZM158.716 113.115L158.301 110.836L158.291 110.838L158.705 113.117L159.119 115.395L159.13 115.393L158.716 113.115ZM158.705 113.117L156.443 113.614C161.433 136.277 147.366 158.852 124.704 164.282L125.244 166.534L125.784 168.786C150.906 162.767 166.498 137.741 160.967 112.619L158.705 113.117ZM125.244 166.534L124.704 164.282C102.043 169.711 79.273 155.962 73.4506 133.499L71.2089 134.08L68.9672 134.662C75.4218 159.563 100.662 174.805 125.784 168.786L125.244 166.534ZM71.2089 134.08L70.5995 131.846L70.5888 131.849L71.1981 134.083L71.8074 136.318L71.8182 136.315L71.2089 134.08ZM71.1981 134.083L73.4502 133.544L63.6133 92.4862L61.3612 93.0258L59.1092 93.5653L68.9461 134.623L71.1981 134.083ZM61.3612 93.0258L61.9229 95.2724L61.9268 95.2714L61.3651 93.0248L60.8035 90.7781L60.7995 90.7791L61.3612 93.0258ZM61.3651 93.0248L63.6207 92.5C58.3086 69.6688 72.4151 46.7976 95.2455 41.3276L94.7059 39.0756L94.1664 36.8235C68.8579 42.8872 53.221 68.2406 59.1096 93.5496L61.3651 93.0248Z" fill="black" mask="url(#path-6-inside-1_8641_1902)"/>
</g>
<path d="M103.89 128.291L104.099 128.304L105.425 128.46C109.166 128.877 117.117 129.585 122.6 128.831L123.142 128.75C128.811 127.855 136.486 124.946 138.858 124.012L139.054 123.948C139.977 123.706 140.981 124.261 141.186 125.249L141.218 125.467C141.396 127.627 141.215 129.803 140.684 131.906L140.573 132.326C139.884 134.818 138.712 137.149 137.122 139.187C135.632 141.099 133.802 142.717 131.726 143.962L131.309 144.206C129.06 145.481 126.582 146.301 124.017 146.619C121.612 146.916 119.174 146.766 116.825 146.179L116.356 146.056C113.865 145.367 111.533 144.195 109.495 142.606C107.584 141.115 105.966 139.285 104.72 137.21L104.477 136.792C103.405 134.902 102.655 132.849 102.254 130.719L102.179 130.293C101.998 129.199 102.862 128.287 103.89 128.291Z" fill="black" stroke="black" stroke-width="2.31579"/>
<mask id="mask2_8641_1902" style="mask-type:alpha" maskUnits="userSpaceOnUse" x="103" y="124" width="38" height="22">
<path d="M139.986 124.808C140.284 127.223 140.105 129.672 139.457 132.017C138.809 134.362 137.705 136.557 136.209 138.475C134.713 140.394 132.854 141.999 130.737 143.199C128.621 144.399 126.289 145.17 123.874 145.469C121.46 145.768 119.01 145.588 116.665 144.94C114.32 144.292 112.126 143.188 110.207 141.692C108.289 140.196 106.684 138.337 105.484 136.221C104.284 134.104 103.512 131.772 103.213 129.358L139.986 124.808Z" fill="#171921"/>
</mask>
<g mask="url(#mask2_8641_1902)">
<circle cx="124.197" cy="148.037" r="12.4474" transform="rotate(-7.05286 124.197 148.037)" fill="#FC909F"/>
</g>
<path d="M126.79 76.7688C130.07 75.2249 137.79 73.8161 142.421 80.5319" stroke="black" stroke-width="2.31579" stroke-linecap="round"/>
<path d="M83.1248 91.4199C84.3236 87.998 88.7302 81.5054 96.7664 82.9102" stroke="black" stroke-width="2.31579" stroke-linecap="round"/>
<path opacity="0.35" d="M142.992 62.8508C138.36 59.1455 130.351 58.7982 127.071 59.0877L122.439 43.7456C130.313 45.5982 140.965 57.6403 142.992 62.8508Z" fill="#717376"/>
<path d="M83.8271 24.9814C83.8271 24.9814 87.149 22.6878 101.169 19.1556C115.189 15.6234 120.301 17.0033 120.301 17.0033L127.126 59.169C127.126 59.169 122.471 59.0686 110.896 61.5968C99.3214 64.125 93.7812 67.1931 93.7812 67.1931L83.8271 24.9814Z" fill="#171921"/>
<path d="M62.518 68.3509C58.5812 44.2667 76.0268 28.886 83.9391 24.6404L93.7812 67.193C82.6654 44.2667 67.5355 58.4123 62.518 68.3509Z" fill="#171921"/>
<path opacity="0.35" d="M73.2285 93.8244C69.0601 78.0771 85.9654 69.6049 93.7812 67.1926C89.7286 57.7364 80.4654 49.2452 69.1759 59.6667C58.7548 77.3243 62.8075 90.93 65.9917 101.351L73.2285 93.8244Z" fill="#717376"/>
<path d="M96.7411 93.425C99.6992 93.0735 102.419 94.8419 103.383 97.5319C103.535 97.957 103.106 98.3254 102.67 98.2094C101.383 97.8672 99.9381 97.7564 98.4364 97.9348C95.8888 98.2375 93.6954 99.3092 92.2686 100.767C91.9362 101.106 91.3381 101.002 91.2717 100.531C91.2652 100.485 91.2593 100.439 91.2538 100.393C90.8452 96.9534 93.3017 93.834 96.7411 93.425Z" fill="black"/>
<path d="M133.802 87.7125C136.729 87.3646 139.421 89.112 140.378 91.7716C140.531 92.1965 140.102 92.565 139.666 92.4495C138.393 92.1125 136.964 92.0039 135.48 92.1802C132.961 92.4797 130.791 93.5376 129.377 94.9774C129.044 95.3164 128.446 95.2113 128.381 94.7406C128.375 94.6991 128.37 94.6575 128.365 94.6158C127.96 91.2082 130.394 88.1174 133.802 87.7125Z" fill="#171921"/>
<path d="M115.95 103.813C118.972 102.663 124.243 103.01 123.918 108.857C123.63 114.053 118.299 115.085 116.6 113.874" stroke="black" stroke-width="2.31579"/>
<path d="M72.079 104.536C70.7301 104.092 69.2738 103.855 67.7832 103.855C61.7081 103.855 56.7833 107.618 57.3622 114.566C57.9652 121.803 62.287 124.408 68.3622 124.408C69.0382 124.408 69.6999 124.348 70.3422 124.235C71.043 124.111 71.7207 123.922 72.3685 123.675" stroke="#171921" stroke-width="4.63158"/>
<path d="M72.658 123.56C71.3382 124.106 69.8864 124.408 68.3622 124.408C62.287 124.408 57.9652 121.803 57.3622 114.566C56.7833 107.618 61.7081 103.855 67.7832 103.855C69.5997 103.855 71.365 104.206 72.9474 104.857L72.658 123.56Z" fill="#AC6651"/>
<path d="M70.3422 108.777C68.0264 107.715 62.9316 107.156 61.079 113.408" stroke="#171921" stroke-width="2.31579"/>
<path d="M64.2632 109.066C65.5176 110.127 67.9106 113.408 67.4474 118.039" stroke="#171921" stroke-width="2.31579"/>
<path d="M73.7842 189.199C74.7115 188.988 75.9726 189.051 77.5488 189.418C79.1089 189.781 80.8875 190.419 82.8056 191.262C86.6422 192.948 90.9255 195.408 94.9502 197.955C98.9685 200.499 102.7 203.112 105.429 205.09C106.792 206.078 107.904 206.907 108.674 207.488C109.059 207.779 109.358 208.007 109.561 208.163C109.662 208.241 109.739 208.301 109.791 208.341C109.817 208.361 109.836 208.376 109.849 208.386C109.855 208.391 109.86 208.394 109.863 208.396C109.865 208.398 109.865 208.399 109.866 208.399H109.867L110.579 207.486L109.867 208.4L110.864 209.176L111.55 208.115C111.551 208.116 111.551 208.116 111.551 208.116V208.115L111.552 208.114C111.553 208.113 111.555 208.109 111.558 208.105C111.563 208.098 111.57 208.085 111.581 208.069C111.602 208.037 111.635 207.987 111.679 207.922C111.766 207.792 111.896 207.599 112.066 207.353C112.407 206.86 112.908 206.156 113.542 205.313C114.812 203.626 116.609 201.397 118.726 199.218C120.847 197.033 123.257 194.933 125.746 193.472C128.089 192.097 130.404 191.344 132.571 191.51L133.003 191.556C157.572 194.868 175.652 205.751 187.389 221.96H29.164C38.4484 205.247 51.5907 194.511 72.7363 189.443L73.7842 189.199Z" fill="#6BD9E9" stroke="black" stroke-width="2.31579"/>
<path d="M66.9336 190.747L69.9249 179.612C70.046 179.161 70.6294 179.034 70.9443 179.379C79.5493 188.795 90.4082 188.426 94.0125 187.994C94.5017 187.935 94.8848 188.47 94.655 188.906L87.0378 203.353C86.921 203.574 86.6821 203.696 86.437 203.645C84.151 203.169 72.7606 200.384 67.0008 191.199C66.9165 191.065 66.8925 190.9 66.9336 190.747Z" fill="#D2EFF3" stroke="black" stroke-width="2.31579"/>
<path d="M142.534 190.687L135.829 179.407C135.602 179.024 135.041 179.031 134.798 179.404C131.477 184.52 125.748 186.876 123.745 187.573C123.385 187.698 123.22 188.126 123.414 188.454L131.231 201.663C131.348 201.86 131.569 201.967 131.789 201.904C133.025 201.552 137.266 199.778 142.526 191.289C142.639 191.106 142.643 190.871 142.534 190.687Z" fill="#D2EFF3" stroke="black" stroke-width="2.31579"/>
<path d="M99.8684 200.829L94.6579 188.382L90.6053 197.066L99.8684 200.829Z" fill="black" stroke="black" stroke-width="2.31579" stroke-linejoin="round"/>
<path d="M118.105 200.25L123.316 187.803L127.368 196.487L118.105 200.25Z" fill="black" stroke="black" stroke-width="2.31579" stroke-linejoin="round"/>
<path d="M77.2894 177.382L70.3421 179.118L76.1315 182.882L77.2894 177.382Z" fill="black" stroke="black" stroke-width="2.31579" stroke-linejoin="round"/>
<path d="M129.105 177.382L135.474 179.118L131.421 182.882L129.105 177.382Z" fill="black" stroke="black" stroke-width="2.31579" stroke-linejoin="round"/>
</g>
<defs>
<clipPath id="clip0_8641_1902">
<rect width="115.789" height="185.263" fill="white" transform="translate(52.1053 25.1184)"/>
</clipPath>
</defs>
</svg>
