<svg width="220" height="221" viewBox="0 0 220 221" fill="none" xmlns="http://www.w3.org/2000/svg">
<circle cx="110" cy="110.223" r="110" fill="#D2EFF3"/>
<mask id="mask0_8646_702" style="mask-type:alpha" maskUnits="userSpaceOnUse" x="0" y="0" width="220" height="221">
<circle cx="110" cy="110.223" r="110" fill="#FFEDEF"/>
</mask>
<g mask="url(#mask0_8646_702)">
<g clip-path="url(#clip0_8646_702)">
<path d="M141.263 210.092C132.926 198.513 126.404 176.127 125.632 164.934L85.9738 147.855L69.4738 210.092H141.263Z" fill="#F9C9B6" stroke="black" stroke-width="2.31579"/>
<mask id="mask1_8646_702" style="mask-type:alpha" maskUnits="userSpaceOnUse" x="69" y="147" width="73" height="69">
<path d="M141.263 215.882C132.926 204.303 126.404 176.127 125.632 164.934L85.9738 147.855L69.4738 215.882H141.263Z" fill="#AC6651"/>
</mask>
<g mask="url(#mask1_8646_702)">
<g style="mix-blend-mode:multiply">
<ellipse cx="123.895" cy="146.697" rx="34.1579" ry="31.2632" fill="black"/>
</g>
</g>
<mask id="path-6-inside-1_8646_702" fill="white">
<path d="M94.706 39.0756C118.775 33.3089 142.959 48.0631 148.875 72.057H148.878L148.924 72.2504C148.932 72.2837 148.941 72.3166 148.949 72.35C148.955 72.3761 148.961 72.4029 148.967 72.4291L158.716 113.115L158.705 113.117C163.965 137.009 149.136 160.809 125.244 166.534C101.352 172.258 77.3474 157.762 71.2089 134.08L71.1982 134.083L61.3613 93.0258L61.3652 93.0248C55.7649 68.9547 70.6366 44.8424 94.706 39.0756Z"/>
</mask>
<path d="M94.706 39.0756C118.775 33.3089 142.959 48.0631 148.875 72.057H148.878L148.924 72.2504C148.932 72.2837 148.941 72.3166 148.949 72.35C148.955 72.3761 148.961 72.4029 148.967 72.4291L158.716 113.115L158.705 113.117C163.965 137.009 149.136 160.809 125.244 166.534C101.352 172.258 77.3474 157.762 71.2089 134.08L71.1982 134.083L61.3613 93.0258L61.3652 93.0248C55.7649 68.9547 70.6366 44.8424 94.706 39.0756Z" fill="#F9C9B6"/>
<path d="M94.706 39.0756L94.1664 36.8235L94.1664 36.8235L94.706 39.0756ZM148.875 72.057L146.626 72.6114L147.061 74.3728H148.875V72.057ZM148.878 72.057L151.131 71.5222L150.708 69.7412H148.878V72.057ZM148.924 72.2504L146.671 72.7852L146.673 72.795L148.924 72.2504ZM148.949 72.35L151.201 71.8104V71.8104L148.949 72.35ZM148.967 72.4291L146.714 72.9647L146.715 72.9687L148.967 72.4291ZM158.716 113.115L159.13 115.393L161.538 114.955L160.968 112.575L158.716 113.115ZM158.705 113.117L158.291 110.838L155.927 111.268L156.443 113.614L158.705 113.117ZM125.244 166.534L125.784 168.786L125.244 166.534ZM71.2089 134.08L73.4506 133.499L72.8622 131.229L70.5996 131.846L71.2089 134.08ZM71.1982 134.083L68.9461 134.623L69.5027 136.946L71.8075 136.318L71.1982 134.083ZM61.3613 93.0258L60.7996 90.7791L58.5749 91.3353L59.1092 93.5653L61.3613 93.0258ZM61.3652 93.0248L61.9268 95.2714L64.137 94.7189L63.6207 92.5L61.3652 93.0248ZM94.706 39.0756L95.2456 41.3276C118.076 35.8578 141.015 49.8525 146.626 72.6114L148.875 72.057L151.123 71.5026C144.903 46.2738 119.474 30.76 94.1664 36.8235L94.706 39.0756ZM148.875 72.057V74.3728H148.878V72.057V69.7412H148.875V72.057ZM148.878 72.057L146.625 72.5919L146.671 72.7852L148.924 72.2504L151.177 71.7155L151.131 71.5222L148.878 72.057ZM148.924 72.2504L146.673 72.795C146.678 72.8175 146.683 72.8373 146.687 72.8523C146.691 72.8666 146.695 72.8803 146.696 72.8871C146.701 72.9063 146.7 72.9002 146.697 72.8896L148.949 72.35L151.201 71.8104C151.191 71.7665 151.18 71.7271 151.177 71.7132C151.171 71.6919 151.173 71.6972 151.175 71.7057L148.924 72.2504ZM148.949 72.35L146.697 72.8895C146.694 72.8785 146.693 72.8708 146.692 72.8687C146.692 72.8672 146.692 72.867 146.693 72.8743C146.695 72.8794 146.697 72.8925 146.7 72.9063C146.704 72.921 146.708 72.9412 146.714 72.9647L148.967 72.4291L151.22 71.8935C151.222 71.9038 151.224 71.9109 151.224 71.9124C151.224 71.913 151.224 71.9129 151.222 71.9047C151.221 71.8988 151.218 71.8854 151.215 71.8707C151.212 71.8554 151.207 71.8345 151.201 71.8104L148.949 72.35ZM148.967 72.4291L146.715 72.9687L156.464 113.654L158.716 113.115L160.968 112.575L151.219 71.8894L148.967 72.4291ZM158.716 113.115L158.301 110.836L158.291 110.838L158.705 113.117L159.119 115.395L159.13 115.393L158.716 113.115ZM158.705 113.117L156.443 113.614C161.433 136.277 147.366 158.852 124.705 164.282L125.244 166.534L125.784 168.786C150.906 162.767 166.498 137.741 160.967 112.619L158.705 113.117ZM125.244 166.534L124.705 164.282C102.043 169.711 79.273 155.962 73.4506 133.499L71.2089 134.08L68.9672 134.662C75.4218 159.563 100.662 174.805 125.784 168.786L125.244 166.534ZM71.2089 134.08L70.5996 131.846L70.5889 131.849L71.1982 134.083L71.8075 136.318L71.8182 136.315L71.2089 134.08ZM71.1982 134.083L73.4502 133.544L63.6133 92.4862L61.3613 93.0258L59.1092 93.5653L68.9461 134.623L71.1982 134.083ZM61.3613 93.0258L61.9229 95.2724L61.9268 95.2714L61.3652 93.0248L60.8035 90.7781L60.7996 90.7791L61.3613 93.0258ZM61.3652 93.0248L63.6207 92.5C58.3087 69.6688 72.4152 46.7976 95.2456 41.3276L94.706 39.0756L94.1664 36.8235C68.858 42.8872 53.2211 68.2406 59.1096 93.5496L61.3652 93.0248Z" fill="black" mask="url(#path-6-inside-1_8646_702)"/>
<path d="M89.7369 147.45C89.7369 147.77 89.4777 148.029 89.158 148.029C88.8382 148.029 88.579 147.77 88.579 147.45C88.579 147.13 88.8382 146.871 89.158 146.871C89.4777 146.871 89.7369 147.13 89.7369 147.45Z" fill="black"/>
<path d="M119.842 151.503C119.842 151.822 119.583 152.082 119.263 152.082C118.943 152.082 118.684 151.822 118.684 151.503C118.684 151.183 118.943 150.924 119.263 150.924C119.583 150.924 119.842 151.183 119.842 151.503Z" fill="black"/>
<path d="M117.526 155.555C117.526 155.875 117.267 156.134 116.947 156.134C116.628 156.134 116.368 155.875 116.368 155.555C116.368 155.236 116.628 154.976 116.947 154.976C117.267 154.976 117.526 155.236 117.526 155.555Z" fill="black"/>
<path d="M129.105 154.397C129.105 154.717 128.846 154.976 128.526 154.976C128.207 154.976 127.947 154.717 127.947 154.397C127.947 154.078 128.207 153.819 128.526 153.819C128.846 153.819 129.105 154.078 129.105 154.397Z" fill="black"/>
<path d="M129.684 148.608C129.684 148.928 129.425 149.187 129.105 149.187C128.786 149.187 128.526 148.928 128.526 148.608C128.526 148.288 128.786 148.029 129.105 148.029C129.425 148.029 129.684 148.288 129.684 148.608Z" fill="black"/>
<path d="M141.263 151.503C141.263 151.822 141.004 152.082 140.684 152.082C140.365 152.082 140.105 151.822 140.105 151.503C140.105 151.183 140.365 150.924 140.684 150.924C141.004 150.924 141.263 151.183 141.263 151.503Z" fill="black"/>
<path d="M147.053 143.397C147.053 143.717 146.794 143.976 146.474 143.976C146.154 143.976 145.895 143.717 145.895 143.397C145.895 143.078 146.154 142.819 146.474 142.819C146.794 142.819 147.053 143.078 147.053 143.397Z" fill="black"/>
<path d="M83.9474 135.292C83.9474 135.612 83.6882 135.871 83.3685 135.871C83.0488 135.871 82.7896 135.612 82.7896 135.292C82.7896 134.972 83.0488 134.713 83.3685 134.713C83.6882 134.713 83.9474 134.972 83.9474 135.292Z" fill="black"/>
<path d="M103.053 144.555C103.053 144.875 102.794 145.134 102.474 145.134C102.154 145.134 101.895 144.875 101.895 144.555C101.895 144.236 102.154 143.976 102.474 143.976C102.794 143.976 103.053 144.236 103.053 144.555Z" fill="black"/>
<path d="M101.316 156.134C101.316 156.454 101.057 156.713 100.737 156.713C100.417 156.713 100.158 156.454 100.158 156.134C100.158 155.815 100.417 155.555 100.737 155.555C101.057 155.555 101.316 155.815 101.316 156.134Z" fill="black"/>
<path d="M111.737 158.45C111.737 158.77 111.478 159.029 111.158 159.029C110.838 159.029 110.579 158.77 110.579 158.45C110.579 158.13 110.838 157.871 111.158 157.871C111.478 157.871 111.737 158.13 111.737 158.45Z" fill="black"/>
<path d="M131.421 143.397C131.421 143.717 131.162 143.976 130.842 143.976C130.522 143.976 130.263 143.717 130.263 143.397C130.263 143.078 130.522 142.819 130.842 142.819C131.162 142.819 131.421 143.078 131.421 143.397Z" fill="black"/>
<path d="M139.526 145.713C139.526 146.033 139.267 146.292 138.947 146.292C138.628 146.292 138.368 146.033 138.368 145.713C138.368 145.394 138.628 145.134 138.947 145.134C139.267 145.134 139.526 145.394 139.526 145.713Z" fill="black"/>
<path d="M134.895 155.555C134.895 155.875 134.636 156.134 134.316 156.134C133.996 156.134 133.737 155.875 133.737 155.555C133.737 155.236 133.996 154.976 134.316 154.976C134.636 154.976 134.895 155.236 134.895 155.555Z" fill="black"/>
<path d="M143 137.608C143 137.928 142.741 138.187 142.421 138.187C142.101 138.187 141.842 137.928 141.842 137.608C141.842 137.288 142.101 137.029 142.421 137.029C142.741 137.029 143 137.288 143 137.608Z" fill="black"/>
<path d="M89.158 138.766C89.158 139.086 88.8988 139.345 88.579 139.345C88.2593 139.345 88.0001 139.086 88.0001 138.766C88.0001 138.446 88.2593 138.187 88.579 138.187C88.8988 138.187 89.158 138.446 89.158 138.766Z" fill="black"/>
<path d="M103.053 138.766C103.053 139.086 102.794 139.345 102.474 139.345C102.154 139.345 101.895 139.086 101.895 138.766C101.895 138.446 102.154 138.187 102.474 138.187C102.794 138.187 103.053 138.446 103.053 138.766Z" fill="black"/>
<path d="M103.053 128.345C103.053 128.665 102.794 128.924 102.474 128.924C102.154 128.924 101.895 128.665 101.895 128.345C101.895 128.025 102.154 127.766 102.474 127.766C102.794 127.766 103.053 128.025 103.053 128.345Z" fill="black"/>
<path d="M105.368 159.608C105.368 159.928 105.109 160.187 104.79 160.187C104.47 160.187 104.211 159.928 104.211 159.608C104.211 159.288 104.47 159.029 104.79 159.029C105.109 159.029 105.368 159.288 105.368 159.608Z" fill="black"/>
<path d="M121 159.608C121 159.928 120.741 160.187 120.421 160.187C120.101 160.187 119.842 159.928 119.842 159.608C119.842 159.288 120.101 159.029 120.421 159.029C120.741 159.029 121 159.288 121 159.608Z" fill="black"/>
<path d="M127.368 159.608C127.368 159.928 127.109 160.187 126.79 160.187C126.47 160.187 126.211 159.928 126.211 159.608C126.211 159.288 126.47 159.029 126.79 159.029C127.109 159.029 127.368 159.288 127.368 159.608Z" fill="black"/>
<path d="M137.211 138.766C137.211 139.086 136.951 139.345 136.632 139.345C136.312 139.345 136.053 139.086 136.053 138.766C136.053 138.446 136.312 138.187 136.632 138.187C136.951 138.187 137.211 138.446 137.211 138.766Z" fill="black"/>
<path d="M137.211 128.345C137.211 128.665 136.951 128.924 136.632 128.924C136.312 128.924 136.053 128.665 136.053 128.345C136.053 128.025 136.312 127.766 136.632 127.766C136.951 127.766 137.211 128.025 137.211 128.345Z" fill="black"/>
<path d="M148.79 135.871C148.79 136.191 148.53 136.45 148.211 136.45C147.891 136.45 147.632 136.191 147.632 135.871C147.632 135.551 147.891 135.292 148.211 135.292C148.53 135.292 148.79 135.551 148.79 135.871Z" fill="black"/>
<path d="M90.8948 131.24C90.8948 131.559 90.6356 131.819 90.3159 131.819C89.9961 131.819 89.7369 131.559 89.7369 131.24C89.7369 130.92 89.9961 130.661 90.3159 130.661C90.6356 130.661 90.8948 130.92 90.8948 131.24Z" fill="black"/>
<path d="M96.6843 151.503C96.6843 151.822 96.4251 152.082 96.1053 152.082C95.7856 152.082 95.5264 151.822 95.5264 151.503C95.5264 151.183 95.7856 150.924 96.1053 150.924C96.4251 150.924 96.6843 151.183 96.6843 151.503Z" fill="black"/>
<path d="M94.3685 155.555C94.3685 155.875 94.1093 156.134 93.7896 156.134C93.4698 156.134 93.2106 155.875 93.2106 155.555C93.2106 155.236 93.4698 154.976 93.7896 154.976C94.1093 154.976 94.3685 155.236 94.3685 155.555Z" fill="black"/>
<path d="M117.526 143.976C117.526 144.296 117.267 144.555 116.947 144.555C116.628 144.555 116.368 144.296 116.368 143.976C116.368 143.657 116.628 143.397 116.947 143.397C117.267 143.397 117.526 143.657 117.526 143.976Z" fill="black"/>
<path d="M124.474 145.134C124.474 145.454 124.215 145.713 123.895 145.713C123.575 145.713 123.316 145.454 123.316 145.134C123.316 144.815 123.575 144.555 123.895 144.555C124.215 144.555 124.474 144.815 124.474 145.134Z" fill="black"/>
<path d="M116.368 162.503C116.368 162.822 116.109 163.082 115.79 163.082C115.47 163.082 115.211 162.822 115.211 162.503C115.211 162.183 115.47 161.924 115.79 161.924C116.109 161.924 116.368 162.183 116.368 162.503Z" fill="black"/>
<path d="M129.684 132.976C129.684 133.296 129.425 133.555 129.105 133.555C128.786 133.555 128.526 133.296 128.526 132.976C128.526 132.657 128.786 132.397 129.105 132.397C129.425 132.397 129.684 132.657 129.684 132.976Z" fill="black"/>
<path d="M129.684 122.555C129.684 122.875 129.425 123.134 129.105 123.134C128.786 123.134 128.526 122.875 128.526 122.555C128.526 122.236 128.786 121.976 129.105 121.976C129.425 121.976 129.684 122.236 129.684 122.555Z" fill="black"/>
<path d="M143.579 131.24C143.579 131.559 143.32 131.819 143 131.819C142.68 131.819 142.421 131.559 142.421 131.24C142.421 130.92 142.68 130.661 143 130.661C143.32 130.661 143.579 130.92 143.579 131.24Z" fill="black"/>
<path d="M147.632 125.45C147.632 125.77 147.372 126.029 147.053 126.029C146.733 126.029 146.474 125.77 146.474 125.45C146.474 125.13 146.733 124.871 147.053 124.871C147.372 124.871 147.632 125.13 147.632 125.45Z" fill="black"/>
<path d="M96.1053 136.45C96.1053 136.77 95.8461 137.029 95.5264 137.029C95.2066 137.029 94.9474 136.77 94.9474 136.45C94.9474 136.13 95.2066 135.871 95.5264 135.871C95.8461 135.871 96.1053 136.13 96.1053 136.45Z" fill="black"/>
<path d="M96.1053 142.819C96.1053 143.138 95.8461 143.397 95.5264 143.397C95.2066 143.397 94.9474 143.138 94.9474 142.819C94.9474 142.499 95.2066 142.24 95.5264 142.24C95.8461 142.24 96.1053 142.499 96.1053 142.819Z" fill="black"/>
<path d="M108.263 134.134C108.263 134.454 108.004 134.713 107.684 134.713C107.365 134.713 107.105 134.454 107.105 134.134C107.105 133.815 107.365 133.555 107.684 133.555C108.004 133.555 108.263 133.815 108.263 134.134Z" fill="black"/>
<path d="M108.263 123.713C108.263 124.033 108.004 124.292 107.684 124.292C107.365 124.292 107.105 124.033 107.105 123.713C107.105 123.394 107.365 123.134 107.684 123.134C108.004 123.134 108.263 123.394 108.263 123.713Z" fill="black"/>
<path d="M115.211 131.819C115.211 132.138 114.951 132.397 114.632 132.397C114.312 132.397 114.053 132.138 114.053 131.819C114.053 131.499 114.312 131.24 114.632 131.24C114.951 131.24 115.211 131.499 115.211 131.819Z" fill="black"/>
<path d="M122.158 128.345C122.158 128.665 121.899 128.924 121.579 128.924C121.259 128.924 121 128.665 121 128.345C121 128.025 121.259 127.766 121.579 127.766C121.899 127.766 122.158 128.025 122.158 128.345Z" fill="black"/>
<path d="M129.684 128.345C129.684 128.665 129.425 128.924 129.105 128.924C128.786 128.924 128.526 128.665 128.526 128.345C128.526 128.025 128.786 127.766 129.105 127.766C129.425 127.766 129.684 128.025 129.684 128.345Z" fill="black"/>
<path d="M137.211 128.345C137.211 128.665 136.951 128.924 136.632 128.924C136.312 128.924 136.053 128.665 136.053 128.345C136.053 128.025 136.312 127.766 136.632 127.766C136.951 127.766 137.211 128.025 137.211 128.345Z" fill="black"/>
<path d="M152.263 128.345C152.263 128.665 152.004 128.924 151.684 128.924C151.365 128.924 151.105 128.665 151.105 128.345C151.105 128.025 151.365 127.766 151.684 127.766C152.004 127.766 152.263 128.025 152.263 128.345Z" fill="black"/>
<path d="M107.105 151.503C107.105 151.822 106.846 152.082 106.526 152.082C106.207 152.082 105.947 151.822 105.947 151.503C105.947 151.183 106.207 150.924 106.526 150.924C106.846 150.924 107.105 151.183 107.105 151.503Z" fill="black"/>
<path d="M113.474 148.029C113.474 148.349 113.215 148.608 112.895 148.608C112.575 148.608 112.316 148.349 112.316 148.029C112.316 147.709 112.575 147.45 112.895 147.45C113.215 147.45 113.474 147.709 113.474 148.029Z" fill="black"/>
<path d="M111.158 143.397C111.158 143.717 110.899 143.976 110.579 143.976C110.259 143.976 110 143.717 110 143.397C110 143.078 110.259 142.819 110.579 142.819C110.899 142.819 111.158 143.078 111.158 143.397Z" fill="black"/>
<path d="M125.053 138.187C125.053 138.507 124.794 138.766 124.474 138.766C124.154 138.766 123.895 138.507 123.895 138.187C123.895 137.867 124.154 137.608 124.474 137.608C124.794 137.608 125.053 137.867 125.053 138.187Z" fill="black"/>
<path d="M96.6843 127.766C96.6843 128.086 96.4251 128.345 96.1053 128.345C95.7856 128.345 95.5264 128.086 95.5264 127.766C95.5264 127.446 95.7856 127.187 96.1053 127.187C96.4251 127.187 96.6843 127.446 96.6843 127.766Z" fill="black"/>
<path d="M118.105 137.029C118.105 137.349 117.846 137.608 117.526 137.608C117.207 137.608 116.947 137.349 116.947 137.029C116.947 136.709 117.207 136.45 117.526 136.45C117.846 136.45 118.105 136.709 118.105 137.029Z" fill="black"/>
<path d="M118.105 126.608C118.105 126.928 117.846 127.187 117.526 127.187C117.207 127.187 116.947 126.928 116.947 126.608C116.947 126.288 117.207 126.029 117.526 126.029C117.846 126.029 118.105 126.288 118.105 126.608Z" fill="black"/>
<path d="M138.368 134.713C138.368 135.033 138.109 135.292 137.79 135.292C137.47 135.292 137.211 135.033 137.211 134.713C137.211 134.394 137.47 134.134 137.79 134.134C138.109 134.134 138.368 134.394 138.368 134.713Z" fill="black"/>
<path d="M138.368 124.292C138.368 124.612 138.109 124.871 137.79 124.871C137.47 124.871 137.211 124.612 137.211 124.292C137.211 123.972 137.47 123.713 137.79 123.713C138.109 123.713 138.368 123.972 138.368 124.292Z" fill="black"/>
<path d="M142.421 125.45C142.421 125.77 142.162 126.029 141.842 126.029C141.522 126.029 141.263 125.77 141.263 125.45C141.263 125.13 141.522 124.871 141.842 124.871C142.162 124.871 142.421 125.13 142.421 125.45Z" fill="black"/>
<path d="M151.105 120.24C151.105 120.559 150.846 120.819 150.526 120.819C150.207 120.819 149.947 120.559 149.947 120.24C149.947 119.92 150.207 119.661 150.526 119.661C150.846 119.661 151.105 119.92 151.105 120.24Z" fill="black"/>
<path d="M89.7369 147.45C89.7369 147.77 89.4777 148.029 89.158 148.029C88.8382 148.029 88.579 147.77 88.579 147.45C88.579 147.13 88.8382 146.871 89.158 146.871C89.4777 146.871 89.7369 147.13 89.7369 147.45Z" stroke="black" stroke-width="0.578947"/>
<path d="M119.842 151.503C119.842 151.822 119.583 152.082 119.263 152.082C118.943 152.082 118.684 151.822 118.684 151.503C118.684 151.183 118.943 150.924 119.263 150.924C119.583 150.924 119.842 151.183 119.842 151.503Z" stroke="black" stroke-width="0.578947"/>
<path d="M117.526 155.555C117.526 155.875 117.267 156.134 116.947 156.134C116.628 156.134 116.368 155.875 116.368 155.555C116.368 155.236 116.628 154.976 116.947 154.976C117.267 154.976 117.526 155.236 117.526 155.555Z" stroke="black" stroke-width="0.578947"/>
<path d="M129.105 154.397C129.105 154.717 128.846 154.976 128.526 154.976C128.207 154.976 127.947 154.717 127.947 154.397C127.947 154.078 128.207 153.819 128.526 153.819C128.846 153.819 129.105 154.078 129.105 154.397Z" stroke="black" stroke-width="0.578947"/>
<path d="M129.684 148.608C129.684 148.928 129.425 149.187 129.105 149.187C128.786 149.187 128.526 148.928 128.526 148.608C128.526 148.288 128.786 148.029 129.105 148.029C129.425 148.029 129.684 148.288 129.684 148.608Z" stroke="black" stroke-width="0.578947"/>
<path d="M141.263 151.503C141.263 151.822 141.004 152.082 140.684 152.082C140.365 152.082 140.105 151.822 140.105 151.503C140.105 151.183 140.365 150.924 140.684 150.924C141.004 150.924 141.263 151.183 141.263 151.503Z" stroke="black" stroke-width="0.578947"/>
<path d="M147.053 143.397C147.053 143.717 146.794 143.976 146.474 143.976C146.154 143.976 145.895 143.717 145.895 143.397C145.895 143.078 146.154 142.819 146.474 142.819C146.794 142.819 147.053 143.078 147.053 143.397Z" stroke="black" stroke-width="0.578947"/>
<path d="M83.9474 135.292C83.9474 135.612 83.6882 135.871 83.3685 135.871C83.0488 135.871 82.7896 135.612 82.7896 135.292C82.7896 134.972 83.0488 134.713 83.3685 134.713C83.6882 134.713 83.9474 134.972 83.9474 135.292Z" stroke="black" stroke-width="0.578947"/>
<path d="M103.053 144.555C103.053 144.875 102.794 145.134 102.474 145.134C102.154 145.134 101.895 144.875 101.895 144.555C101.895 144.236 102.154 143.976 102.474 143.976C102.794 143.976 103.053 144.236 103.053 144.555Z" stroke="black" stroke-width="0.578947"/>
<path d="M101.316 156.134C101.316 156.454 101.057 156.713 100.737 156.713C100.417 156.713 100.158 156.454 100.158 156.134C100.158 155.815 100.417 155.555 100.737 155.555C101.057 155.555 101.316 155.815 101.316 156.134Z" stroke="black" stroke-width="0.578947"/>
<path d="M111.737 158.45C111.737 158.77 111.478 159.029 111.158 159.029C110.838 159.029 110.579 158.77 110.579 158.45C110.579 158.13 110.838 157.871 111.158 157.871C111.478 157.871 111.737 158.13 111.737 158.45Z" stroke="black" stroke-width="0.578947"/>
<path d="M131.421 143.397C131.421 143.717 131.162 143.976 130.842 143.976C130.522 143.976 130.263 143.717 130.263 143.397C130.263 143.078 130.522 142.819 130.842 142.819C131.162 142.819 131.421 143.078 131.421 143.397Z" stroke="black" stroke-width="0.578947"/>
<path d="M139.526 145.713C139.526 146.033 139.267 146.292 138.947 146.292C138.628 146.292 138.368 146.033 138.368 145.713C138.368 145.394 138.628 145.134 138.947 145.134C139.267 145.134 139.526 145.394 139.526 145.713Z" stroke="black" stroke-width="0.578947"/>
<path d="M134.895 155.555C134.895 155.875 134.636 156.134 134.316 156.134C133.996 156.134 133.737 155.875 133.737 155.555C133.737 155.236 133.996 154.976 134.316 154.976C134.636 154.976 134.895 155.236 134.895 155.555Z" stroke="black" stroke-width="0.578947"/>
<path d="M143 137.608C143 137.928 142.741 138.187 142.421 138.187C142.101 138.187 141.842 137.928 141.842 137.608C141.842 137.288 142.101 137.029 142.421 137.029C142.741 137.029 143 137.288 143 137.608Z" stroke="black" stroke-width="0.578947"/>
<path d="M89.158 138.766C89.158 139.086 88.8988 139.345 88.579 139.345C88.2593 139.345 88.0001 139.086 88.0001 138.766C88.0001 138.446 88.2593 138.187 88.579 138.187C88.8988 138.187 89.158 138.446 89.158 138.766Z" stroke="black" stroke-width="0.578947"/>
<path d="M103.053 138.766C103.053 139.086 102.794 139.345 102.474 139.345C102.154 139.345 101.895 139.086 101.895 138.766C101.895 138.446 102.154 138.187 102.474 138.187C102.794 138.187 103.053 138.446 103.053 138.766Z" stroke="black" stroke-width="0.578947"/>
<path d="M103.053 128.345C103.053 128.665 102.794 128.924 102.474 128.924C102.154 128.924 101.895 128.665 101.895 128.345C101.895 128.025 102.154 127.766 102.474 127.766C102.794 127.766 103.053 128.025 103.053 128.345Z" stroke="black" stroke-width="0.578947"/>
<path d="M105.368 159.608C105.368 159.928 105.109 160.187 104.79 160.187C104.47 160.187 104.211 159.928 104.211 159.608C104.211 159.288 104.47 159.029 104.79 159.029C105.109 159.029 105.368 159.288 105.368 159.608Z" stroke="black" stroke-width="0.578947"/>
<path d="M121 159.608C121 159.928 120.741 160.187 120.421 160.187C120.101 160.187 119.842 159.928 119.842 159.608C119.842 159.288 120.101 159.029 120.421 159.029C120.741 159.029 121 159.288 121 159.608Z" stroke="black" stroke-width="0.578947"/>
<path d="M127.368 159.608C127.368 159.928 127.109 160.187 126.79 160.187C126.47 160.187 126.211 159.928 126.211 159.608C126.211 159.288 126.47 159.029 126.79 159.029C127.109 159.029 127.368 159.288 127.368 159.608Z" stroke="black" stroke-width="0.578947"/>
<path d="M137.211 138.766C137.211 139.086 136.951 139.345 136.632 139.345C136.312 139.345 136.053 139.086 136.053 138.766C136.053 138.446 136.312 138.187 136.632 138.187C136.951 138.187 137.211 138.446 137.211 138.766Z" stroke="black" stroke-width="0.578947"/>
<path d="M137.211 128.345C137.211 128.665 136.951 128.924 136.632 128.924C136.312 128.924 136.053 128.665 136.053 128.345C136.053 128.025 136.312 127.766 136.632 127.766C136.951 127.766 137.211 128.025 137.211 128.345Z" stroke="black" stroke-width="0.578947"/>
<path d="M148.79 135.871C148.79 136.191 148.53 136.45 148.211 136.45C147.891 136.45 147.632 136.191 147.632 135.871C147.632 135.551 147.891 135.292 148.211 135.292C148.53 135.292 148.79 135.551 148.79 135.871Z" stroke="black" stroke-width="0.578947"/>
<path d="M90.8948 131.24C90.8948 131.559 90.6356 131.819 90.3159 131.819C89.9961 131.819 89.7369 131.559 89.7369 131.24C89.7369 130.92 89.9961 130.661 90.3159 130.661C90.6356 130.661 90.8948 130.92 90.8948 131.24Z" stroke="black" stroke-width="0.578947"/>
<path d="M96.6843 151.503C96.6843 151.822 96.4251 152.082 96.1053 152.082C95.7856 152.082 95.5264 151.822 95.5264 151.503C95.5264 151.183 95.7856 150.924 96.1053 150.924C96.4251 150.924 96.6843 151.183 96.6843 151.503Z" stroke="black" stroke-width="0.578947"/>
<path d="M94.3685 155.555C94.3685 155.875 94.1093 156.134 93.7896 156.134C93.4698 156.134 93.2106 155.875 93.2106 155.555C93.2106 155.236 93.4698 154.976 93.7896 154.976C94.1093 154.976 94.3685 155.236 94.3685 155.555Z" stroke="black" stroke-width="0.578947"/>
<path d="M117.526 143.976C117.526 144.296 117.267 144.555 116.947 144.555C116.628 144.555 116.368 144.296 116.368 143.976C116.368 143.657 116.628 143.397 116.947 143.397C117.267 143.397 117.526 143.657 117.526 143.976Z" stroke="black" stroke-width="0.578947"/>
<path d="M124.474 145.134C124.474 145.454 124.215 145.713 123.895 145.713C123.575 145.713 123.316 145.454 123.316 145.134C123.316 144.815 123.575 144.555 123.895 144.555C124.215 144.555 124.474 144.815 124.474 145.134Z" stroke="black" stroke-width="0.578947"/>
<path d="M116.368 162.503C116.368 162.822 116.109 163.082 115.79 163.082C115.47 163.082 115.211 162.822 115.211 162.503C115.211 162.183 115.47 161.924 115.79 161.924C116.109 161.924 116.368 162.183 116.368 162.503Z" stroke="black" stroke-width="0.578947"/>
<path d="M129.684 132.976C129.684 133.296 129.425 133.555 129.105 133.555C128.786 133.555 128.526 133.296 128.526 132.976C128.526 132.657 128.786 132.397 129.105 132.397C129.425 132.397 129.684 132.657 129.684 132.976Z" stroke="black" stroke-width="0.578947"/>
<path d="M129.684 122.555C129.684 122.875 129.425 123.134 129.105 123.134C128.786 123.134 128.526 122.875 128.526 122.555C128.526 122.236 128.786 121.976 129.105 121.976C129.425 121.976 129.684 122.236 129.684 122.555Z" stroke="black" stroke-width="0.578947"/>
<path d="M143.579 131.24C143.579 131.559 143.32 131.819 143 131.819C142.68 131.819 142.421 131.559 142.421 131.24C142.421 130.92 142.68 130.661 143 130.661C143.32 130.661 143.579 130.92 143.579 131.24Z" stroke="black" stroke-width="0.578947"/>
<path d="M147.632 125.45C147.632 125.77 147.372 126.029 147.053 126.029C146.733 126.029 146.474 125.77 146.474 125.45C146.474 125.13 146.733 124.871 147.053 124.871C147.372 124.871 147.632 125.13 147.632 125.45Z" stroke="black" stroke-width="0.578947"/>
<path d="M96.1053 136.45C96.1053 136.77 95.8461 137.029 95.5264 137.029C95.2066 137.029 94.9474 136.77 94.9474 136.45C94.9474 136.13 95.2066 135.871 95.5264 135.871C95.8461 135.871 96.1053 136.13 96.1053 136.45Z" stroke="black" stroke-width="0.578947"/>
<path d="M96.1053 142.819C96.1053 143.138 95.8461 143.397 95.5264 143.397C95.2066 143.397 94.9474 143.138 94.9474 142.819C94.9474 142.499 95.2066 142.24 95.5264 142.24C95.8461 142.24 96.1053 142.499 96.1053 142.819Z" stroke="black" stroke-width="0.578947"/>
<path d="M108.263 134.134C108.263 134.454 108.004 134.713 107.684 134.713C107.365 134.713 107.105 134.454 107.105 134.134C107.105 133.815 107.365 133.555 107.684 133.555C108.004 133.555 108.263 133.815 108.263 134.134Z" stroke="black" stroke-width="0.578947"/>
<path d="M108.263 123.713C108.263 124.033 108.004 124.292 107.684 124.292C107.365 124.292 107.105 124.033 107.105 123.713C107.105 123.394 107.365 123.134 107.684 123.134C108.004 123.134 108.263 123.394 108.263 123.713Z" stroke="black" stroke-width="0.578947"/>
<path d="M115.211 131.819C115.211 132.138 114.951 132.397 114.632 132.397C114.312 132.397 114.053 132.138 114.053 131.819C114.053 131.499 114.312 131.24 114.632 131.24C114.951 131.24 115.211 131.499 115.211 131.819Z" stroke="black" stroke-width="0.578947"/>
<path d="M122.158 128.345C122.158 128.665 121.899 128.924 121.579 128.924C121.259 128.924 121 128.665 121 128.345C121 128.025 121.259 127.766 121.579 127.766C121.899 127.766 122.158 128.025 122.158 128.345Z" stroke="black" stroke-width="0.578947"/>
<path d="M129.684 128.345C129.684 128.665 129.425 128.924 129.105 128.924C128.786 128.924 128.526 128.665 128.526 128.345C128.526 128.025 128.786 127.766 129.105 127.766C129.425 127.766 129.684 128.025 129.684 128.345Z" stroke="black" stroke-width="0.578947"/>
<path d="M137.211 128.345C137.211 128.665 136.951 128.924 136.632 128.924C136.312 128.924 136.053 128.665 136.053 128.345C136.053 128.025 136.312 127.766 136.632 127.766C136.951 127.766 137.211 128.025 137.211 128.345Z" stroke="black" stroke-width="0.578947"/>
<path d="M152.263 128.345C152.263 128.665 152.004 128.924 151.684 128.924C151.365 128.924 151.105 128.665 151.105 128.345C151.105 128.025 151.365 127.766 151.684 127.766C152.004 127.766 152.263 128.025 152.263 128.345Z" stroke="black" stroke-width="0.578947"/>
<path d="M107.105 151.503C107.105 151.822 106.846 152.082 106.526 152.082C106.207 152.082 105.947 151.822 105.947 151.503C105.947 151.183 106.207 150.924 106.526 150.924C106.846 150.924 107.105 151.183 107.105 151.503Z" stroke="black" stroke-width="0.578947"/>
<path d="M113.474 148.029C113.474 148.349 113.215 148.608 112.895 148.608C112.575 148.608 112.316 148.349 112.316 148.029C112.316 147.709 112.575 147.45 112.895 147.45C113.215 147.45 113.474 147.709 113.474 148.029Z" stroke="black" stroke-width="0.578947"/>
<path d="M111.158 143.397C111.158 143.717 110.899 143.976 110.579 143.976C110.259 143.976 110 143.717 110 143.397C110 143.078 110.259 142.819 110.579 142.819C110.899 142.819 111.158 143.078 111.158 143.397Z" stroke="black" stroke-width="0.578947"/>
<path d="M125.053 138.187C125.053 138.507 124.794 138.766 124.474 138.766C124.154 138.766 123.895 138.507 123.895 138.187C123.895 137.867 124.154 137.608 124.474 137.608C124.794 137.608 125.053 137.867 125.053 138.187Z" stroke="black" stroke-width="0.578947"/>
<path d="M96.6843 127.766C96.6843 128.086 96.4251 128.345 96.1053 128.345C95.7856 128.345 95.5264 128.086 95.5264 127.766C95.5264 127.446 95.7856 127.187 96.1053 127.187C96.4251 127.187 96.6843 127.446 96.6843 127.766Z" stroke="black" stroke-width="0.578947"/>
<path d="M118.105 137.029C118.105 137.349 117.846 137.608 117.526 137.608C117.207 137.608 116.947 137.349 116.947 137.029C116.947 136.709 117.207 136.45 117.526 136.45C117.846 136.45 118.105 136.709 118.105 137.029Z" stroke="black" stroke-width="0.578947"/>
<path d="M118.105 126.608C118.105 126.928 117.846 127.187 117.526 127.187C117.207 127.187 116.947 126.928 116.947 126.608C116.947 126.288 117.207 126.029 117.526 126.029C117.846 126.029 118.105 126.288 118.105 126.608Z" stroke="black" stroke-width="0.578947"/>
<path d="M138.368 134.713C138.368 135.033 138.109 135.292 137.79 135.292C137.47 135.292 137.211 135.033 137.211 134.713C137.211 134.394 137.47 134.134 137.79 134.134C138.109 134.134 138.368 134.394 138.368 134.713Z" stroke="black" stroke-width="0.578947"/>
<path d="M138.368 124.292C138.368 124.612 138.109 124.871 137.79 124.871C137.47 124.871 137.211 124.612 137.211 124.292C137.211 123.972 137.47 123.713 137.79 123.713C138.109 123.713 138.368 123.972 138.368 124.292Z" stroke="black" stroke-width="0.578947"/>
<path d="M142.421 125.45C142.421 125.77 142.162 126.029 141.842 126.029C141.522 126.029 141.263 125.77 141.263 125.45C141.263 125.13 141.522 124.871 141.842 124.871C142.162 124.871 142.421 125.13 142.421 125.45Z" stroke="black" stroke-width="0.578947"/>
<path d="M151.105 120.24C151.105 120.559 150.846 120.819 150.526 120.819C150.207 120.819 149.947 120.559 149.947 120.24C149.947 119.92 150.207 119.661 150.526 119.661C150.846 119.661 151.105 119.92 151.105 120.24Z" stroke="black" stroke-width="0.578947"/>
</g>
<rect x="100.302" y="127.864" width="40.5263" height="13.8947" rx="2.31579" transform="rotate(-4 100.302 127.864)" fill="black"/>
<path d="M136.617 129.455C136.422 131.113 135.075 132.397 133.41 132.513L133.72 132.505C135.259 132.535 136.614 133.583 137.012 135.097L138.077 139.151L104.893 141.472L105.384 137.308C105.567 135.754 106.762 134.527 108.283 134.284L108.591 134.249C106.926 134.365 105.414 133.281 104.989 131.667L103.924 127.611L137.108 125.291L136.617 129.455Z" fill="white"/>
<path d="M99.328 130.459C99.2992 128.416 101.041 126.776 103.091 126.923L104.792 127.039C109.113 127.317 115.712 127.616 120.573 127.276C126.128 126.887 133.816 125.357 137.836 124.494L138.03 124.458C140.035 124.142 141.93 125.602 142.074 127.67L142.664 136.104C142.809 138.171 141.135 139.881 139.106 139.848L138.909 139.839C134.808 139.544 126.982 139.098 121.427 139.486C116.566 139.826 110.073 141.041 105.833 141.917L104.165 142.269C102.09 142.714 100.075 141.226 99.9258 139.093L99.336 130.658L99.328 130.459Z" stroke="black" stroke-width="2.31579"/>
<path d="M85.1052 86.1974C88.6754 87.6448 97.321 87.9342 103.342 77.5132" stroke="black" stroke-width="2.31579" stroke-linecap="round"/>
<path d="M123.895 73.1709C126.886 76.2586 134.374 80.5814 140.395 73.1709" stroke="black" stroke-width="2.31579" stroke-linecap="round"/>
<path d="M115.211 50.5916C123.702 50.2057 138.6 45.4969 130.263 29.7495" stroke="black" stroke-width="2.31579"/>
<path d="M100.158 49.4339C108.649 49.0479 123.547 44.3392 115.211 28.5918" stroke="black" stroke-width="2.31579"/>
<path d="M79.3159 55.8023C87.8071 55.4163 102.705 50.7076 94.3685 34.9602" stroke="black" stroke-width="2.31579"/>
<ellipse cx="97.57" cy="97.7201" rx="5.21053" ry="7.81579" transform="rotate(-6.77646 97.57 97.7201)" fill="black"/>
<ellipse cx="134.623" cy="91.9303" rx="5.21053" ry="7.81579" transform="rotate(-6.27568 134.623 91.9303)" fill="black"/>
<path d="M83.3793 97.8999L64.2631 101.303" stroke="black" stroke-width="2.31579" stroke-linecap="round"/>
<path d="M84.2047 85.6807L105.186 82.9466C107.089 82.6987 108.864 84.0354 109.152 85.9322L112.082 105.263C112.369 107.16 111.06 108.898 109.158 109.146L90.409 111.589C88.7139 111.81 87.0939 110.77 86.5735 109.152L86.5267 108.994L81.3626 89.954C80.8179 87.9457 82.1461 85.949 84.2047 85.6807Z" stroke="black" stroke-width="2.31579"/>
<path d="M144.868 77.882L123.886 80.6161C121.983 80.864 120.674 82.6025 120.962 84.4993L123.892 103.83C124.179 105.727 125.955 107.064 127.857 106.816L146.606 104.373C148.301 104.152 149.549 102.737 149.568 101.05L149.566 100.885L148.87 81.2634C148.796 79.1937 146.926 77.6137 144.868 77.882Z" stroke="black" stroke-width="2.31579"/>
<path d="M110.53 95.1385L122.72 93.3403" stroke="black" stroke-width="2.31579"/>
<path d="M117.4 98.5737C118.528 106.6 123.427 112.342 123.427 112.342C123.427 112.342 121.904 116.064 116.01 115.723" stroke="black" stroke-width="2.31579"/>
<path d="M72.079 104.536C70.7301 104.092 69.2738 103.855 67.7832 103.855C61.7081 103.855 56.7833 107.618 57.3622 114.566C57.9652 121.803 62.287 124.408 68.3622 124.408C69.0382 124.408 69.6999 124.348 70.3422 124.235C71.043 124.111 71.7207 123.922 72.3685 123.675" stroke="black" stroke-width="4.63158"/>
<path d="M72.658 123.56C71.3382 124.106 69.8864 124.408 68.3622 124.408C62.287 124.408 57.9652 121.803 57.3622 114.566C56.7833 107.618 61.7081 103.855 67.7832 103.855C69.5997 103.855 71.365 104.206 72.9474 104.857L72.658 123.56Z" fill="#F9C9B6"/>
<path d="M70.3422 108.777C68.0264 107.715 62.9317 107.156 61.079 113.408" stroke="black" stroke-width="2.31579"/>
<path d="M64.2632 109.066C65.5176 110.127 67.9106 113.408 67.4475 118.039" stroke="black" stroke-width="2.31579"/>
<path d="M106.526 186.031C112 186.031 116.26 186.866 120.303 187.968C124.279 189.052 128.309 190.482 132.898 191.536L132.979 191.555L133.062 191.562C159.766 193.764 175.779 205.626 187.4 221.961H29.1639C38.4483 205.248 51.5904 194.512 72.7362 189.444L73.7841 189.199C82.4753 187.218 92.5106 186.167 104.172 186.043L106.526 186.031Z" fill="#F4D150" stroke="black" stroke-width="2.31579"/>
<path d="M67.1171 190.455L72.4163 179.109C72.5429 178.838 72.8574 178.709 73.1394 178.809C95.0968 186.582 115.072 186.034 133.584 180.881C133.816 180.816 134.065 180.902 134.208 181.097L142.274 192.128C142.496 192.431 142.383 192.859 142.033 192.996C122.577 200.636 86.0675 199.337 67.3977 191.221C67.1015 191.092 66.9804 190.747 67.1171 190.455Z" fill="white" stroke="black" stroke-width="2.31579"/>
</g>
<defs>
<clipPath id="clip0_8646_702">
<rect width="115.789" height="185.263" fill="white" transform="translate(52.1053 25.1184)"/>
</clipPath>
</defs>
</svg>
