<svg width="245" height="245" viewBox="0 0 245 245" fill="none" xmlns="http://www.w3.org/2000/svg">
<mask id="mask0_8652_2009" style="mask-type:alpha" maskUnits="userSpaceOnUse" x="0" y="0" width="245" height="245">
<circle cx="122.5" cy="122.223" r="122" fill="#FFEDEF"/>
</mask>
<g mask="url(#mask0_8652_2009)">
<path d="M157.363 239.524C148.117 226.682 140.883 195.433 140.026 183.019L96.0422 164.076L77.7422 239.524H157.363Z" fill="#FC909F" stroke="black" stroke-width="2.56842"/>
<mask id="mask1_8652_2009" style="mask-type:alpha" maskUnits="userSpaceOnUse" x="77" y="164" width="81" height="76">
<path d="M157.363 239.524C148.117 226.682 140.883 195.433 140.026 183.019L96.0422 164.076L77.7422 239.524H157.363Z" fill="#FFEDEF"/>
</mask>
<g mask="url(#mask1_8652_2009)">
<ellipse cx="137.911" cy="162.676" rx="37.8842" ry="34.6737" fill="black"/>
</g>
<g clip-path="url(#clip0_8652_2009)">
<path d="M157.174 239.408C147.927 226.566 140.693 195.317 139.837 182.903L95.8527 163.96L77.5527 239.408H157.174Z" fill="#FFF9C4" stroke="black" stroke-width="2.56842"/>
<mask id="mask2_8652_2009" style="mask-type:alpha" maskUnits="userSpaceOnUse" x="77" y="163" width="81" height="77">
<path d="M157.174 239.408C147.927 226.566 140.693 195.317 139.837 182.903L95.8527 163.96L77.5527 239.408H157.174Z" fill="#AC6651"/>
</mask>
<g mask="url(#mask2_8652_2009)">
<ellipse cx="137.911" cy="162.676" rx="37.8842" ry="34.6737" fill="black"/>
</g>
<mask id="path-8-inside-1_8652_2009" fill="white">
<path d="M105.538 43.3143C132.233 36.9187 159.057 53.2817 165.618 79.8934H165.62L176.258 124.297C176.276 124.37 176.294 124.442 176.311 124.515C176.324 124.566 176.335 124.617 176.347 124.668L177.325 128.751L177.143 128.794C180.944 154.129 164.784 178.595 139.407 184.676C114.03 190.756 88.5363 176.269 80.4443 151.962L80.2607 152.007L68.5546 103.149L68.5576 103.148C62.3467 76.4526 78.843 49.7102 105.538 43.3143Z"/>
</mask>
<path d="M105.538 43.3143C132.233 36.9187 159.057 53.2817 165.618 79.8934H165.62L176.258 124.297C176.276 124.37 176.294 124.442 176.311 124.515C176.324 124.566 176.335 124.617 176.347 124.668L177.325 128.751L177.143 128.794C180.944 154.129 164.784 178.595 139.407 184.676C114.03 190.756 88.5363 176.269 80.4443 151.962L80.2607 152.007L68.5546 103.149L68.5576 103.148C62.3467 76.4526 78.843 49.7102 105.538 43.3143Z" fill="#FFF9C4"/>
<path d="M105.538 43.3143L104.94 40.8166L104.94 40.8166L105.538 43.3143ZM165.618 79.8934L163.124 80.5082L163.606 82.4618H165.618V79.8934ZM165.62 79.8934L168.118 79.295L167.646 77.325H165.62V79.8934ZM176.258 124.297L173.76 124.895L173.763 124.906L176.258 124.297ZM176.311 124.515L178.809 123.917V123.917L176.311 124.515ZM176.347 124.668L173.847 125.259L173.849 125.266L176.347 124.668ZM177.325 128.751L177.913 131.251L180.424 130.66L179.823 128.152L177.325 128.751ZM177.143 128.794L176.554 126.294L174.251 126.835L174.603 129.175L177.143 128.794ZM139.407 184.676L140.006 187.173H140.006L139.407 184.676ZM80.4443 151.962L82.8812 151.15L82.1334 148.904L79.8338 149.467L80.4443 151.962ZM80.2607 152.007L77.763 152.605L78.3643 155.115L80.8711 154.502L80.2607 152.007ZM68.5546 103.149L67.7424 100.713L65.5082 101.457L66.0569 103.748L68.5546 103.149ZM68.5576 103.148L69.3698 105.585L71.5893 104.845L71.0592 102.566L68.5576 103.148ZM105.538 43.3143L106.136 45.812C131.457 39.7456 156.901 55.2665 163.124 80.5082L165.618 79.8934L168.112 79.2786C161.213 51.297 133.008 34.0918 104.94 40.8166L105.538 43.3143ZM165.618 79.8934V82.4618H165.62V79.8934V77.325H165.618V79.8934ZM165.62 79.8934L163.122 80.4918L173.76 124.895L176.258 124.297L178.756 123.698L168.118 79.295L165.62 79.8934ZM176.258 124.297L173.763 124.906C173.789 125.012 173.796 125.042 173.814 125.114L176.311 124.515L178.809 123.917C178.791 123.843 178.763 123.727 178.753 123.687L176.258 124.297ZM176.311 124.515L173.814 125.114C173.844 125.242 173.801 125.062 173.847 125.259L176.347 124.668L178.846 124.077C178.843 124.065 178.84 124.052 178.834 124.023C178.828 123.998 178.819 123.959 178.809 123.917L176.311 124.515ZM176.347 124.668L173.849 125.266L174.827 129.349L177.325 128.751L179.823 128.152L178.844 124.069L176.347 124.668ZM177.325 128.751L176.737 126.251L176.554 126.294L177.143 128.794L177.731 131.294L177.913 131.251L177.325 128.751ZM177.143 128.794L174.603 129.175C178.208 153.203 162.878 176.411 138.809 182.178L139.407 184.676L140.006 187.173C166.69 180.78 183.68 155.054 179.683 128.413L177.143 128.794ZM139.407 184.676L138.809 182.178C114.739 187.945 90.556 174.204 82.8812 151.15L80.4443 151.962L78.0074 152.773C86.5167 178.333 113.321 193.567 140.006 187.173L139.407 184.676ZM80.4443 151.962L79.8338 149.467L79.6503 149.512L80.2607 152.007L80.8711 154.502L81.0547 154.457L80.4443 151.962ZM80.2607 152.007L82.7584 151.408L71.0524 102.551L68.5546 103.149L66.0569 103.748L77.763 152.605L80.2607 152.007ZM68.5546 103.149L69.3668 105.586L69.3698 105.585L68.5576 103.148L67.7454 100.712L67.7424 100.713L68.5546 103.149ZM68.5576 103.148L71.0592 102.566C65.168 77.2448 80.8155 51.8787 106.136 45.812L105.538 43.3143L104.94 40.8166C76.8706 47.5417 59.5254 75.6603 66.056 103.73L68.5576 103.148Z" fill="black" mask="url(#path-8-inside-1_8652_2009)"/>
</g>
<path d="M122.5 146.088C125.672 150.227 130.48 154.813 137.895 153.767C145.311 152.721 148.61 147.606 147.638 143.463" stroke="black" stroke-width="2.56842"/>
<path d="M141.121 85.1188C144.76 83.4065 153.321 81.8441 158.458 89.2925" stroke="black" stroke-width="2.56842" stroke-linecap="round"/>
<path d="M92.693 101.368C94.0225 97.5732 98.9099 90.3723 107.823 91.9303" stroke="black" stroke-width="2.56842" stroke-linecap="round"/>
<path d="M181.398 84.8472C181.398 42.4109 157.988 13.7076 129.473 13.7075C92.9412 13.7075 55.7212 27.4109 55.7212 92.2078C55.7212 108.24 62.5653 120.186 72.1363 128.991C71.177 127.791 70.404 126.716 69.8904 125.831C68.0342 108.507 88.6179 95.2093 108.76 82.1974C119.453 75.2899 130.021 68.4628 137.041 61.1563C143.202 64.6473 161.309 79.2723 164.759 85.1865C166.609 88.3584 169.581 99.2286 171.611 111.917C178.249 103.944 181.398 95.9657 181.398 84.8472Z" fill="white" stroke="black" stroke-width="2.56842"/>
<path d="M137.438 60.739C145.897 53.0694 158.552 35.5647 157.74 24.1957" stroke="black" stroke-width="2.56842"/>
<ellipse cx="108.628" cy="107.64" rx="5.77895" ry="6.42105" transform="rotate(-6.77646 108.628 107.64)" fill="black"/>
<ellipse cx="149.742" cy="101.216" rx="5.77895" ry="6.42105" transform="rotate(-6.27568 149.742 101.216)" fill="black"/>
<circle cx="151.074" cy="102.318" r="16.6947" stroke="#F4D150" stroke-width="2.56842"/>
<circle cx="108.052" cy="108.097" r="16.6947" stroke="#F4D150" stroke-width="2.56842"/>
<path d="M135.021 106.813C135.021 105.45 134.48 104.144 133.516 103.181C132.553 102.217 131.246 101.676 129.884 101.676C128.522 101.676 127.215 102.217 126.252 103.181C125.288 104.144 124.747 105.45 124.747 106.813" stroke="#F4D150" stroke-width="2.56842"/>
<path d="M91.6788 109.381L72.4156 112.913" stroke="#F4D150" stroke-width="2.56842"/>
<path d="M131.039 111.538C131.17 114.005 132.129 119.295 134.923 120.718C138.415 122.497 135.678 128.393 129.14 128.015" stroke="black" stroke-width="2.56842"/>
<path d="M80.4422 115.915C78.946 115.422 77.331 115.16 75.6778 115.16C68.9399 115.16 63.4778 119.334 64.1199 127.039C64.7887 135.065 69.582 137.955 76.3199 137.955C77.0696 137.955 77.8035 137.889 78.5158 137.763C79.2931 137.625 80.0448 137.416 80.7632 137.142" stroke="black" stroke-width="5.13684"/>
<path d="M81.0843 137.015C79.6205 137.62 78.0103 137.955 76.3199 137.955C69.582 137.955 64.7887 135.065 64.1199 127.039C63.4778 119.334 68.9399 115.16 75.6778 115.16C77.6923 115.16 79.6503 115.549 81.4053 116.271L81.0843 137.015Z" fill="#FFF9C4"/>
<path d="M78.5159 120.618C75.9475 119.441 70.2969 118.821 68.2422 125.755" stroke="black" stroke-width="2.56842"/>
<path d="M71.7737 120.939C73.165 122.116 75.819 125.755 75.3053 130.892" stroke="black" stroke-width="2.56842"/>
<path d="M118.647 206.301C124.718 206.301 129.443 207.227 133.926 208.449C138.336 209.651 142.807 211.238 147.897 212.407L147.987 212.428L148.079 212.435C177.696 214.877 195.455 228.034 208.344 246.15H32.8454C43.1426 227.614 57.7186 215.706 81.1716 210.086L82.3327 209.814C91.9724 207.617 103.103 206.451 116.037 206.314L118.647 206.301Z" fill="#9287FF" stroke="black" stroke-width="2.56842"/>
<path d="M74.939 211.207L80.8162 198.624C80.9566 198.324 81.3055 198.181 81.6182 198.291C105.971 206.912 128.125 206.305 148.656 200.589C148.915 200.518 149.191 200.613 149.349 200.829L158.295 213.063C158.541 213.399 158.416 213.873 158.028 214.026C136.449 222.499 95.9566 221.059 75.2502 212.057C74.9217 211.914 74.7874 211.532 74.939 211.207Z" fill="#E0DDFF" stroke="black" stroke-width="2.56842"/>
</g>
<defs>
<clipPath id="clip0_8652_2009">
<rect width="128.421" height="211.895" fill="white" transform="translate(58.2896 27.834)"/>
</clipPath>
</defs>
</svg>
