<svg width="220" height="221" viewBox="0 0 220 221" fill="none" xmlns="http://www.w3.org/2000/svg">
<circle cx="110" cy="110.223" r="110" fill="#E0DDFF"/>
<mask id="mask0_8644_511" style="mask-type:alpha" maskUnits="userSpaceOnUse" x="0" y="0" width="220" height="221">
<circle cx="110" cy="110.223" r="110" fill="#FFEDEF"/>
</mask>
<g mask="url(#mask0_8644_511)">
<g clip-path="url(#clip0_8644_511)">
<path d="M141.263 210.092C132.926 198.513 126.404 176.127 125.632 164.934L85.9738 147.855L69.4738 210.092H141.263Z" fill="#F9C9B6" stroke="black" stroke-width="2.31579"/>
<mask id="mask1_8644_511" style="mask-type:alpha" maskUnits="userSpaceOnUse" x="69" y="147" width="73" height="69">
<path d="M141.263 215.882C132.926 204.303 126.404 176.127 125.632 164.934L85.9738 147.855L69.4738 215.882H141.263Z" fill="#F9C9B6"/>
</mask>
<g mask="url(#mask1_8644_511)">
<g style="mix-blend-mode:multiply">
<ellipse cx="123.895" cy="146.697" rx="34.1579" ry="31.2632" fill="black"/>
</g>
</g>
<mask id="path-6-inside-1_8644_511" fill="white">
<path d="M94.706 39.0756C118.775 33.3089 142.959 48.0631 148.875 72.057H148.878L148.924 72.2504C148.932 72.2837 148.941 72.3166 148.949 72.35C148.955 72.3761 148.961 72.4029 148.967 72.4291L158.716 113.115L158.705 113.117C163.965 137.009 149.136 160.809 125.244 166.534C101.352 172.258 77.3474 157.762 71.2089 134.08L71.1982 134.083L61.3613 93.0258L61.3652 93.0248C55.7649 68.9547 70.6366 44.8424 94.706 39.0756Z"/>
</mask>
<path d="M94.706 39.0756C118.775 33.3089 142.959 48.0631 148.875 72.057H148.878L148.924 72.2504C148.932 72.2837 148.941 72.3166 148.949 72.35C148.955 72.3761 148.961 72.4029 148.967 72.4291L158.716 113.115L158.705 113.117C163.965 137.009 149.136 160.809 125.244 166.534C101.352 172.258 77.3474 157.762 71.2089 134.08L71.1982 134.083L61.3613 93.0258L61.3652 93.0248C55.7649 68.9547 70.6366 44.8424 94.706 39.0756Z" fill="#F9C9B6"/>
<path d="M94.706 39.0756L94.1664 36.8235L94.1664 36.8235L94.706 39.0756ZM148.875 72.057L146.626 72.6114L147.061 74.3728H148.875V72.057ZM148.878 72.057L151.131 71.5222L150.708 69.7412H148.878V72.057ZM148.924 72.2504L146.671 72.7852L146.673 72.795L148.924 72.2504ZM148.949 72.35L151.201 71.8104V71.8104L148.949 72.35ZM148.967 72.4291L146.714 72.9647L146.715 72.9687L148.967 72.4291ZM158.716 113.115L159.13 115.393L161.538 114.955L160.968 112.575L158.716 113.115ZM158.705 113.117L158.291 110.838L155.927 111.268L156.443 113.614L158.705 113.117ZM125.244 166.534L125.784 168.786L125.244 166.534ZM71.2089 134.08L73.4506 133.499L72.8622 131.229L70.5996 131.846L71.2089 134.08ZM71.1982 134.083L68.9461 134.623L69.5027 136.946L71.8075 136.318L71.1982 134.083ZM61.3613 93.0258L60.7996 90.7791L58.5749 91.3353L59.1092 93.5653L61.3613 93.0258ZM61.3652 93.0248L61.9268 95.2714L64.137 94.7189L63.6207 92.5L61.3652 93.0248ZM94.706 39.0756L95.2456 41.3276C118.076 35.8578 141.015 49.8525 146.626 72.6114L148.875 72.057L151.123 71.5026C144.903 46.2738 119.474 30.76 94.1664 36.8235L94.706 39.0756ZM148.875 72.057V74.3728H148.878V72.057V69.7412H148.875V72.057ZM148.878 72.057L146.625 72.5919L146.671 72.7852L148.924 72.2504L151.177 71.7155L151.131 71.5222L148.878 72.057ZM148.924 72.2504L146.673 72.795C146.678 72.8175 146.683 72.8373 146.687 72.8523C146.691 72.8666 146.695 72.8803 146.696 72.8871C146.701 72.9063 146.7 72.9002 146.697 72.8896L148.949 72.35L151.201 71.8104C151.191 71.7665 151.18 71.7271 151.177 71.7132C151.171 71.6919 151.173 71.6972 151.175 71.7057L148.924 72.2504ZM148.949 72.35L146.697 72.8895C146.694 72.8785 146.693 72.8708 146.692 72.8687C146.692 72.8672 146.692 72.867 146.693 72.8743C146.695 72.8794 146.697 72.8925 146.7 72.9063C146.704 72.921 146.708 72.9412 146.714 72.9647L148.967 72.4291L151.22 71.8935C151.222 71.9038 151.224 71.9109 151.224 71.9124C151.224 71.913 151.224 71.9129 151.222 71.9047C151.221 71.8988 151.218 71.8854 151.215 71.8707C151.212 71.8554 151.207 71.8345 151.201 71.8104L148.949 72.35ZM148.967 72.4291L146.715 72.9687L156.464 113.654L158.716 113.115L160.968 112.575L151.219 71.8894L148.967 72.4291ZM158.716 113.115L158.301 110.836L158.291 110.838L158.705 113.117L159.119 115.395L159.13 115.393L158.716 113.115ZM158.705 113.117L156.443 113.614C161.433 136.277 147.366 158.852 124.705 164.282L125.244 166.534L125.784 168.786C150.906 162.767 166.498 137.741 160.967 112.619L158.705 113.117ZM125.244 166.534L124.705 164.282C102.043 169.711 79.273 155.962 73.4506 133.499L71.2089 134.08L68.9672 134.662C75.4218 159.563 100.662 174.805 125.784 168.786L125.244 166.534ZM71.2089 134.08L70.5996 131.846L70.5889 131.849L71.1982 134.083L71.8075 136.318L71.8182 136.315L71.2089 134.08ZM71.1982 134.083L73.4502 133.544L63.6133 92.4862L61.3613 93.0258L59.1092 93.5653L68.9461 134.623L71.1982 134.083ZM61.3613 93.0258L61.9229 95.2724L61.9268 95.2714L61.3652 93.0248L60.8035 90.7781L60.7996 90.7791L61.3613 93.0258ZM61.3652 93.0248L63.6207 92.5C58.3087 69.6688 72.4152 46.7976 95.2456 41.3276L94.706 39.0756L94.1664 36.8235C68.858 42.8872 53.2211 68.2406 59.1096 93.5496L61.3652 93.0248Z" fill="black" mask="url(#path-6-inside-1_8644_511)"/>
</g>
<path d="M120.801 123.738C127.075 122.602 132.947 127.807 134.226 134.871C135.504 141.934 131.828 148.868 125.554 150.003C119.28 151.139 113.408 145.933 112.129 138.869C110.851 131.806 114.527 124.873 120.801 123.738Z" fill="black" stroke="black" stroke-width="2.07909"/>
<mask id="mask2_8644_511" style="mask-type:alpha" maskUnits="userSpaceOnUse" x="112" y="124" width="22" height="26">
<ellipse cx="123.177" cy="136.87" rx="10.1881" ry="12.3067" transform="rotate(-10.2582 123.177 136.87)" fill="#171921"/>
</mask>
<g mask="url(#mask2_8644_511)">
<ellipse cx="125.065" cy="147.298" rx="11.6974" ry="10.5974" transform="rotate(-10.2582 125.065 147.298)" fill="#FC909F"/>
</g>
<circle cx="97.0335" cy="92.5201" r="6.94737" transform="rotate(-6.27568 97.0335 92.5201)" fill="#D2EFF3"/>
<ellipse cx="97.7804" cy="97.8251" rx="5.21053" ry="7.81579" transform="rotate(-6.77646 97.7804 97.8251)" fill="black"/>
<circle cx="133.958" cy="87.525" r="6.94737" transform="rotate(-6.27568 133.958 87.525)" fill="#D2EFF3"/>
<ellipse cx="134.833" cy="92.0356" rx="5.21053" ry="7.81579" transform="rotate(-6.27568 134.833 92.0356)" fill="black"/>
<path d="M126.79 76.7688C130.07 75.2249 137.79 73.8161 142.421 80.5319" stroke="black" stroke-width="2.31579" stroke-linecap="round"/>
<path d="M83.1248 91.4199C84.3236 87.998 88.7302 81.5054 96.7664 82.9102" stroke="black" stroke-width="2.31579" stroke-linecap="round"/>
<path d="M84.5693 87.9097L81.0097 84.7681" stroke="black" stroke-width="2.31579" stroke-linecap="round"/>
<path d="M140.662 77.3145L144.221 74.1729" stroke="black" stroke-width="2.31579" stroke-linecap="round"/>
<path d="M88.303 84.6423L85.9602 80.5129" stroke="black" stroke-width="2.31579" stroke-linecap="round"/>
<path d="M136.349 75.2051L138.692 71.0757" stroke="black" stroke-width="2.31579" stroke-linecap="round"/>
<path d="M92.9787 82.5503L91.7044 77.9768" stroke="black" stroke-width="2.31579" stroke-linecap="round"/>
<path d="M131.094 74.8499L132.369 70.2764" stroke="black" stroke-width="2.31579" stroke-linecap="round"/>
<path d="M94.9578 69.6975L96.0506 69.8723V69.8743C96.0504 69.8755 96.0498 69.8768 96.0496 69.8782C96.0491 69.8813 96.0483 69.8849 96.0476 69.8889C96.0463 69.8969 96.0448 69.9068 96.0428 69.9182C96.0386 69.9412 96.0328 69.9712 96.0252 70.0081C96.0098 70.0822 95.9864 70.1845 95.9529 70.3137C95.8858 70.5725 95.7773 70.9402 95.6053 71.4104C95.261 72.3512 94.6634 73.7019 93.6404 75.4182C91.8052 78.4971 88.5995 82.7449 83.032 87.9163C100.385 88.35 114.88 82.761 125.196 76.8987C130.615 73.8192 134.872 70.6701 137.769 68.2942C139.218 67.1066 140.325 66.1127 141.068 65.4192C141.439 65.0725 141.719 64.8008 141.905 64.6174C141.998 64.5258 142.067 64.4562 142.112 64.4104C142.135 64.3875 142.151 64.3705 142.162 64.3596L142.176 64.3459L143.497 62.9709L144.035 64.8L142.973 65.1125C144.035 64.8005 144.035 64.8007 144.035 64.801V64.802C144.035 64.8031 144.036 64.8047 144.037 64.8069C144.038 64.8112 144.039 64.8179 144.042 64.8264C144.047 64.8437 144.055 64.8696 144.065 64.9036C144.085 64.9715 144.115 65.0724 144.153 65.2043C144.23 65.4687 144.344 65.8584 144.489 66.3586C144.78 67.3591 145.199 68.8035 145.708 70.5803C146.726 74.1341 148.109 79.0189 149.567 84.3401C152.478 94.9617 155.706 107.39 156.916 114.428L157.025 115.093C159.175 128.794 154.381 138.56 153.076 143.067C153.107 143.093 153.148 143.124 153.2 143.161C153.546 143.406 154.159 143.688 155.045 143.97C156.791 144.525 159.282 144.98 161.946 145.237C164.606 145.493 167.375 145.545 169.668 145.322C170.815 145.21 171.813 145.031 172.606 144.788C173.368 144.556 173.844 144.291 174.101 144.053C174.109 144.002 174.12 143.884 174.092 143.656C174.035 143.207 173.857 142.575 173.55 141.739C172.934 140.066 171.922 137.892 170.768 135.266C168.494 130.091 165.757 123.36 165.161 116.503L165.104 115.781C164.585 108.351 166.095 101.976 167.422 96.2317C168.804 90.2455 169.954 85.0468 168.773 79.7786L168.429 78.2952C166.67 70.9585 164.301 64.8282 160.781 60.344C157.066 55.6118 152.028 52.6577 144.863 52.1145L144.123 52.0588L143.893 51.3528C140.596 41.1805 136.146 34.5331 130.47 30.4114C124.797 26.2912 117.759 24.593 109.085 24.593L108.332 24.5969C92.5162 24.784 75.5908 30.8475 62.8396 41.219C49.8994 51.7443 41.3354 66.6324 42.4558 84.2542L42.5642 86.0637C43.6028 104.619 42.1842 118.785 39.1053 129.245C36.207 139.092 31.8129 145.724 26.5476 149.594C27.2387 149.947 28.1599 150.396 29.3113 150.909C32.2216 152.207 36.6009 153.919 42.4383 155.557C53.6318 158.697 70.1955 161.563 92.0594 160.698C87.2405 156.559 82.3778 151.537 78.5281 146.228C74.1092 140.133 70.9231 133.524 70.8299 127.368L70.8162 125.866C70.7799 117.727 71.2244 100.682 71.368 96.97L71.3885 96.5403C71.9082 87.5458 77.721 80.5993 83.2586 75.9543C86.0875 73.5815 88.8895 71.7699 90.9832 70.552C92.0312 69.9424 92.9051 69.4798 93.5193 69.1682C93.8262 69.0125 94.0687 68.8946 94.2361 68.8147C94.3196 68.7748 94.3846 68.7437 94.4295 68.7229C94.4519 68.7125 94.47 68.7051 94.4822 68.6995C94.4883 68.6967 94.4933 68.6942 94.4969 68.6926C94.4985 68.6919 94.4997 68.6911 94.5008 68.6907L94.5017 68.6897C94.5022 68.6895 94.503 68.6894 94.9578 69.6975ZM94.9578 69.6975L94.5027 68.6897L96.3699 67.8469L96.0506 69.8704L94.9578 69.6975Z" fill="#D2EFF3" stroke="black" stroke-width="2.21264"/>
<path d="M144.737 51.7495C145.026 54.3548 144.563 59.5653 143.869 63.039" stroke="black" stroke-width="2.31579"/>
<path d="M117.722 100.867C117.84 103.091 118.705 107.861 121.224 109.144C124.372 110.748 121.904 116.064 116.01 115.723" stroke="black" stroke-width="2.31579"/>
<path d="M75.8422 125.587L75.5327 125.92C73.4148 128.202 70.6334 129.908 67.4614 129.908C65.5404 129.908 63.7367 129.625 62.3276 128.824C60.9419 128.036 60.0144 126.789 59.7182 125.077L59.6674 124.728C59.5892 124.072 59.6401 123.448 59.809 122.869C57.8979 121.19 56.6916 118.724 56.2856 115.418L56.2084 114.662C55.893 110.876 57.0806 107.839 59.2827 105.762C61.4603 103.709 64.5182 102.697 67.7836 102.697C70.4996 102.697 73.1279 103.423 75.2895 104.75L75.8422 105.089V125.587Z" stroke="black" stroke-width="2.31579"/>
<path d="M67.7837 103.855C73.8586 103.855 79.3616 107.782 79.3618 113.697C79.3618 114.077 79.3408 114.452 79.3013 114.821C78.9926 120.594 73.8999 128.75 67.4614 128.75C63.7923 128.75 61.1823 127.649 60.8179 124.592C60.7231 123.796 60.8735 123.1 61.2143 122.508C59.0687 120.976 57.6841 118.433 57.3618 114.566C56.7829 107.619 61.7086 103.855 67.7837 103.855Z" fill="#F9C9B6"/>
<path d="M70.3422 108.777C68.0264 107.715 62.9317 107.156 61.079 113.408" stroke="black" stroke-width="2.31579"/>
<path d="M64.2632 109.066C65.5176 110.127 67.9106 113.408 67.4475 118.039" stroke="black" stroke-width="2.31579"/>
<circle cx="66.579" cy="125.276" r="2.31579" fill="white"/>
<circle cx="67.158" cy="124.697" r="0.578947" fill="#FFEDEF"/>
<path d="M73.7842 189.199C74.7115 188.988 75.9726 189.051 77.5488 189.418C79.1089 189.781 80.8875 190.419 82.8057 191.262C86.6422 192.948 90.9255 195.408 94.9502 197.955C98.9685 200.499 102.7 203.112 105.429 205.09C106.792 206.078 107.904 206.907 108.674 207.488C109.059 207.779 109.358 208.007 109.561 208.163C109.662 208.241 109.739 208.301 109.791 208.341C109.817 208.361 109.836 208.376 109.849 208.386C109.855 208.391 109.86 208.394 109.863 208.396C109.865 208.398 109.865 208.399 109.866 208.399H109.867L110.579 207.486L109.867 208.4L110.864 209.176L111.55 208.115C111.551 208.116 111.551 208.116 111.551 208.116V208.115L111.552 208.114C111.553 208.113 111.555 208.109 111.558 208.105C111.563 208.098 111.57 208.085 111.581 208.069C111.603 208.037 111.635 207.987 111.679 207.922C111.766 207.792 111.896 207.599 112.066 207.353C112.407 206.86 112.908 206.156 113.542 205.313C114.812 203.626 116.609 201.397 118.726 199.218C120.847 197.033 123.257 194.933 125.746 193.472C128.089 192.097 130.404 191.344 132.571 191.51L133.003 191.556C157.572 194.868 175.652 205.751 187.389 221.96H29.1641C38.4484 205.247 51.5907 194.511 72.7363 189.443L73.7842 189.199Z" fill="#9287FF" stroke="black" stroke-width="2.31579"/>
<path d="M66.9337 190.747L69.9249 179.612C70.0461 179.161 70.6294 179.034 70.9444 179.379C79.5494 188.795 90.4083 188.426 94.0125 187.994C94.5018 187.935 94.8849 188.47 94.6551 188.906L87.0378 203.353C86.9211 203.574 86.6821 203.696 86.4371 203.645C84.1511 203.169 72.7607 200.384 67.0008 191.199C66.9165 191.065 66.8925 190.9 66.9337 190.747Z" fill="#E0DDFF" stroke="black" stroke-width="2.31579"/>
<path d="M142.534 190.687L135.829 179.407C135.602 179.024 135.041 179.031 134.798 179.404C131.477 184.52 125.748 186.876 123.745 187.573C123.385 187.698 123.22 188.126 123.414 188.454L131.231 201.663C131.348 201.86 131.569 201.967 131.789 201.904C133.025 201.552 137.266 199.778 142.526 191.289C142.639 191.106 142.643 190.871 142.534 190.687Z" fill="#E0DDFF" stroke="black" stroke-width="2.31579"/>
<path d="M99.8684 200.829L94.6579 188.382L90.6053 197.066L99.8684 200.829Z" fill="black" stroke="black" stroke-width="2.31579" stroke-linejoin="round"/>
<path d="M118.105 200.25L123.316 187.803L127.368 196.487L118.105 200.25Z" fill="black" stroke="black" stroke-width="2.31579" stroke-linejoin="round"/>
<path d="M77.2895 177.382L70.3421 179.118L76.1316 182.882L77.2895 177.382Z" fill="black" stroke="black" stroke-width="2.31579" stroke-linejoin="round"/>
<path d="M129.105 177.382L135.474 179.118L131.421 182.882L129.105 177.382Z" fill="black" stroke="black" stroke-width="2.31579" stroke-linejoin="round"/>
</g>
<defs>
<clipPath id="clip0_8644_511">
<rect width="115.789" height="185.263" fill="white" transform="translate(52.1053 25.1184)"/>
</clipPath>
</defs>
</svg>
