<svg width="220" height="221" viewBox="0 0 220 221" fill="none" xmlns="http://www.w3.org/2000/svg">
<circle cx="110" cy="110.223" r="110" fill="#F4D150"/>
<mask id="mask0_8646_913" style="mask-type:alpha" maskUnits="userSpaceOnUse" x="0" y="0" width="220" height="221">
<circle cx="110" cy="110.223" r="110" fill="#FFEDEF"/>
</mask>
<g mask="url(#mask0_8646_913)">
<path d="M141.368 215.724C133.032 204.145 126.509 175.969 125.737 164.776L86.079 147.697L69.579 215.724H141.368Z" fill="#FC909F" stroke="black" stroke-width="2.31579"/>
<mask id="mask1_8646_913" style="mask-type:alpha" maskUnits="userSpaceOnUse" x="69" y="147" width="73" height="69">
<path d="M141.369 215.724C133.032 204.145 126.509 175.969 125.737 164.776L86.0791 147.697L69.5791 215.724H141.369Z" fill="#FFEDEF"/>
</mask>
<g mask="url(#mask1_8646_913)">
<ellipse cx="123.895" cy="146.697" rx="34.1579" ry="31.2632" fill="black"/>
</g>
<g clip-path="url(#clip0_8646_913)">
<path d="M141.263 210.092C132.926 198.513 126.404 176.127 125.632 164.934L85.9738 147.855L69.4738 210.092H141.263Z" fill="#F9C9B6" stroke="black" stroke-width="2.31579"/>
<mask id="mask2_8646_913" style="mask-type:alpha" maskUnits="userSpaceOnUse" x="69" y="147" width="73" height="69">
<path d="M141.263 215.882C132.926 204.303 126.404 176.127 125.632 164.934L85.9738 147.855L69.4738 215.882H141.263Z" fill="#F9C9B6"/>
</mask>
<g mask="url(#mask2_8646_913)">
<g style="mix-blend-mode:multiply">
<ellipse cx="123.895" cy="146.697" rx="34.1579" ry="31.2632" fill="black"/>
</g>
</g>
<mask id="path-9-inside-1_8646_913" fill="white">
<path d="M94.706 39.0756C118.775 33.3089 142.959 48.0631 148.875 72.057H148.878L148.924 72.2504C148.932 72.2837 148.941 72.3166 148.949 72.35C148.955 72.3761 148.961 72.4029 148.967 72.4291L158.716 113.115L158.705 113.117C163.965 137.009 149.136 160.809 125.244 166.534C101.352 172.258 77.3474 157.762 71.2089 134.08L71.1982 134.083L61.3613 93.0258L61.3652 93.0248C55.7649 68.9547 70.6366 44.8424 94.706 39.0756Z"/>
</mask>
<path d="M94.706 39.0756C118.775 33.3089 142.959 48.0631 148.875 72.057H148.878L148.924 72.2504C148.932 72.2837 148.941 72.3166 148.949 72.35C148.955 72.3761 148.961 72.4029 148.967 72.4291L158.716 113.115L158.705 113.117C163.965 137.009 149.136 160.809 125.244 166.534C101.352 172.258 77.3474 157.762 71.2089 134.08L71.1982 134.083L61.3613 93.0258L61.3652 93.0248C55.7649 68.9547 70.6366 44.8424 94.706 39.0756Z" fill="#F9C9B6"/>
<path d="M94.706 39.0756L94.1664 36.8235L94.1664 36.8235L94.706 39.0756ZM148.875 72.057L146.626 72.6114L147.061 74.3728H148.875V72.057ZM148.878 72.057L151.131 71.5222L150.708 69.7412H148.878V72.057ZM148.924 72.2504L146.671 72.7852L146.673 72.795L148.924 72.2504ZM148.949 72.35L151.201 71.8104V71.8104L148.949 72.35ZM148.967 72.4291L146.714 72.9647L146.715 72.9687L148.967 72.4291ZM158.716 113.115L159.13 115.393L161.538 114.955L160.968 112.575L158.716 113.115ZM158.705 113.117L158.291 110.838L155.927 111.268L156.443 113.614L158.705 113.117ZM125.244 166.534L125.784 168.786L125.244 166.534ZM71.2089 134.08L73.4506 133.499L72.8622 131.229L70.5996 131.846L71.2089 134.08ZM71.1982 134.083L68.9461 134.623L69.5027 136.946L71.8075 136.318L71.1982 134.083ZM61.3613 93.0258L60.7996 90.7791L58.5749 91.3353L59.1092 93.5653L61.3613 93.0258ZM61.3652 93.0248L61.9268 95.2714L64.137 94.7189L63.6207 92.5L61.3652 93.0248ZM94.706 39.0756L95.2456 41.3276C118.076 35.8578 141.015 49.8525 146.626 72.6114L148.875 72.057L151.123 71.5026C144.903 46.2738 119.474 30.76 94.1664 36.8235L94.706 39.0756ZM148.875 72.057V74.3728H148.878V72.057V69.7412H148.875V72.057ZM148.878 72.057L146.625 72.5919L146.671 72.7852L148.924 72.2504L151.177 71.7155L151.131 71.5222L148.878 72.057ZM148.924 72.2504L146.673 72.795C146.678 72.8175 146.683 72.8373 146.687 72.8523C146.691 72.8666 146.695 72.8803 146.696 72.8871C146.701 72.9063 146.7 72.9002 146.697 72.8896L148.949 72.35L151.201 71.8104C151.191 71.7665 151.18 71.7271 151.177 71.7132C151.171 71.6919 151.173 71.6972 151.175 71.7057L148.924 72.2504ZM148.949 72.35L146.697 72.8895C146.694 72.8785 146.693 72.8708 146.692 72.8687C146.692 72.8672 146.692 72.867 146.693 72.8743C146.695 72.8794 146.697 72.8925 146.7 72.9063C146.704 72.921 146.708 72.9412 146.714 72.9647L148.967 72.4291L151.22 71.8935C151.222 71.9038 151.224 71.9109 151.224 71.9124C151.224 71.913 151.224 71.9129 151.222 71.9047C151.221 71.8988 151.218 71.8854 151.215 71.8707C151.212 71.8554 151.207 71.8345 151.201 71.8104L148.949 72.35ZM148.967 72.4291L146.715 72.9687L156.464 113.654L158.716 113.115L160.968 112.575L151.219 71.8894L148.967 72.4291ZM158.716 113.115L158.301 110.836L158.291 110.838L158.705 113.117L159.119 115.395L159.13 115.393L158.716 113.115ZM158.705 113.117L156.443 113.614C161.433 136.277 147.366 158.852 124.705 164.282L125.244 166.534L125.784 168.786C150.906 162.767 166.498 137.741 160.967 112.619L158.705 113.117ZM125.244 166.534L124.705 164.282C102.043 169.711 79.273 155.962 73.4506 133.499L71.2089 134.08L68.9672 134.662C75.4218 159.563 100.662 174.805 125.784 168.786L125.244 166.534ZM71.2089 134.08L70.5996 131.846L70.5889 131.849L71.1982 134.083L71.8075 136.318L71.8182 136.315L71.2089 134.08ZM71.1982 134.083L73.4502 133.544L63.6133 92.4862L61.3613 93.0258L59.1092 93.5653L68.9461 134.623L71.1982 134.083ZM61.3613 93.0258L61.9229 95.2724L61.9268 95.2714L61.3652 93.0248L60.8035 90.7781L60.7996 90.7791L61.3613 93.0258ZM61.3652 93.0248L63.6207 92.5C58.3087 69.6688 72.4152 46.7976 95.2456 41.3276L94.706 39.0756L94.1664 36.8235C68.858 42.8872 53.2211 68.2406 59.1096 93.5496L61.3652 93.0248Z" fill="black" mask="url(#path-9-inside-1_8646_913)"/>
</g>
<path d="M103.921 127.881C105.369 137.723 121.869 142.355 136.921 131.066" stroke="black" stroke-width="2.31579"/>
<path d="M126.79 76.7688C130.07 75.2249 137.79 73.8161 142.421 80.5319" stroke="black" stroke-width="2.31579" stroke-linecap="round"/>
<path d="M83.1248 91.4199C84.3236 87.998 88.7302 81.5054 96.7664 82.9102" stroke="black" stroke-width="2.31579" stroke-linecap="round"/>
<path d="M78.926 32.7551C89.5643 28.4444 100.126 27.689 105.824 28.2961L105.869 28.3L105.913 28.302C121.353 28.7561 133.356 34.9009 141.85 42.3997C149.986 49.5822 154.842 57.9548 156.428 63.6624C154.077 65.0036 150.053 66.1621 144.919 67.1086C139.318 68.1413 132.592 68.8953 125.73 69.4329C112.005 70.508 97.8298 70.7096 91.2092 70.5657L87.6936 70.4895L90.4758 72.6399C91.9218 73.7572 93.8473 74.5344 95.8831 75.0813C97.9334 75.6321 100.178 75.9703 102.327 76.1624C104.54 76.3601 106.698 76.4052 108.486 76.3596C102.356 81.0846 94.5565 84.7193 86.8645 87.4124C77.9799 90.5229 69.3401 92.3454 63.8059 93.1565L62.5618 93.3391L62.8459 94.5637C64.9443 103.608 68.9468 119.979 71.303 129.64L72.9788 136.544C73.6065 139.181 75.5832 142.939 77.8391 146.403C79.9187 149.596 82.3461 152.704 84.3938 154.618L79.8557 173.039H62.7375C67.5658 165.679 68.5881 157.175 67.6038 148.155C66.5383 138.391 63.1098 127.889 59.4963 117.373C55.8656 106.808 52.0464 96.2257 50.0754 86.1292C48.1678 76.3568 48.0261 67.1912 51.3801 59.0813L51.7161 58.3C57.7018 44.8605 68.3124 37.056 78.926 32.7551Z" fill="white" stroke="black" stroke-width="2.31579"/>
<ellipse cx="97.5415" cy="97.5497" rx="5.21053" ry="5.78947" transform="rotate(-6.77646 97.5415 97.5497)" fill="black"/>
<ellipse cx="134.612" cy="91.7582" rx="5.21053" ry="5.78947" transform="rotate(-6.27568 134.612 91.7582)" fill="black"/>
<path d="M117.4 98.5737C118.528 106.6 123.427 112.342 123.427 112.342C123.427 112.342 121.904 116.064 116.01 115.723" stroke="black" stroke-width="2.31579"/>
<path d="M75.8423 125.587L75.5327 125.92C73.4148 128.202 70.6334 129.908 67.4614 129.908C65.5405 129.908 63.7367 129.625 62.3276 128.824C60.942 128.036 60.0145 126.789 59.7183 125.077L59.6675 124.728C59.5893 124.072 59.6402 123.448 59.8091 122.869C57.8979 121.19 56.6917 118.724 56.2856 115.418L56.2085 114.662C55.8931 110.876 57.0807 107.839 59.2827 105.762C61.4604 103.709 64.5183 102.697 67.7837 102.697C70.4997 102.697 73.128 103.423 75.2896 104.75L75.8423 105.089V125.587Z" stroke="black" stroke-width="2.31579"/>
<path d="M67.7836 103.855C73.8585 103.855 79.3616 107.782 79.3617 113.697C79.3617 114.077 79.3408 114.452 79.3012 114.821C78.9925 120.594 73.8999 128.75 67.4614 128.75C63.7922 128.75 61.1822 127.649 60.8178 124.592C60.7231 123.796 60.8734 123.1 61.2143 122.508C59.0687 120.976 57.684 118.433 57.3617 114.566C56.7828 107.619 61.7085 103.855 67.7836 103.855Z" fill="#F9C9B6"/>
<path d="M70.3421 108.777C68.0263 107.715 62.9316 107.156 61.079 113.408" stroke="black" stroke-width="2.31579"/>
<path d="M64.2633 109.066C65.5177 110.127 67.9107 113.408 67.4475 118.039" stroke="black" stroke-width="2.31579"/>
<path d="M106.526 186.031C112 186.031 116.26 186.866 120.303 187.968C124.279 189.052 128.31 190.482 132.898 191.536L132.979 191.555L133.062 191.562C159.766 193.764 175.779 205.626 187.4 221.961H29.1641C38.4484 205.248 51.5905 194.512 72.7363 189.444L73.7842 189.199C82.4755 187.218 92.5107 186.167 104.172 186.043L106.526 186.031Z" fill="#77311D" stroke="black" stroke-width="2.31579"/>
<path d="M67.1172 190.455L72.4163 179.109C72.5429 178.838 72.8574 178.709 73.1394 178.809C95.0968 186.582 115.072 186.034 133.584 180.881C133.817 180.816 134.065 180.902 134.208 181.097L142.274 192.128C142.496 192.431 142.383 192.859 142.033 192.996C122.577 200.636 86.0675 199.337 67.3978 191.221C67.1016 191.092 66.9805 190.747 67.1172 190.455Z" fill="white" stroke="black" stroke-width="2.31579"/>
</g>
<defs>
<clipPath id="clip0_8646_913">
<rect width="115.789" height="185.263" fill="white" transform="translate(52.1053 25.1184)"/>
</clipPath>
</defs>
</svg>
