<svg width="221" height="236" viewBox="0 0 221 236" fill="none" xmlns="http://www.w3.org/2000/svg">
<path d="M6.19024 13.6179C6.21782 14.1104 6.33405 14.5103 6.53893 14.8176C6.92899 15.3928 7.61651 15.6804 8.6015 15.6804C9.04277 15.6804 9.44465 15.6174 9.80713 15.4913C10.5084 15.2471 10.8591 14.8097 10.8591 14.1793C10.8591 13.7065 10.7113 13.3697 10.4159 13.1687C10.1164 12.9717 9.64756 12.8003 9.00929 12.6546L7.83321 12.3886C7.06491 12.2153 6.5212 12.0242 6.20206 11.8153C5.65047 11.4529 5.37467 10.9111 5.37467 10.1901C5.37467 9.41 5.64456 8.76976 6.18433 8.26938C6.72411 7.76901 7.48846 7.51882 8.47739 7.51882C9.38752 7.51882 10.1598 7.73946 10.7941 8.18073C11.4324 8.61807 11.7515 9.31938 11.7515 10.2847H10.6463C10.5872 9.81976 10.4612 9.46319 10.2681 9.21497C9.90957 8.76188 9.30084 8.53533 8.44193 8.53533C7.7485 8.53533 7.25009 8.68111 6.94672 8.97266C6.64334 9.26422 6.49165 9.60306 6.49165 9.98917C6.49165 10.4147 6.66895 10.7259 7.02354 10.9229C7.256 11.049 7.78199 11.2066 8.6015 11.3957L9.81895 11.6735C10.406 11.8075 10.8591 11.9907 11.1782 12.2231C11.7298 12.6289 12.0056 13.218 12.0056 13.9902C12.0056 14.9516 11.655 15.6391 10.9537 16.0528C10.2563 16.4665 9.44465 16.6733 8.51876 16.6733C7.43921 16.6733 6.59409 16.3975 5.9834 15.8459C5.3727 15.2983 5.07326 14.5556 5.08508 13.6179H6.19024ZM15.8648 15.7336C16.5701 15.7336 17.0527 15.4677 17.3128 14.9358C17.5767 14.4 17.7087 13.805 17.7087 13.151C17.7087 12.56 17.6142 12.0793 17.425 11.709C17.1256 11.1259 16.6095 10.8343 15.8766 10.8343C15.2265 10.8343 14.7537 11.0825 14.4583 11.5789C14.1628 12.0754 14.015 12.6743 14.015 13.3756C14.015 14.0493 14.1628 14.6107 14.4583 15.0599C14.7537 15.5091 15.2226 15.7336 15.8648 15.7336ZM15.9062 9.90643C16.7218 9.90643 17.4113 10.1783 17.9747 10.722C18.5381 11.2657 18.8198 12.0655 18.8198 13.1214C18.8198 14.1419 18.5716 14.985 18.0751 15.6509C17.5787 16.3168 16.8084 16.6497 15.7643 16.6497C14.8936 16.6497 14.2022 16.3562 13.69 15.7691C13.1778 15.1781 12.9217 14.3862 12.9217 13.3933C12.9217 12.3295 13.1916 11.4824 13.7313 10.852C14.2711 10.2216 14.9961 9.90643 15.9062 9.90643ZM22.5312 9.90643C23.2444 9.90643 23.8235 10.0798 24.2688 10.4265C24.7179 10.7732 24.9878 11.3701 25.0784 12.2172H24.0442C23.9811 11.8272 23.8373 11.5041 23.6127 11.248C23.3882 10.988 23.0277 10.8579 22.5312 10.8579C21.8536 10.8579 21.3689 11.1889 21.0774 11.8508C20.8883 12.2803 20.7937 12.8102 20.7937 13.4406C20.7937 14.0749 20.9277 14.6088 21.1956 15.0422C21.4635 15.4756 21.8851 15.6923 22.4603 15.6923C22.9016 15.6923 23.2503 15.5583 23.5064 15.2904C23.7664 15.0185 23.9457 14.6482 24.0442 14.1793H25.0784C24.9602 15.0185 24.6647 15.6332 24.1919 16.0232C23.7191 16.4093 23.1143 16.6024 22.3776 16.6024C21.5502 16.6024 20.8902 16.301 20.3977 15.6982C19.9052 15.0914 19.659 14.335 19.659 13.4288C19.659 12.3177 19.9289 11.4529 20.4687 10.8343C21.0084 10.2157 21.696 9.90643 22.5312 9.90643ZM26.1422 10.1192H27.2237V16.4192H26.1422V10.1192ZM26.1422 7.73749H27.2237V8.94311H26.1422V7.73749ZM29.6527 14.7349C29.6527 15.0422 29.765 15.2845 29.9896 15.4618C30.2142 15.6391 30.4801 15.7277 30.7874 15.7277C31.1617 15.7277 31.5242 15.641 31.8748 15.4677C32.4658 15.1801 32.7613 14.7092 32.7613 14.0552V13.1983C32.6313 13.281 32.4639 13.35 32.259 13.4051C32.0541 13.4603 31.8532 13.4997 31.6562 13.5233L31.012 13.6061C30.6259 13.6573 30.3363 13.738 30.1432 13.8484C29.8162 14.0335 29.6527 14.329 29.6527 14.7349ZM32.2294 12.5836C32.4737 12.5521 32.6372 12.4497 32.72 12.2763C32.7672 12.1818 32.7909 12.0458 32.7909 11.8685C32.7909 11.5061 32.6609 11.2441 32.4008 11.0825C32.1447 10.917 31.7763 10.8343 31.2957 10.8343C30.7401 10.8343 30.3461 10.984 30.1137 11.2835C29.9837 11.4489 29.899 11.6952 29.8596 12.0222H28.8667C28.8864 11.2421 29.1385 10.7003 29.6232 10.397C30.1117 10.0896 30.6771 9.93598 31.3193 9.93598C32.064 9.93598 32.6687 10.0778 33.1337 10.3615C33.5946 10.6452 33.8251 11.0865 33.8251 11.6853V15.3318C33.8251 15.4421 33.8468 15.5307 33.8901 15.5977C33.9374 15.6647 34.0339 15.6982 34.1797 15.6982C34.227 15.6982 34.2802 15.6962 34.3393 15.6923C34.3984 15.6844 34.4614 15.6745 34.5284 15.6627V16.4487C34.3629 16.496 34.2369 16.5256 34.1502 16.5374C34.0635 16.5492 33.9453 16.5551 33.7956 16.5551C33.4292 16.5551 33.1632 16.4251 32.9977 16.1651C32.9111 16.0272 32.85 15.8321 32.8145 15.58C32.5978 15.8637 32.2866 16.1099 31.8808 16.3187C31.4749 16.5275 31.0278 16.6319 30.5392 16.6319C29.9521 16.6319 29.4715 16.4546 29.0972 16.1001C28.7268 15.7415 28.5416 15.2943 28.5416 14.7585C28.5416 14.1714 28.7248 13.7164 29.0913 13.3933C29.4577 13.0702 29.9384 12.8713 30.5333 12.7964L32.2294 12.5836ZM35.604 7.73749H36.6678V16.4192H35.604V7.73749ZM45.5741 12.8614L44.2562 9.02585L42.8555 12.8614H45.5741ZM43.6415 7.73749H44.9713L48.1213 16.4192H46.8329L45.9523 13.8188H42.5187L41.579 16.4192H40.3733L43.6415 7.73749ZM51.4899 9.90643C52.2031 9.90643 52.7822 10.0798 53.2275 10.4265C53.6766 10.7732 53.9465 11.3701 54.0371 12.2172H53.0029C52.9398 11.8272 52.796 11.5041 52.5715 11.248C52.3469 10.988 51.9864 10.8579 51.4899 10.8579C50.8123 10.8579 50.3277 11.1889 50.0361 11.8508C49.847 12.2803 49.7524 12.8102 49.7524 13.4406C49.7524 14.0749 49.8864 14.6088 50.1543 15.0422C50.4222 15.4756 50.8438 15.6923 51.419 15.6923C51.8603 15.6923 52.209 15.5583 52.4651 15.2904C52.7251 15.0185 52.9044 14.6482 53.0029 14.1793H54.0371C53.9189 15.0185 53.6234 15.6332 53.1506 16.0232C52.6778 16.4093 52.0731 16.6024 51.3363 16.6024C50.5089 16.6024 49.8489 16.301 49.3565 15.6982C48.864 15.0914 48.6177 14.335 48.6177 13.4288C48.6177 12.3177 48.8876 11.4529 49.4274 10.8343C49.9671 10.2157 50.6547 9.90643 51.4899 9.90643ZM55.3137 8.32257H56.3893V10.0896H57.3999V10.9584H56.3893V15.0895C56.3893 15.3101 56.4641 15.4578 56.6139 15.5327C56.6966 15.576 56.8345 15.5977 57.0276 15.5977C57.0788 15.5977 57.1339 15.5977 57.193 15.5977C57.2521 15.5938 57.3211 15.5879 57.3999 15.58V16.4192C57.2777 16.4546 57.1497 16.4803 57.0157 16.496C56.8857 16.5118 56.7439 16.5197 56.5902 16.5197C56.0938 16.5197 55.7569 16.3936 55.5796 16.1414C55.4023 15.8853 55.3137 15.5544 55.3137 15.1486V10.9584H54.4567V10.0896H55.3137V8.32257ZM58.4696 10.1192H59.5511V16.4192H58.4696V10.1192ZM58.4696 7.73749H59.5511V8.94311H58.4696V7.73749ZM61.6846 10.0896L63.3748 15.2431L65.1419 10.0896H66.3062L63.9185 16.4192H62.7838L60.4494 10.0896H61.6846ZM67.2163 10.1192H68.2978V16.4192H67.2163V10.1192ZM67.2163 7.73749H68.2978V8.94311H67.2163V7.73749ZM70.124 8.32257H71.1996V10.0896H72.2102V10.9584H71.1996V15.0895C71.1996 15.3101 71.2745 15.4578 71.4242 15.5327C71.5069 15.576 71.6448 15.5977 71.8379 15.5977C71.8891 15.5977 71.9443 15.5977 72.0034 15.5977C72.0624 15.5938 72.1314 15.5879 72.2102 15.58V16.4192C72.0881 16.4546 71.96 16.4803 71.8261 16.496C71.696 16.5118 71.5542 16.5197 71.4005 16.5197C70.9041 16.5197 70.5672 16.3936 70.3899 16.1414C70.2126 15.8853 70.124 15.5544 70.124 15.1486V10.9584H69.267V10.0896H70.124V8.32257ZM77.2336 10.0896H78.4097C78.26 10.4955 77.9271 11.4213 77.4109 12.8673C77.0248 13.9547 76.7018 14.8412 76.4417 15.5268C75.8271 17.1422 75.3937 18.1272 75.1415 18.4818C74.8894 18.8364 74.456 19.0137 73.8413 19.0137C73.6916 19.0137 73.5754 19.0077 73.4927 18.9959C73.4139 18.9841 73.3154 18.9624 73.1972 18.9309V17.9617C73.3823 18.0129 73.5163 18.0444 73.599 18.0562C73.6818 18.0681 73.7547 18.074 73.8177 18.074C74.0147 18.074 74.1585 18.0405 74.2491 17.9735C74.3437 17.9105 74.4225 17.8317 74.4855 17.7371C74.5052 17.7056 74.5761 17.544 74.6983 17.2525C74.8204 16.9609 74.9091 16.7442 74.9642 16.6024L72.6239 10.0896H73.8295L75.5257 15.2431L77.2336 10.0896Z" fill="#442FB8"/>
<path d="M205.305 0.866943L205.603 0.87085C211.844 1.02906 216.856 6.13878 216.856 12.4187C216.856 18.7984 211.684 23.9712 205.305 23.9714H162.201C155.821 23.9714 150.648 18.7986 150.648 12.4187C150.649 6.03921 155.821 0.867206 162.2 0.866943H205.305Z" stroke="#E0E0E0" stroke-width="0.711974"/>
<path d="M162.237 9.28024V10.0711H160V15.9192H159.087V10.0711H156.85V9.28024H162.237ZM162.955 9.25764H163.769V11.7343C163.962 11.4902 164.135 11.3185 164.289 11.219C164.551 11.0473 164.878 10.9614 165.269 10.9614C165.971 10.9614 166.447 11.207 166.698 11.6981C166.833 11.9663 166.901 12.3383 166.901 12.8144V15.9192H166.065V12.8686C166.065 12.5131 166.02 12.2525 165.929 12.0868C165.782 11.8216 165.504 11.6891 165.098 11.6891C164.76 11.6891 164.454 11.8051 164.18 12.0371C163.906 12.269 163.769 12.7074 163.769 13.3522V15.9192H162.955V9.25764ZM168.108 11.1015H168.935V15.9192H168.108V11.1015ZM168.108 9.28024H168.935V10.2022H168.108V9.28024ZM170.652 14.4007C170.676 14.6718 170.744 14.8797 170.855 15.0244C171.06 15.2865 171.416 15.4175 171.922 15.4175C172.223 15.4175 172.488 15.3528 172.717 15.2232C172.946 15.0906 173.061 14.8873 173.061 14.6131C173.061 14.4052 172.969 14.247 172.785 14.1386C172.668 14.0723 172.436 13.9954 172.089 13.9081L171.443 13.7454C171.03 13.6429 170.726 13.5284 170.53 13.4019C170.18 13.182 170.006 12.8777 170.006 12.489C170.006 12.031 170.17 11.6604 170.498 11.3772C170.83 11.094 171.274 10.9524 171.832 10.9524C172.561 10.9524 173.086 11.1663 173.409 11.5942C173.611 11.8653 173.709 12.1576 173.703 12.4709H172.934C172.919 12.2871 172.854 12.1199 172.74 11.9693C172.553 11.7553 172.229 11.6484 171.768 11.6484C171.461 11.6484 171.227 11.7071 171.068 11.8246C170.911 11.9421 170.833 12.0973 170.833 12.2901C170.833 12.501 170.937 12.6698 171.145 12.7963C171.265 12.8716 171.443 12.9379 171.678 12.9952L172.216 13.1262C172.8 13.2678 173.192 13.4049 173.391 13.5375C173.707 13.7454 173.865 14.0723 173.865 14.5182C173.865 14.949 173.701 15.3211 173.373 15.6345C173.047 15.9478 172.55 16.1045 171.881 16.1045C171.161 16.1045 170.65 15.9418 170.349 15.6164C170.051 15.288 169.891 14.8827 169.87 14.4007H170.652ZM177.747 11.0789L178.678 14.8933L179.623 11.0789H180.536L181.485 14.8707L182.475 11.0789H183.288L181.883 15.9192H181.037L180.052 12.1726L179.099 15.9192H178.254L176.857 11.0789H177.747ZM186.077 10.9705C186.42 10.9705 186.753 11.0518 187.075 11.2145C187.398 11.3742 187.643 11.5821 187.812 11.8382C187.975 12.0822 188.083 12.367 188.137 12.6924C188.186 12.9153 188.21 13.2708 188.21 13.7589H184.662C184.677 14.25 184.793 14.6447 185.01 14.943C185.227 15.2383 185.563 15.3859 186.018 15.3859C186.443 15.3859 186.782 15.2458 187.035 14.9656C187.179 14.8029 187.282 14.6146 187.342 14.4007H188.142C188.121 14.5784 188.05 14.7773 187.93 14.9972C187.812 15.2142 187.679 15.3919 187.532 15.5305C187.285 15.7716 186.979 15.9343 186.614 16.0186C186.419 16.0668 186.197 16.0909 185.95 16.0909C185.347 16.0909 184.837 15.8725 184.418 15.4356C183.999 14.9957 183.79 14.3811 183.79 13.5917C183.79 12.8144 184.001 12.1832 184.422 11.6981C184.844 11.213 185.396 10.9705 186.077 10.9705ZM187.374 13.1127C187.34 12.7602 187.264 12.4784 187.143 12.2675C186.92 11.8759 186.548 11.68 186.027 11.68C185.653 11.68 185.34 11.8156 185.087 12.0868C184.834 12.3549 184.7 12.6969 184.685 13.1127H187.374ZM191.229 10.9705C191.572 10.9705 191.905 11.0518 192.227 11.2145C192.55 11.3742 192.795 11.5821 192.964 11.8382C193.127 12.0822 193.235 12.367 193.289 12.6924C193.338 12.9153 193.362 13.2708 193.362 13.7589H189.814C189.829 14.25 189.945 14.6447 190.162 14.943C190.379 15.2383 190.715 15.3859 191.17 15.3859C191.595 15.3859 191.934 15.2458 192.187 14.9656C192.331 14.8029 192.434 14.6146 192.494 14.4007H193.294C193.273 14.5784 193.202 14.7773 193.082 14.9972C192.964 15.2142 192.832 15.3919 192.684 15.5305C192.437 15.7716 192.131 15.9343 191.766 16.0186C191.571 16.0668 191.349 16.0909 191.102 16.0909C190.5 16.0909 189.989 15.8725 189.57 15.4356C189.151 14.9957 188.942 14.3811 188.942 13.5917C188.942 12.8144 189.153 12.1832 189.575 11.6981C189.996 11.213 190.548 10.9705 191.229 10.9705ZM192.526 13.1127C192.493 12.7602 192.416 12.4784 192.295 12.2675C192.072 11.8759 191.7 11.68 191.179 11.68C190.805 11.68 190.492 11.8156 190.239 12.0868C189.986 12.3549 189.852 12.6969 189.837 13.1127H192.526ZM194.347 9.28024H195.129V13.1353L197.217 11.0789H198.256L196.403 12.8912L198.36 15.9192H197.321L195.811 13.4787L195.129 14.1024V15.9192H194.347V9.28024Z" fill="#BDBDBD"/>
<g clip-path="url(#clip0_8699_7861)">
<path d="M207.381 14.4401C207.405 14.4756 207.438 14.5047 207.476 14.5248C207.515 14.5449 207.557 14.5554 207.6 14.5554C207.644 14.5554 207.686 14.5449 207.724 14.5248C207.763 14.5047 207.795 14.4756 207.82 14.4401L210.223 10.9692C210.251 10.9292 210.267 10.8823 210.27 10.8336C210.273 10.785 210.263 10.7364 210.24 10.6932C210.217 10.6501 210.183 10.6139 210.142 10.5887C210.1 10.5635 210.052 10.5502 210.003 10.5503H205.197C205.149 10.5505 205.101 10.5639 205.06 10.5892C205.018 10.6145 204.984 10.6506 204.962 10.6937C204.939 10.7367 204.929 10.7852 204.931 10.8337C204.934 10.8823 204.95 10.9291 204.978 10.9692L207.381 14.4401Z" fill="#BDBDBD"/>
</g>
<path d="M3.79337 143.739C4.51673 143.158 5.08347 142.682 5.49356 142.312C5.90366 141.936 6.24826 141.546 6.52735 141.142C6.81214 140.731 6.95453 140.33 6.95453 139.937C6.95453 139.567 6.8634 139.276 6.68114 139.065C6.50457 138.849 6.21693 138.741 5.81822 138.741C5.43091 138.741 5.12903 138.863 4.91259 139.108C4.70185 139.347 4.58793 139.669 4.57084 140.074H3.819C3.84178 139.436 4.03544 138.943 4.39997 138.596C4.7645 138.248 5.2344 138.074 5.80968 138.074C6.39635 138.074 6.86055 138.237 7.2023 138.561C7.54974 138.886 7.72347 139.333 7.72347 139.903C7.72347 140.375 7.58107 140.837 7.29628 141.287C7.01719 141.731 6.69822 142.124 6.33939 142.466C5.98055 142.802 5.52204 143.195 4.96385 143.645H7.90288V144.294H3.79337V143.739ZM8.80164 141.21C8.80164 140.23 8.96112 139.467 9.28009 138.92C9.59905 138.368 10.1572 138.091 10.9546 138.091C11.7464 138.091 12.3017 138.368 12.6207 138.92C12.9396 139.467 13.0991 140.23 13.0991 141.21C13.0991 142.207 12.9396 142.981 12.6207 143.534C12.3017 144.086 11.7464 144.363 10.9546 144.363C10.1572 144.363 9.59905 144.086 9.28009 143.534C8.96112 142.981 8.80164 142.207 8.80164 141.21ZM12.3302 141.21C12.3302 140.714 12.296 140.296 12.2277 139.954C12.165 139.607 12.0312 139.327 11.8261 139.117C11.6268 138.906 11.3363 138.801 10.9546 138.801C10.5673 138.801 10.2712 138.906 10.0661 139.117C9.86675 139.327 9.7329 139.607 9.66455 139.954C9.6019 140.296 9.57057 140.714 9.57057 141.21C9.57057 141.723 9.6019 142.153 9.66455 142.5C9.7329 142.847 9.86675 143.127 10.0661 143.337C10.2712 143.548 10.5673 143.653 10.9546 143.653C11.3363 143.653 11.6268 143.548 11.8261 143.337C12.0312 143.127 12.165 142.847 12.2277 142.5C12.296 142.153 12.3302 141.723 12.3302 141.21ZM14.1665 141.21C14.1665 140.23 14.326 139.467 14.6449 138.92C14.9639 138.368 15.5221 138.091 16.3195 138.091C17.1112 138.091 17.6665 138.368 17.9855 138.92C18.3045 139.467 18.4639 140.23 18.4639 141.21C18.4639 142.207 18.3045 142.981 17.9855 143.534C17.6665 144.086 17.1112 144.363 16.3195 144.363C15.5221 144.363 14.9639 144.086 14.6449 143.534C14.326 142.981 14.1665 142.207 14.1665 141.21ZM17.695 141.21C17.695 140.714 17.6608 140.296 17.5925 139.954C17.5298 139.607 17.396 139.327 17.1909 139.117C16.9916 138.906 16.7011 138.801 16.3195 138.801C15.9322 138.801 15.636 138.906 15.4309 139.117C15.2316 139.327 15.0977 139.607 15.0294 139.954C14.9667 140.296 14.9354 140.714 14.9354 141.21C14.9354 141.723 14.9667 142.153 15.0294 142.5C15.0977 142.847 15.2316 143.127 15.4309 143.337C15.636 143.548 15.9322 143.653 16.3195 143.653C16.7011 143.653 16.9916 143.548 17.1909 143.337C17.396 143.127 17.5298 142.847 17.5925 142.5C17.6608 142.153 17.695 141.723 17.695 141.21Z" fill="#BDBDBD"/>
<line x1="32.5388" y1="140.346" x2="219.788" y2="140.346" stroke="#E0E0E0" stroke-width="0.711974"/>
<path d="M3.09988 105.566C3.13975 105.042 3.34195 104.631 3.70648 104.335C4.07102 104.039 4.54377 103.891 5.12474 103.891C5.51205 103.891 5.84525 103.962 6.12435 104.105C6.40914 104.241 6.62273 104.429 6.76513 104.669C6.91322 104.908 6.98726 105.178 6.98726 105.48C6.98726 105.833 6.88474 106.138 6.67969 106.394C6.48034 106.651 6.21833 106.816 5.89367 106.89V106.933C6.2639 107.024 6.55723 107.203 6.77367 107.471C6.99011 107.739 7.09833 108.089 7.09833 108.522C7.09833 108.846 7.02428 109.14 6.87619 109.402C6.7281 109.658 6.50597 109.86 6.20979 110.008C5.9136 110.156 5.55762 110.23 5.14182 110.23C4.53807 110.23 4.04254 110.074 3.65522 109.761C3.26791 109.442 3.05147 108.992 3.0059 108.411H3.75775C3.79762 108.752 3.93716 109.031 4.17639 109.248C4.41561 109.464 4.73458 109.573 5.13328 109.573C5.53199 109.573 5.83386 109.47 6.03891 109.265C6.24966 109.054 6.35503 108.784 6.35503 108.453C6.35503 108.026 6.21263 107.719 5.92784 107.531C5.64305 107.343 5.21302 107.249 4.63775 107.249H4.44124V106.599H4.64629C5.1703 106.594 5.56616 106.508 5.83386 106.343C6.10157 106.172 6.23542 105.91 6.23542 105.557C6.23542 105.255 6.13574 105.013 5.93639 104.831C5.74273 104.649 5.46364 104.557 5.09911 104.557C4.74597 104.557 4.46118 104.649 4.24474 104.831C4.0283 105.013 3.90014 105.258 3.86027 105.566H3.09988ZM8.14807 107.035C8.14807 106.055 8.30755 105.292 8.62651 104.745C8.94548 104.193 9.50367 103.917 10.3011 103.917C11.0928 103.917 11.6481 104.193 11.9671 104.745C12.2861 105.292 12.4455 106.055 12.4455 107.035C12.4455 108.032 12.2861 108.807 11.9671 109.359C11.6481 109.911 11.0928 110.188 10.3011 110.188C9.50367 110.188 8.94548 109.911 8.62651 109.359C8.30755 108.807 8.14807 108.032 8.14807 107.035ZM11.6766 107.035C11.6766 106.54 11.6424 106.121 11.5741 105.779C11.5114 105.432 11.3776 105.153 11.1725 104.942C10.9732 104.731 10.6827 104.626 10.3011 104.626C9.91376 104.626 9.61758 104.731 9.41253 104.942C9.21318 105.153 9.07933 105.432 9.01098 105.779C8.94833 106.121 8.917 106.54 8.917 107.035C8.917 107.548 8.94833 107.978 9.01098 108.325C9.07933 108.673 9.21318 108.952 9.41253 109.163C9.61758 109.373 9.91376 109.479 10.3011 109.479C10.6827 109.479 10.9732 109.373 11.1725 109.163C11.3776 108.952 11.5114 108.673 11.5741 108.325C11.6424 107.978 11.6766 107.548 11.6766 107.035ZM13.5129 107.035C13.5129 106.055 13.6724 105.292 13.9913 104.745C14.3103 104.193 14.8685 103.917 15.6659 103.917C16.4576 103.917 17.013 104.193 17.3319 104.745C17.6509 105.292 17.8104 106.055 17.8104 107.035C17.8104 108.032 17.6509 108.807 17.3319 109.359C17.013 109.911 16.4576 110.188 15.6659 110.188C14.8685 110.188 14.3103 109.911 13.9913 109.359C13.6724 108.807 13.5129 108.032 13.5129 107.035ZM17.0414 107.035C17.0414 106.54 17.0073 106.121 16.9389 105.779C16.8763 105.432 16.7424 105.153 16.5374 104.942C16.338 104.731 16.0475 104.626 15.6659 104.626C15.2786 104.626 14.9824 104.731 14.7774 104.942C14.578 105.153 14.4442 105.432 14.3758 105.779C14.3132 106.121 14.2818 106.54 14.2818 107.035C14.2818 107.548 14.3132 107.978 14.3758 108.325C14.4442 108.673 14.578 108.952 14.7774 109.163C14.9824 109.373 15.2786 109.479 15.6659 109.479C16.0475 109.479 16.338 109.373 16.5374 109.163C16.7424 108.952 16.8763 108.673 16.9389 108.325C17.0073 107.978 17.0414 107.548 17.0414 107.035Z" fill="#BDBDBD"/>
<line x1="31.8269" y1="106.172" x2="219.076" y2="106.172" stroke="#E0E0E0" stroke-width="0.711974"/>
<path d="M5.4831 173.069V172.36H7.08931V178.537H6.30329V173.069H5.4831ZM8.42479 175.385C8.42479 174.405 8.58428 173.642 8.90324 173.095C9.22221 172.543 9.78039 172.266 10.5778 172.266C11.3695 172.266 11.9249 172.543 12.2438 173.095C12.5628 173.642 12.7223 174.405 12.7223 175.385C12.7223 176.381 12.5628 177.156 12.2438 177.709C11.9249 178.261 11.3695 178.537 10.5778 178.537C9.78039 178.537 9.22221 178.261 8.90324 177.709C8.58428 177.156 8.42479 176.381 8.42479 175.385ZM11.9533 175.385C11.9533 174.889 11.9192 174.471 11.8508 174.129C11.7882 173.781 11.6543 173.502 11.4493 173.292C11.2499 173.081 10.9594 172.975 10.5778 172.975C10.1905 172.975 9.89431 173.081 9.68926 173.292C9.48991 173.502 9.35606 173.781 9.28771 174.129C9.22505 174.471 9.19373 174.889 9.19373 175.385C9.19373 175.897 9.22505 176.327 9.28771 176.675C9.35606 177.022 9.48991 177.301 9.68926 177.512C9.89431 177.723 10.1905 177.828 10.5778 177.828C10.9594 177.828 11.2499 177.723 11.4493 177.512C11.6543 177.301 11.7882 177.022 11.8508 176.675C11.9192 176.327 11.9533 175.897 11.9533 175.385ZM13.7896 175.385C13.7896 174.405 13.9491 173.642 14.2681 173.095C14.587 172.543 15.1452 172.266 15.9426 172.266C16.7344 172.266 17.2897 172.543 17.6087 173.095C17.9276 173.642 18.0871 174.405 18.0871 175.385C18.0871 176.381 17.9276 177.156 17.6087 177.709C17.2897 178.261 16.7344 178.537 15.9426 178.537C15.1452 178.537 14.587 178.261 14.2681 177.709C13.9491 177.156 13.7896 176.381 13.7896 175.385ZM17.3182 175.385C17.3182 174.889 17.284 174.471 17.2156 174.129C17.153 173.781 17.0191 173.502 16.8141 173.292C16.6147 173.081 16.3243 172.975 15.9426 172.975C15.5553 172.975 15.2591 173.081 15.0541 173.292C14.8547 173.502 14.7209 173.781 14.6525 174.129C14.5899 174.471 14.5586 174.889 14.5586 175.385C14.5586 175.897 14.5899 176.327 14.6525 176.675C14.7209 177.022 14.8547 177.301 15.0541 177.512C15.2591 177.723 15.5553 177.828 15.9426 177.828C16.3243 177.828 16.6147 177.723 16.8141 177.512C17.0191 177.301 17.153 177.022 17.2156 176.675C17.284 176.327 17.3182 175.897 17.3182 175.385Z" fill="#BDBDBD"/>
<line x1="33.2508" y1="174.521" x2="220.5" y2="174.521" stroke="#E0E0E0" stroke-width="0.711974"/>
<path d="M4.37405 209.56C4.37405 208.58 4.53353 207.817 4.8525 207.27C5.17146 206.717 5.72965 206.441 6.52706 206.441C7.31878 206.441 7.87412 206.717 8.19308 207.27C8.51204 207.817 8.67153 208.58 8.67153 209.56C8.67153 210.556 8.51204 211.331 8.19308 211.883C7.87412 212.436 7.31878 212.712 6.52706 212.712C5.72965 212.712 5.17146 212.436 4.8525 211.883C4.53353 211.331 4.37405 210.556 4.37405 209.56ZM7.90259 209.56C7.90259 209.064 7.86842 208.645 7.80007 208.304C7.73742 207.956 7.60357 207.677 7.39852 207.466C7.19916 207.256 6.90868 207.15 6.52706 207.15C6.13975 207.15 5.84357 207.256 5.63852 207.466C5.43916 207.677 5.30531 207.956 5.23696 208.304C5.17431 208.645 5.14298 209.064 5.14298 209.56C5.14298 210.072 5.17431 210.502 5.23696 210.85C5.30531 211.197 5.43916 211.476 5.63852 211.687C5.84357 211.898 6.13975 212.003 6.52706 212.003C6.90868 212.003 7.19916 211.898 7.39852 211.687C7.60357 211.476 7.73742 211.197 7.80007 210.85C7.86842 210.502 7.90259 210.072 7.90259 209.56ZM9.73889 209.56C9.73889 208.58 9.89837 207.817 10.2173 207.27C10.5363 206.717 11.0945 206.441 11.8919 206.441C12.6836 206.441 13.239 206.717 13.5579 207.27C13.8769 207.817 14.0364 208.58 14.0364 209.56C14.0364 210.556 13.8769 211.331 13.5579 211.883C13.239 212.436 12.6836 212.712 11.8919 212.712C11.0945 212.712 10.5363 212.436 10.2173 211.883C9.89837 211.331 9.73889 210.556 9.73889 209.56ZM13.2674 209.56C13.2674 209.064 13.2333 208.645 13.1649 208.304C13.1023 207.956 12.9684 207.677 12.7634 207.466C12.564 207.256 12.2735 207.15 11.8919 207.15C11.5046 207.15 11.2084 207.256 11.0034 207.466C10.804 207.677 10.6701 207.956 10.6018 208.304C10.5391 208.645 10.5078 209.064 10.5078 209.56C10.5078 210.072 10.5391 210.502 10.6018 210.85C10.6701 211.197 10.804 211.476 11.0034 211.687C11.2084 211.898 11.5046 212.003 11.8919 212.003C12.2735 212.003 12.564 211.898 12.7634 211.687C12.9684 211.476 13.1023 211.197 13.1649 210.85C13.2333 210.502 13.2674 210.072 13.2674 209.56Z" fill="#FAFAFA"/>
<path d="M15.1037 209.56C15.1037 208.58 15.2632 207.817 15.5822 207.27C15.9011 206.717 16.4593 206.441 17.2567 206.441C18.0484 206.441 18.6038 206.717 18.9228 207.27C19.2417 207.817 19.4012 208.58 19.4012 209.56C19.4012 210.556 19.2417 211.331 18.9228 211.883C18.6038 212.436 18.0484 212.712 17.2567 212.712C16.4593 212.712 15.9011 212.436 15.5822 211.883C15.2632 211.331 15.1037 210.556 15.1037 209.56ZM18.6323 209.56C18.6323 209.064 18.5981 208.645 18.5297 208.304C18.4671 207.956 18.3332 207.677 18.1282 207.466C17.9288 207.256 17.6384 207.15 17.2567 207.15C16.8694 207.15 16.5732 207.256 16.3682 207.466C16.1688 207.677 16.035 207.956 15.9666 208.304C15.904 208.645 15.8727 209.064 15.8727 209.56C15.8727 210.072 15.904 210.502 15.9666 210.85C16.035 211.197 16.1688 211.476 16.3682 211.687C16.5732 211.898 16.8694 212.003 17.2567 212.003C17.6384 212.003 17.9288 211.898 18.1282 211.687C18.3332 211.476 18.4671 211.197 18.5297 210.85C18.5981 210.502 18.6323 210.072 18.6323 209.56Z" fill="#BDBDBD"/>
<line x1="33.2508" y1="208.696" x2="220.5" y2="208.696" stroke="#E0E0E0" stroke-width="0.711974"/>
<path d="M51.6612 225.311V231.223H50.8837V226.815L48.9187 231.223H48.3719L46.3983 226.806V231.223H45.6208V225.311H46.4581L48.6453 230.198L50.8325 225.311H51.6612Z" fill="#BDBDBD"/>
<path d="M81.1932 225.268V225.901H79.5699V231.223H78.7924V225.901H77.1606V225.268H81.1932Z" fill="#BDBDBD"/>
<path d="M113.635 225.268L111.909 231.223H111.038L109.653 226.43L108.218 231.223L107.355 231.232L105.689 225.268H106.518L107.817 230.318L109.252 225.268H110.123L111.49 230.301L112.798 225.268H113.635Z" fill="#BDBDBD"/>
<path d="M141.979 225.268V225.901H140.355V231.223H139.578V225.901H137.946V225.268H141.979ZM145.259 226.456C145.613 226.456 145.932 226.533 146.216 226.687C146.501 226.835 146.723 227.06 146.883 227.362C147.048 227.664 147.131 228.031 147.131 228.464V231.223H146.362V228.575C146.362 228.108 146.245 227.752 146.011 227.507C145.778 227.256 145.459 227.131 145.054 227.131C144.644 227.131 144.317 227.259 144.072 227.515C143.833 227.772 143.713 228.145 143.713 228.635V231.223H142.936V224.901H143.713V227.208C143.867 226.969 144.078 226.784 144.345 226.653C144.619 226.522 144.923 226.456 145.259 226.456Z" fill="#BDBDBD"/>
<path d="M176.457 225.268V225.901H173.869V227.908H175.97V228.541H173.869V231.223H173.091V225.268H176.457Z" fill="#BDBDBD"/>
<path d="M203.604 231.283C203.211 231.283 202.857 231.215 202.544 231.078C202.237 230.936 201.994 230.742 201.818 230.497C201.641 230.247 201.55 229.959 201.545 229.634H202.373C202.402 229.913 202.516 230.15 202.715 230.343C202.92 230.531 203.216 230.625 203.604 230.625C203.974 230.625 204.264 230.534 204.475 230.352C204.691 230.164 204.8 229.925 204.8 229.634C204.8 229.406 204.737 229.221 204.612 229.079C204.486 228.937 204.33 228.828 204.142 228.754C203.954 228.68 203.7 228.6 203.381 228.515C202.988 228.413 202.672 228.31 202.433 228.207C202.2 228.105 201.997 227.945 201.826 227.729C201.661 227.507 201.579 227.211 201.579 226.84C201.579 226.516 201.661 226.228 201.826 225.978C201.992 225.727 202.222 225.533 202.518 225.397C202.82 225.26 203.165 225.192 203.552 225.192C204.11 225.192 204.566 225.331 204.919 225.61C205.278 225.889 205.48 226.26 205.526 226.721H204.672C204.643 226.493 204.523 226.294 204.313 226.123C204.102 225.946 203.823 225.858 203.475 225.858C203.151 225.858 202.886 225.943 202.681 226.114C202.476 226.279 202.373 226.513 202.373 226.815C202.373 227.031 202.433 227.208 202.553 227.345C202.678 227.481 202.829 227.587 203.005 227.661C203.188 227.729 203.441 227.809 203.766 227.9C204.159 228.008 204.475 228.116 204.714 228.225C204.953 228.327 205.158 228.489 205.329 228.712C205.5 228.928 205.586 229.224 205.586 229.6C205.586 229.891 205.509 230.164 205.355 230.42C205.201 230.677 204.973 230.884 204.672 231.044C204.37 231.203 204.014 231.283 203.604 231.283Z" fill="#BDBDBD"/>
<path d="M43.2185 146.398C43.2185 143.449 45.6092 141.058 48.5583 141.058C51.5074 141.058 53.8981 143.449 53.8981 146.398V208.696H43.2185V146.398Z" fill="#442FB8"/>
<path d="M73.8333 112.223C73.8333 109.274 76.2241 106.884 79.1731 106.884C82.1222 106.884 84.513 109.274 84.513 112.223V208.696H73.8333V112.223Z" fill="#442FB8"/>
<path d="M104.448 159.926C104.448 156.977 106.839 154.586 109.788 154.586C112.737 154.586 115.128 156.977 115.128 159.926V208.696H104.448V159.926Z" fill="#442FB8"/>
<path d="M137.199 133.583C137.199 130.634 139.59 128.243 142.539 128.243C145.488 128.243 147.879 130.634 147.879 133.583V208.696H137.199V133.583Z" fill="#442FB8"/>
<path d="M169.238 124.327C169.238 121.378 171.629 118.987 174.578 118.987C177.527 118.987 179.917 121.378 179.917 124.327V208.696H169.238V124.327Z" fill="#442FB8"/>
<path d="M198.429 190.54C198.429 187.591 200.82 185.201 203.769 185.201C206.718 185.201 209.108 187.591 209.108 190.54V208.696H198.429V190.54Z" fill="#442FB8"/>
<defs>
<clipPath id="clip0_8699_7861">
<rect width="6.40777" height="6.40777" fill="white" transform="translate(204.396 9.21533)"/>
</clipPath>
</defs>
</svg>
