<svg width="214" height="236" viewBox="0 0 214 236" fill="none" xmlns="http://www.w3.org/2000/svg">
<path d="M1.53424 7.73749H5.44071C6.21294 7.73749 6.83546 7.95615 7.30825 8.39349C7.78105 8.82689 8.01745 9.43758 8.01745 10.2256C8.01745 10.9032 7.80666 11.4942 7.38508 11.9986C6.96351 12.4989 6.31538 12.7491 5.44071 12.7491H2.71032V16.4192H1.53424V7.73749ZM6.82955 10.2315C6.82955 9.59321 6.59315 9.15981 6.12035 8.93129C5.86032 8.80916 5.50375 8.74809 5.05065 8.74809H2.71032V11.7562H5.05065C5.57861 11.7562 6.0061 11.644 6.33311 11.4194C6.66407 11.1948 6.82955 10.7988 6.82955 10.2315ZM9.38264 10.0896H10.3932V11.183C10.476 10.9702 10.6789 10.7122 11.002 10.4088C11.325 10.1015 11.6974 9.9478 12.1189 9.9478C12.1386 9.9478 12.1721 9.94977 12.2194 9.95371C12.2667 9.95765 12.3475 9.96553 12.4617 9.97735V11.1002C12.3987 11.0884 12.3396 11.0805 12.2844 11.0766C12.2332 11.0727 12.1761 11.0707 12.113 11.0707C11.5772 11.0707 11.1655 11.2441 10.8779 11.5908C10.5902 11.9335 10.4464 12.3295 10.4464 12.7787V16.4192H9.38264V10.0896ZM15.8954 15.7336C16.6006 15.7336 17.0833 15.4677 17.3433 14.9358C17.6073 14.4 17.7393 13.805 17.7393 13.151C17.7393 12.56 17.6447 12.0793 17.4556 11.709C17.1562 11.1259 16.64 10.8343 15.9072 10.8343C15.2571 10.8343 14.7843 11.0825 14.4888 11.5789C14.1933 12.0754 14.0456 12.6743 14.0456 13.3756C14.0456 14.0493 14.1933 14.6107 14.4888 15.0599C14.7843 15.5091 15.2532 15.7336 15.8954 15.7336ZM15.9368 9.90643C16.7523 9.90643 17.4418 10.1783 18.0052 10.722C18.5687 11.2657 18.8504 12.0655 18.8504 13.1214C18.8504 14.1419 18.6021 14.985 18.1057 15.6509C17.6093 16.3168 16.839 16.6497 15.7949 16.6497C14.9242 16.6497 14.2327 16.3562 13.7205 15.7691C13.2083 15.1781 12.9522 14.3862 12.9522 13.3933C12.9522 12.3295 13.2221 11.4824 13.7619 10.852C14.3017 10.2216 15.0266 9.90643 15.9368 9.90643ZM20.387 9.12632C20.4027 8.68505 20.4795 8.36197 20.6174 8.15709C20.8657 7.79462 21.3444 7.61338 22.0536 7.61338C22.1205 7.61338 22.1895 7.61535 22.2604 7.61929C22.3313 7.62323 22.4121 7.62914 22.5027 7.63702V8.60625C22.3924 8.59837 22.3116 8.59443 22.2604 8.59443C22.2131 8.59049 22.1678 8.58852 22.1245 8.58852C21.8014 8.58852 21.6083 8.67323 21.5453 8.84264C21.4823 9.00812 21.4507 9.43364 21.4507 10.1192H22.5027V10.9584H21.4389V16.4192H20.387V10.9584H19.5064V10.1192H20.387V9.12632ZM23.5251 8.94311V7.73749H24.5889V8.94311H23.5251ZM23.5251 10.1192H24.5889V16.4192H23.5251V10.1192ZM26.2023 7.73749H27.2661V16.4192H26.2023V7.73749ZM31.5036 9.9478C31.9527 9.9478 32.3881 10.0542 32.8096 10.2669C33.2312 10.4758 33.5523 10.7476 33.773 11.0825C33.9857 11.4016 34.1276 11.774 34.1985 12.1995C34.2615 12.491 34.293 12.956 34.293 13.5942H29.6537C29.6734 14.2365 29.8251 14.7526 30.1088 15.1426C30.3925 15.5288 30.8318 15.7218 31.4267 15.7218C31.9823 15.7218 32.4255 15.5386 32.7565 15.1722C32.9456 14.9594 33.0795 14.7132 33.1583 14.4334H34.2044C34.1768 14.6659 34.0842 14.9259 33.9266 15.2136C33.773 15.4972 33.5996 15.7297 33.4066 15.9109C33.0835 16.2261 32.6836 16.4389 32.2068 16.5492C31.9507 16.6122 31.6612 16.6438 31.3381 16.6438C30.5501 16.6438 29.8823 16.3581 29.3346 15.7868C28.7869 15.2116 28.5131 14.4078 28.5131 13.3756C28.5131 12.3591 28.7889 11.5336 29.3405 10.8993C29.8921 10.265 30.6131 9.9478 31.5036 9.9478ZM33.1997 12.7491C33.1564 12.2881 33.0559 11.9198 32.8983 11.644C32.6067 11.1318 32.1202 10.8757 31.4385 10.8757C30.95 10.8757 30.5402 11.053 30.2093 11.4076C29.8783 11.7582 29.703 12.2054 29.6833 12.7491H33.1997ZM39.8011 7.73749L42.2951 15.1308L44.7595 7.73749H46.0775L42.9097 16.4192H41.6627L38.5009 7.73749H39.8011ZM46.8339 10.1192H47.9155V16.4192H46.8339V10.1192ZM46.8339 7.73749H47.9155V8.94311H46.8339V7.73749ZM50.1612 14.4334C50.1928 14.788 50.2814 15.0599 50.4272 15.249C50.6951 15.5918 51.16 15.7632 51.8219 15.7632C52.2159 15.7632 52.5626 15.6785 52.8621 15.5091C53.1615 15.3357 53.3112 15.0698 53.3112 14.7112C53.3112 14.4394 53.1911 14.2325 52.9507 14.0907C52.7971 14.004 52.4937 13.9035 52.0406 13.7893L51.1955 13.5765C50.6557 13.4425 50.2578 13.2928 50.0017 13.1274C49.5446 12.8397 49.3161 12.4418 49.3161 11.9335C49.3161 11.3347 49.5308 10.8501 49.9603 10.4797C50.3937 10.1093 50.9748 9.92416 51.7037 9.92416C52.6572 9.92416 53.3447 10.2039 53.7663 10.7634C54.0303 11.118 54.1583 11.5001 54.1504 11.9099H53.1458C53.1261 11.6696 53.0413 11.4509 52.8916 11.2539C52.6474 10.9742 52.2238 10.8343 51.621 10.8343C51.2191 10.8343 50.9138 10.9111 50.705 11.0648C50.5001 11.2184 50.3976 11.4213 50.3976 11.6735C50.3976 11.9493 50.5336 12.1699 50.8054 12.3354C50.963 12.4339 51.1955 12.5206 51.5028 12.5955L52.2061 12.7668C52.9704 12.952 53.4826 13.1313 53.7427 13.3047C54.1564 13.5765 54.3632 14.004 54.3632 14.5871C54.3632 15.1505 54.1485 15.6371 53.719 16.0469C53.2935 16.4566 52.6434 16.6615 51.7687 16.6615C50.8271 16.6615 50.1593 16.4487 49.7653 16.0232C49.3752 15.5938 49.1664 15.0638 49.1388 14.4334H50.1612ZM55.5807 10.1192H56.6622V16.4192H55.5807V10.1192ZM55.5807 7.73749H56.6622V8.94311H55.5807V7.73749ZM58.4883 8.32257H59.564V10.0896H60.5746V10.9584H59.564V15.0895C59.564 15.3101 59.6388 15.4578 59.7885 15.5327C59.8713 15.576 60.0092 15.5977 60.2022 15.5977C60.2534 15.5977 60.3086 15.5977 60.3677 15.5977C60.4268 15.5938 60.4958 15.5879 60.5746 15.58V16.4192C60.4524 16.4546 60.3244 16.4803 60.1904 16.496C60.0604 16.5118 59.9185 16.5197 59.7649 16.5197C59.2685 16.5197 58.9316 16.3936 58.7543 16.1414C58.577 15.8853 58.4883 15.5544 58.4883 15.1486V10.9584H57.6314V10.0896H58.4883V8.32257ZM62.2766 14.4334C62.3081 14.788 62.3968 15.0599 62.5426 15.249C62.8105 15.5918 63.2754 15.7632 63.9373 15.7632C64.3313 15.7632 64.678 15.6785 64.9775 15.5091C65.2769 15.3357 65.4266 15.0698 65.4266 14.7112C65.4266 14.4394 65.3064 14.2325 65.0661 14.0907C64.9124 14.004 64.6091 13.9035 64.156 13.7893L63.3109 13.5765C62.7711 13.4425 62.3731 13.2928 62.117 13.1274C61.66 12.8397 61.4315 12.4418 61.4315 11.9335C61.4315 11.3347 61.6462 10.8501 62.0757 10.4797C62.5091 10.1093 63.0902 9.92416 63.8191 9.92416C64.7726 9.92416 65.4601 10.2039 65.8817 10.7634C66.1457 11.118 66.2737 11.5001 66.2658 11.9099H65.2611C65.2414 11.6696 65.1567 11.4509 65.007 11.2539C64.7627 10.9742 64.3392 10.8343 63.7364 10.8343C63.3345 10.8343 63.0291 10.9111 62.8203 11.0648C62.6155 11.2184 62.513 11.4213 62.513 11.6735C62.513 11.9493 62.6489 12.1699 62.9208 12.3354C63.0784 12.4339 63.3109 12.5206 63.6182 12.5955L64.3215 12.7668C65.0858 12.952 65.598 13.1313 65.858 13.3047C66.2717 13.5765 66.4786 14.004 66.4786 14.5871C66.4786 15.1505 66.2639 15.6371 65.8344 16.0469C65.4089 16.4566 64.7588 16.6615 63.8841 16.6615C62.9425 16.6615 62.2746 16.4487 61.8806 16.0232C61.4906 15.5938 61.2818 15.0638 61.2542 14.4334H62.2766Z" fill="#442FB8"/>
<path d="M201.305 0.866943L201.603 0.87085C207.844 1.02906 212.856 6.13878 212.856 12.4187C212.856 18.7984 207.684 23.9712 201.305 23.9714H158.201C151.821 23.9714 146.648 18.7986 146.648 12.4187C146.649 6.03921 151.821 0.867206 158.2 0.866943H201.305Z" stroke="#E0E0E0" stroke-width="0.711974"/>
<path d="M158.237 9.28024V10.0711H156V15.9192H155.087V10.0711H152.85V9.28024H158.237ZM158.955 9.25764H159.769V11.7343C159.962 11.4902 160.135 11.3185 160.289 11.219C160.551 11.0473 160.878 10.9614 161.269 10.9614C161.971 10.9614 162.447 11.207 162.698 11.6981C162.833 11.9663 162.901 12.3383 162.901 12.8144V15.9192H162.065V12.8686C162.065 12.5131 162.02 12.2525 161.929 12.0868C161.782 11.8216 161.504 11.6891 161.098 11.6891C160.76 11.6891 160.454 11.8051 160.18 12.0371C159.906 12.269 159.769 12.7074 159.769 13.3522V15.9192H158.955V9.25764ZM164.108 11.1015H164.935V15.9192H164.108V11.1015ZM164.108 9.28024H164.935V10.2022H164.108V9.28024ZM166.652 14.4007C166.676 14.6718 166.744 14.8797 166.855 15.0244C167.06 15.2865 167.416 15.4175 167.922 15.4175C168.223 15.4175 168.488 15.3528 168.717 15.2232C168.946 15.0906 169.061 14.8873 169.061 14.6131C169.061 14.4052 168.969 14.247 168.785 14.1386C168.668 14.0723 168.436 13.9954 168.089 13.9081L167.443 13.7454C167.03 13.6429 166.726 13.5284 166.53 13.4019C166.18 13.182 166.006 12.8777 166.006 12.489C166.006 12.031 166.17 11.6604 166.498 11.3772C166.83 11.094 167.274 10.9524 167.832 10.9524C168.561 10.9524 169.086 11.1663 169.409 11.5942C169.611 11.8653 169.709 12.1576 169.703 12.4709H168.934C168.919 12.2871 168.854 12.1199 168.74 11.9693C168.553 11.7553 168.229 11.6484 167.768 11.6484C167.461 11.6484 167.227 11.7071 167.068 11.8246C166.911 11.9421 166.833 12.0973 166.833 12.2901C166.833 12.501 166.937 12.6698 167.145 12.7963C167.265 12.8716 167.443 12.9379 167.678 12.9952L168.216 13.1262C168.8 13.2678 169.192 13.4049 169.391 13.5375C169.707 13.7454 169.865 14.0723 169.865 14.5182C169.865 14.949 169.701 15.3211 169.373 15.6345C169.047 15.9478 168.55 16.1045 167.881 16.1045C167.161 16.1045 166.65 15.9418 166.349 15.6164C166.051 15.288 165.891 14.8827 165.87 14.4007H166.652ZM173.747 11.0789L174.678 14.8933L175.623 11.0789H176.536L177.485 14.8707L178.475 11.0789H179.288L177.883 15.9192H177.037L176.052 12.1726L175.099 15.9192H174.254L172.857 11.0789H173.747ZM182.077 10.9705C182.42 10.9705 182.753 11.0518 183.075 11.2145C183.398 11.3742 183.643 11.5821 183.812 11.8382C183.975 12.0822 184.083 12.367 184.137 12.6924C184.186 12.9153 184.21 13.2708 184.21 13.7589H180.662C180.677 14.25 180.793 14.6447 181.01 14.943C181.227 15.2383 181.563 15.3859 182.018 15.3859C182.443 15.3859 182.782 15.2458 183.035 14.9656C183.179 14.8029 183.282 14.6146 183.342 14.4007H184.142C184.121 14.5784 184.05 14.7773 183.93 14.9972C183.812 15.2142 183.679 15.3919 183.532 15.5305C183.285 15.7716 182.979 15.9343 182.614 16.0186C182.419 16.0668 182.197 16.0909 181.95 16.0909C181.347 16.0909 180.837 15.8725 180.418 15.4356C179.999 14.9957 179.79 14.3811 179.79 13.5917C179.79 12.8144 180.001 12.1832 180.422 11.6981C180.844 11.213 181.396 10.9705 182.077 10.9705ZM183.374 13.1127C183.34 12.7602 183.264 12.4784 183.143 12.2675C182.92 11.8759 182.548 11.68 182.027 11.68C181.653 11.68 181.34 11.8156 181.087 12.0868C180.834 12.3549 180.7 12.6969 180.685 13.1127H183.374ZM187.229 10.9705C187.572 10.9705 187.905 11.0518 188.227 11.2145C188.55 11.3742 188.795 11.5821 188.964 11.8382C189.127 12.0822 189.235 12.367 189.289 12.6924C189.338 12.9153 189.362 13.2708 189.362 13.7589H185.814C185.829 14.25 185.945 14.6447 186.162 14.943C186.379 15.2383 186.715 15.3859 187.17 15.3859C187.595 15.3859 187.934 15.2458 188.187 14.9656C188.331 14.8029 188.434 14.6146 188.494 14.4007H189.294C189.273 14.5784 189.202 14.7773 189.082 14.9972C188.964 15.2142 188.832 15.3919 188.684 15.5305C188.437 15.7716 188.131 15.9343 187.766 16.0186C187.571 16.0668 187.349 16.0909 187.102 16.0909C186.5 16.0909 185.989 15.8725 185.57 15.4356C185.151 14.9957 184.942 14.3811 184.942 13.5917C184.942 12.8144 185.153 12.1832 185.575 11.6981C185.996 11.213 186.548 10.9705 187.229 10.9705ZM188.526 13.1127C188.493 12.7602 188.416 12.4784 188.295 12.2675C188.072 11.8759 187.7 11.68 187.179 11.68C186.805 11.68 186.492 11.8156 186.239 12.0868C185.986 12.3549 185.852 12.6969 185.837 13.1127H188.526ZM190.347 9.28024H191.129V13.1353L193.217 11.0789H194.256L192.403 12.8912L194.36 15.9192H193.321L191.811 13.4787L191.129 14.1024V15.9192H190.347V9.28024Z" fill="#9E9E9E"/>
<g clip-path="url(#clip0_8699_7860)">
<path d="M203.381 14.4401C203.405 14.4756 203.438 14.5047 203.476 14.5248C203.515 14.5449 203.557 14.5554 203.6 14.5554C203.644 14.5554 203.686 14.5449 203.724 14.5248C203.763 14.5047 203.795 14.4756 203.82 14.4401L206.223 10.9692C206.251 10.9292 206.267 10.8823 206.27 10.8336C206.273 10.785 206.263 10.7364 206.24 10.6932C206.217 10.6501 206.183 10.6139 206.142 10.5887C206.1 10.5635 206.052 10.5502 206.003 10.5503H201.197C201.149 10.5505 201.101 10.5639 201.06 10.5892C201.018 10.6145 200.984 10.6506 200.962 10.6937C200.939 10.7367 200.929 10.7852 200.932 10.8337C200.934 10.8823 200.95 10.9291 200.978 10.9692L203.381 14.4401Z" fill="#9E9E9E"/>
</g>
<path d="M184.884 109.419C184.884 152.709 149.79 187.803 106.5 187.803C63.2099 187.803 28.1163 152.709 28.1163 109.419C28.1163 66.1291 63.2099 31.0355 106.5 31.0355C149.79 31.0355 184.884 66.1291 184.884 109.419ZM43.6491 109.419C43.6491 144.131 71.7884 172.27 106.5 172.27C141.212 172.27 169.351 144.131 169.351 109.419C169.351 74.7076 141.212 46.5683 106.5 46.5683C71.7884 46.5683 43.6491 74.7076 43.6491 109.419Z" fill="#EEEEEE"/>
<path d="M45.0622 143.092C41.0312 145.301 39.5193 150.391 42.1434 154.166C48.7979 163.736 57.5251 171.733 67.7157 177.535C80.3251 184.715 94.6799 188.253 109.181 187.757C123.683 187.261 137.762 182.749 149.851 174.724C161.94 166.699 171.564 155.476 177.652 142.304C183.739 129.133 186.051 114.53 184.33 100.122C182.609 85.7147 176.923 72.0675 167.904 60.7005C158.886 49.3336 146.889 40.6931 133.25 35.7413C122.227 31.7393 110.482 30.2736 98.8799 31.4068C94.3048 31.8537 91.4077 36.3035 92.3369 40.8054C93.2662 45.3073 97.6737 48.1436 102.26 47.8279C110.822 47.2384 119.445 48.4388 127.569 51.3884C138.311 55.2886 147.76 62.0941 154.864 71.047C161.967 80 166.446 90.7489 167.801 102.097C169.157 113.445 167.336 124.946 162.541 135.32C157.746 145.694 150.166 154.534 140.645 160.855C131.123 167.176 120.034 170.729 108.612 171.12C97.1901 171.511 85.8839 168.724 75.9524 163.069C68.4414 158.793 61.9397 153.003 56.8407 146.099C54.1096 142.402 49.0933 140.883 45.0622 143.092Z" fill="#6963E5"/>
<path d="M152.117 109.228C152.117 134.527 131.608 155.036 106.309 155.036C81.0092 155.036 60.5 134.527 60.5 109.228C60.5 83.9284 81.0092 63.4192 106.309 63.4192C131.608 63.4192 152.117 83.9284 152.117 109.228ZM75.6448 109.228C75.6448 126.163 89.3735 139.892 106.309 139.892C123.244 139.892 136.972 126.163 136.972 109.228C136.972 92.2927 123.244 78.564 106.309 78.564C89.3735 78.564 75.6448 92.2927 75.6448 109.228Z" fill="#EEEEEE"/>
<path d="M92.1935 73.6923C90.6496 69.8056 92.5464 65.3356 96.6342 64.4524C102.051 63.2821 107.656 63.0998 113.177 63.937C121.203 65.1542 128.763 68.4828 135.08 73.582C141.398 78.6812 146.247 85.3679 149.13 92.9572C152.014 100.547 152.829 108.766 151.492 116.774C150.154 124.781 146.713 132.29 141.519 138.53C136.326 144.771 129.567 149.519 121.936 152.289C114.304 155.058 106.073 155.75 98.0865 154.293C92.5937 153.29 87.3518 151.297 82.6094 148.43C79.0305 146.266 78.6891 141.422 81.4122 138.248C84.1353 135.074 88.8941 134.811 92.6375 136.675C95.2075 137.956 97.9557 138.874 100.805 139.394C106.151 140.369 111.661 139.906 116.769 138.052C121.878 136.198 126.402 133.02 129.878 128.843C133.355 124.665 135.658 119.639 136.554 114.279C137.449 108.919 136.903 103.417 134.973 98.3364C133.043 93.2562 129.797 88.7802 125.568 85.3669C121.339 81.9535 116.279 79.7254 110.906 78.9106C108.043 78.4764 105.145 78.4519 102.299 78.8273C98.1524 79.3742 93.7373 77.579 92.1935 73.6923Z" fill="#151F68"/>
<circle cx="6.5" cy="206.223" r="6" fill="#442FB8"/>
<path d="M20.7461 200.616H22.1055L24.5781 204.753L27.0508 200.616H28.416L25.1641 205.755V209.223H23.998V205.755L20.7461 200.616ZM30.7891 202.807C31.2344 202.807 31.666 202.913 32.084 203.124C32.502 203.331 32.8203 203.6 33.0391 203.932C33.25 204.249 33.3906 204.618 33.4609 205.04C33.5234 205.329 33.5547 205.79 33.5547 206.423H28.9551C28.9746 207.059 29.125 207.571 29.4062 207.958C29.6875 208.341 30.123 208.532 30.7129 208.532C31.2637 208.532 31.7031 208.35 32.0312 207.987C32.2188 207.776 32.3516 207.532 32.4297 207.255H33.4668C33.4395 207.485 33.3477 207.743 33.1914 208.028C33.0391 208.309 32.8672 208.54 32.6758 208.719C32.3555 209.032 31.959 209.243 31.4863 209.352C31.2324 209.415 30.9453 209.446 30.625 209.446C29.8438 209.446 29.1816 209.163 28.6387 208.596C28.0957 208.026 27.8242 207.229 27.8242 206.206C27.8242 205.198 28.0977 204.38 28.6445 203.751C29.1914 203.122 29.9062 202.807 30.7891 202.807ZM32.4707 205.585C32.4277 205.128 32.3281 204.762 32.1719 204.489C31.8828 203.981 31.4004 203.727 30.7246 203.727C30.2402 203.727 29.834 203.903 29.5059 204.255C29.1777 204.602 29.0039 205.046 28.9844 205.585H32.4707ZM35.4824 207.255C35.5137 207.606 35.6016 207.876 35.7461 208.063C36.0117 208.403 36.4727 208.573 37.1289 208.573C37.5195 208.573 37.8633 208.489 38.1602 208.321C38.457 208.149 38.6055 207.885 38.6055 207.53C38.6055 207.26 38.4863 207.055 38.248 206.915C38.0957 206.829 37.7949 206.729 37.3457 206.616L36.5078 206.405C35.9727 206.272 35.5781 206.124 35.3242 205.96C34.8711 205.675 34.6445 205.28 34.6445 204.776C34.6445 204.182 34.8574 203.702 35.2832 203.335C35.7129 202.968 36.2891 202.784 37.0117 202.784C37.957 202.784 38.6387 203.061 39.0566 203.616C39.3184 203.968 39.4453 204.346 39.4375 204.753H38.4414C38.4219 204.514 38.3379 204.298 38.1895 204.102C37.9473 203.825 37.5273 203.686 36.9297 203.686C36.5312 203.686 36.2285 203.762 36.0215 203.915C35.8184 204.067 35.7168 204.268 35.7168 204.518C35.7168 204.792 35.8516 205.01 36.1211 205.175C36.2773 205.272 36.5078 205.358 36.8125 205.432L37.5098 205.602C38.2676 205.786 38.7754 205.964 39.0332 206.135C39.4434 206.405 39.6484 206.829 39.6484 207.407C39.6484 207.966 39.4355 208.448 39.0098 208.854C38.5879 209.26 37.9434 209.464 37.0762 209.464C36.1426 209.464 35.4805 209.253 35.0898 208.831C34.7031 208.405 34.4961 207.88 34.4688 207.255H35.4824ZM41.0664 201.196H42.1328V202.948H43.1348V203.809H42.1328V207.905C42.1328 208.124 42.207 208.27 42.3555 208.344C42.4375 208.387 42.5742 208.409 42.7656 208.409C42.8164 208.409 42.8711 208.409 42.9297 208.409C42.9883 208.405 43.0566 208.399 43.1348 208.391V209.223C43.0137 209.259 42.8867 209.284 42.7539 209.3C42.625 209.315 42.4844 209.323 42.332 209.323C41.8398 209.323 41.5059 209.198 41.3301 208.948C41.1543 208.694 41.0664 208.366 41.0664 207.964V203.809H40.2168V202.948H41.0664V201.196ZM46.8086 202.807C47.2539 202.807 47.6855 202.913 48.1035 203.124C48.5215 203.331 48.8398 203.6 49.0586 203.932C49.2695 204.249 49.4102 204.618 49.4805 205.04C49.543 205.329 49.5742 205.79 49.5742 206.423H44.9746C44.9941 207.059 45.1445 207.571 45.4258 207.958C45.707 208.341 46.1426 208.532 46.7324 208.532C47.2832 208.532 47.7227 208.35 48.0508 207.987C48.2383 207.776 48.3711 207.532 48.4492 207.255H49.4863C49.459 207.485 49.3672 207.743 49.2109 208.028C49.0586 208.309 48.8867 208.54 48.6953 208.719C48.375 209.032 47.9785 209.243 47.5059 209.352C47.252 209.415 46.9648 209.446 46.6445 209.446C45.8633 209.446 45.2012 209.163 44.6582 208.596C44.1152 208.026 43.8438 207.229 43.8438 206.206C43.8438 205.198 44.1172 204.38 44.6641 203.751C45.2109 203.122 45.9258 202.807 46.8086 202.807ZM48.4902 205.585C48.4473 205.128 48.3477 204.762 48.1914 204.489C47.9023 203.981 47.4199 203.727 46.7441 203.727C46.2598 203.727 45.8535 203.903 45.5254 204.255C45.1973 204.602 45.0234 205.046 45.0039 205.585H48.4902ZM50.9043 202.948H51.9062V204.032C51.9883 203.821 52.1895 203.565 52.5098 203.264C52.8301 202.96 53.1992 202.807 53.6172 202.807C53.6367 202.807 53.6699 202.809 53.7168 202.813C53.7637 202.817 53.8438 202.825 53.957 202.837V203.95C53.8945 203.938 53.8359 203.93 53.7812 203.927C53.7305 203.923 53.6738 203.921 53.6113 203.921C53.0801 203.921 52.6719 204.093 52.3867 204.436C52.1016 204.776 51.959 205.169 51.959 205.614V209.223H50.9043V202.948ZM55.5391 206.159C55.5391 206.831 55.6816 207.393 55.9668 207.846C56.252 208.3 56.709 208.526 57.3379 208.526C57.8262 208.526 58.2266 208.317 58.5391 207.899C58.8555 207.477 59.0137 206.874 59.0137 206.089C59.0137 205.296 58.8516 204.71 58.5273 204.331C58.2031 203.948 57.8027 203.757 57.3262 203.757C56.7949 203.757 56.3633 203.96 56.0312 204.366C55.7031 204.772 55.5391 205.37 55.5391 206.159ZM57.127 202.837C57.6074 202.837 58.0098 202.938 58.334 203.141C58.5215 203.259 58.7344 203.464 58.9727 203.757V200.587H59.9863V209.223H59.0371V208.35C58.791 208.737 58.5 209.016 58.1641 209.188C57.8281 209.36 57.4434 209.446 57.0098 209.446C56.3105 209.446 55.7051 209.153 55.1934 208.567C54.6816 207.977 54.4258 207.194 54.4258 206.218C54.4258 205.303 54.6582 204.512 55.123 203.844C55.5918 203.173 56.2598 202.837 57.127 202.837ZM62.3594 207.553C62.3594 207.858 62.4707 208.098 62.6934 208.274C62.916 208.45 63.1797 208.538 63.4844 208.538C63.8555 208.538 64.2148 208.452 64.5625 208.28C65.1484 207.995 65.4414 207.528 65.4414 206.88V206.03C65.3125 206.112 65.1465 206.18 64.9434 206.235C64.7402 206.29 64.541 206.329 64.3457 206.352L63.707 206.434C63.3242 206.485 63.0371 206.565 62.8457 206.675C62.5215 206.858 62.3594 207.151 62.3594 207.553ZM64.9141 205.421C65.1562 205.389 65.3184 205.288 65.4004 205.116C65.4473 205.022 65.4707 204.887 65.4707 204.712C65.4707 204.352 65.3418 204.093 65.084 203.932C64.8301 203.768 64.4648 203.686 63.9883 203.686C63.4375 203.686 63.0469 203.835 62.8164 204.132C62.6875 204.296 62.6035 204.54 62.5645 204.864H61.5801C61.5996 204.091 61.8496 203.553 62.3301 203.253C62.8145 202.948 63.375 202.796 64.0117 202.796C64.75 202.796 65.3496 202.936 65.8105 203.218C66.2676 203.499 66.4961 203.936 66.4961 204.53V208.145C66.4961 208.255 66.5176 208.343 66.5605 208.409C66.6074 208.475 66.7031 208.509 66.8477 208.509C66.8945 208.509 66.9473 208.507 67.0059 208.503C67.0645 208.495 67.127 208.485 67.1934 208.473V209.253C67.0293 209.3 66.9043 209.329 66.8184 209.341C66.7324 209.352 66.6152 209.358 66.4668 209.358C66.1035 209.358 65.8398 209.229 65.6758 208.971C65.5898 208.835 65.5293 208.641 65.4941 208.391C65.2793 208.673 64.9707 208.917 64.5684 209.124C64.166 209.331 63.7227 209.434 63.2383 209.434C62.6562 209.434 62.1797 209.259 61.8086 208.907C61.4414 208.552 61.2578 208.108 61.2578 207.577C61.2578 206.995 61.4395 206.544 61.8027 206.223C62.166 205.903 62.6426 205.706 63.2324 205.632L64.9141 205.421ZM72.1504 202.948H73.3164C73.168 203.35 72.8379 204.268 72.3262 205.702C71.9434 206.78 71.623 207.659 71.3652 208.339C70.7559 209.94 70.3262 210.917 70.0762 211.268C69.8262 211.62 69.3965 211.796 68.7871 211.796C68.6387 211.796 68.5234 211.79 68.4414 211.778C68.3633 211.766 68.2656 211.745 68.1484 211.714V210.753C68.332 210.803 68.4648 210.835 68.5469 210.846C68.6289 210.858 68.7012 210.864 68.7637 210.864C68.959 210.864 69.1016 210.831 69.1914 210.764C69.2852 210.702 69.3633 210.624 69.4258 210.53C69.4453 210.499 69.5156 210.339 69.6367 210.05C69.7578 209.76 69.8457 209.546 69.9004 209.405L67.5801 202.948H68.7754L70.457 208.057L72.1504 202.948Z" fill="#9E9E9E"/>
<path d="M181.679 202.923V201.312C182.426 201.279 182.949 201.229 183.248 201.163C183.723 201.058 184.111 200.847 184.41 200.532C184.614 200.316 184.769 200.028 184.875 199.669C184.935 199.453 184.966 199.292 184.966 199.187H186.933V211.223H184.509V202.923H181.679ZM192.91 205.322C192.91 206.705 193.023 207.765 193.25 208.501C193.477 209.231 193.942 209.596 194.645 209.596C195.347 209.596 195.807 209.231 196.022 208.501C196.244 207.765 196.354 206.705 196.354 205.322C196.354 203.872 196.244 202.798 196.022 202.101C195.807 201.404 195.347 201.055 194.645 201.055C193.942 201.055 193.477 201.404 193.25 202.101C193.023 202.798 192.91 203.872 192.91 205.322ZM194.645 199.104C196.177 199.104 197.251 199.644 197.865 200.723C198.485 201.802 198.795 203.335 198.795 205.322C198.795 207.308 198.485 208.838 197.865 209.912C197.251 210.985 196.177 211.522 194.645 211.522C193.112 211.522 192.035 210.985 191.416 209.912C190.801 208.838 190.494 207.308 190.494 205.322C190.494 203.335 190.801 201.802 191.416 200.723C192.035 199.644 193.112 199.104 194.645 199.104ZM200.762 198.988H203.277V204.027L208 198.988H211.304L206.291 204.027L211.562 211.223H208.274L204.498 205.878L203.277 207.131V211.223H200.762V198.988Z" fill="#442FB8"/>
<circle cx="6.5" cy="226.223" r="6" fill="#442FB8"/>
<path d="M27.6777 220.616V221.641H24.7773V229.223H23.5938V221.641H20.6934V220.616H27.6777ZM29.7637 228.544C30.4629 228.544 30.9414 228.28 31.1992 227.753C31.4609 227.221 31.5918 226.632 31.5918 225.983C31.5918 225.397 31.498 224.921 31.3105 224.553C31.0137 223.975 30.502 223.686 29.7754 223.686C29.1309 223.686 28.6621 223.932 28.3691 224.425C28.0762 224.917 27.9297 225.51 27.9297 226.206C27.9297 226.874 28.0762 227.43 28.3691 227.876C28.6621 228.321 29.127 228.544 29.7637 228.544ZM29.8047 222.766C30.6133 222.766 31.2969 223.036 31.8555 223.575C32.4141 224.114 32.6934 224.907 32.6934 225.954C32.6934 226.966 32.4473 227.802 31.9551 228.462C31.4629 229.122 30.6992 229.452 29.6641 229.452C28.8008 229.452 28.1152 229.161 27.6074 228.579C27.0996 227.993 26.8457 227.208 26.8457 226.223C26.8457 225.169 27.1133 224.329 27.6484 223.704C28.1836 223.079 28.9023 222.766 29.8047 222.766ZM34.6211 226.159C34.6211 226.831 34.7637 227.393 35.0488 227.846C35.334 228.3 35.791 228.526 36.4199 228.526C36.9082 228.526 37.3086 228.317 37.6211 227.899C37.9375 227.477 38.0957 226.874 38.0957 226.089C38.0957 225.296 37.9336 224.71 37.6094 224.331C37.2852 223.948 36.8848 223.757 36.4082 223.757C35.877 223.757 35.4453 223.96 35.1133 224.366C34.7852 224.772 34.6211 225.37 34.6211 226.159ZM36.209 222.837C36.6895 222.837 37.0918 222.938 37.416 223.141C37.6035 223.259 37.8164 223.464 38.0547 223.757V220.587H39.0684V229.223H38.1191V228.35C37.873 228.737 37.582 229.016 37.2461 229.188C36.9102 229.36 36.5254 229.446 36.0918 229.446C35.3926 229.446 34.7871 229.153 34.2754 228.567C33.7637 227.977 33.5078 227.194 33.5078 226.218C33.5078 225.303 33.7402 224.512 34.2051 223.844C34.6738 223.173 35.3418 222.837 36.209 222.837ZM41.4414 227.553C41.4414 227.858 41.5527 228.098 41.7754 228.274C41.998 228.45 42.2617 228.538 42.5664 228.538C42.9375 228.538 43.2969 228.452 43.6445 228.28C44.2305 227.995 44.5234 227.528 44.5234 226.88V226.03C44.3945 226.112 44.2285 226.18 44.0254 226.235C43.8223 226.29 43.623 226.329 43.4277 226.352L42.7891 226.434C42.4062 226.485 42.1191 226.565 41.9277 226.675C41.6035 226.858 41.4414 227.151 41.4414 227.553ZM43.9961 225.421C44.2383 225.389 44.4004 225.288 44.4824 225.116C44.5293 225.022 44.5527 224.887 44.5527 224.712C44.5527 224.352 44.4238 224.093 44.166 223.932C43.9121 223.768 43.5469 223.686 43.0703 223.686C42.5195 223.686 42.1289 223.835 41.8984 224.132C41.7695 224.296 41.6855 224.54 41.6465 224.864H40.6621C40.6816 224.091 40.9316 223.553 41.4121 223.253C41.8965 222.948 42.457 222.796 43.0938 222.796C43.832 222.796 44.4316 222.936 44.8926 223.218C45.3496 223.499 45.5781 223.936 45.5781 224.53V228.145C45.5781 228.255 45.5996 228.343 45.6426 228.409C45.6895 228.475 45.7852 228.509 45.9297 228.509C45.9766 228.509 46.0293 228.507 46.0879 228.503C46.1465 228.495 46.209 228.485 46.2754 228.473V229.253C46.1113 229.3 45.9863 229.329 45.9004 229.341C45.8145 229.352 45.6973 229.358 45.5488 229.358C45.1855 229.358 44.9219 229.229 44.7578 228.971C44.6719 228.835 44.6113 228.641 44.5762 228.391C44.3613 228.673 44.0527 228.917 43.6504 229.124C43.248 229.331 42.8047 229.434 42.3203 229.434C41.7383 229.434 41.2617 229.259 40.8906 228.907C40.5234 228.552 40.3398 228.108 40.3398 227.577C40.3398 226.995 40.5215 226.544 40.8848 226.223C41.248 225.903 41.7246 225.706 42.3145 225.632L43.9961 225.421ZM51.2324 222.948H52.3984C52.25 223.35 51.9199 224.268 51.4082 225.702C51.0254 226.78 50.7051 227.659 50.4473 228.339C49.8379 229.94 49.4082 230.917 49.1582 231.268C48.9082 231.62 48.4785 231.796 47.8691 231.796C47.7207 231.796 47.6055 231.79 47.5234 231.778C47.4453 231.766 47.3477 231.745 47.2305 231.714V230.753C47.4141 230.803 47.5469 230.835 47.6289 230.846C47.7109 230.858 47.7832 230.864 47.8457 230.864C48.041 230.864 48.1836 230.831 48.2734 230.764C48.3672 230.702 48.4453 230.624 48.5078 230.53C48.5273 230.499 48.5977 230.339 48.7188 230.05C48.8398 229.76 48.9277 229.546 48.9824 229.405L46.6621 222.948H47.8574L49.5391 228.057L51.2324 222.948Z" fill="#9E9E9E"/>
<path d="M199.39 228.634H198.029V231.223H195.713V228.634H190.948V226.567L195.373 219.262H198.029V226.782H199.39V228.634ZM195.713 226.782V221.586L192.7 226.782H195.713ZM201.299 218.988H203.814V224.027L208.538 218.988H211.841L206.828 224.027L212.099 231.223H208.812L205.035 225.878L203.814 227.131V231.223H201.299V218.988Z" fill="#442FB8"/>
<defs>
<clipPath id="clip0_8699_7860">
<rect width="6.40777" height="6.40777" fill="white" transform="translate(200.396 9.21533)"/>
</clipPath>
</defs>
</svg>
