<svg width="169" height="112" viewBox="0 0 169 112" fill="none" xmlns="http://www.w3.org/2000/svg">
<circle cx="31.5" cy="31.2234" r="31" fill="#E0F2F1"/>
<path d="M47.5 15.2234H15.5V47.2234H47.5V15.2234Z" fill="#E0F2F1"/>
<path d="M38.8625 39.5859C37.6038 40.844 36.0005 41.7007 34.255 42.0477C32.5096 42.3947 30.7004 42.2165 29.0562 41.5356C27.4121 40.8546 26.0067 39.7015 25.0177 38.222C24.0287 36.7425 23.5006 35.003 23.5 33.2234V29.2234C23.5006 27.4438 24.0287 25.7043 25.0177 24.2248C26.0067 22.7453 27.4121 21.5922 29.0562 20.9112C30.7004 20.2303 32.5096 20.0521 34.255 20.3991C36.0005 20.7461 37.6038 21.6028 38.8625 22.8609" fill="#E0F2F1"/>
<path d="M38.8625 39.5859C37.6038 40.844 36.0005 41.7007 34.255 42.0477C32.5096 42.3947 30.7004 42.2165 29.0562 41.5356C27.4121 40.8546 26.0067 39.7015 25.0177 38.222C24.0287 36.7425 23.5006 35.003 23.5 33.2234V29.2234C23.5006 27.4438 24.0287 25.7043 25.0177 24.2248C26.0067 22.7453 27.4121 21.5922 29.0562 20.9112C30.7004 20.2303 32.5096 20.0521 34.255 20.3991C36.0005 20.7461 37.6038 21.6028 38.8625 22.8609" stroke="#442FB8" stroke-width="3" stroke-linecap="round" stroke-linejoin="round"/>
<path d="M20.5 29.2234H32.5" stroke="#442FB8" stroke-width="3" stroke-linecap="round" stroke-linejoin="round"/>
<path d="M20.5 33.2234H30.5" stroke="#442FB8" stroke-width="3" stroke-linecap="round" stroke-linejoin="round"/>
<path d="M143.5 73.7234C152.613 73.7234 160 81.1107 160 90.2234V94.2234C160 103.336 152.613 110.723 143.5 110.723H88.5C79.3873 110.723 72 103.336 72 94.2234V90.2234C72 81.1107 79.3873 73.7234 88.5 73.7234H143.5Z" stroke="#E0E0E0"/>
<path d="M86.402 88.1884V94.7014C86.402 95.5074 86.155 96.1444 85.661 96.6124C85.1757 97.0804 84.5343 97.3144 83.737 97.3144C82.9397 97.3144 82.294 97.0804 81.8 96.6124C81.3147 96.1444 81.072 95.5074 81.072 94.7014H82.567C82.5757 95.1001 82.6753 95.4164 82.866 95.6504C83.0653 95.8844 83.3557 96.0014 83.737 96.0014C84.1183 96.0014 84.4087 95.8844 84.608 95.6504C84.8073 95.4077 84.907 95.0914 84.907 94.7014V88.1884H86.402ZM95.2999 90.0604V97.2234H93.8179V96.3784C93.5839 96.6731 93.2762 96.9071 92.8949 97.0804C92.5222 97.2451 92.1236 97.3274 91.6989 97.3274C91.1356 97.3274 90.6286 97.2104 90.1779 96.9764C89.7359 96.7424 89.3849 96.3957 89.1249 95.9364C88.8736 95.4771 88.7479 94.9224 88.7479 94.2724V90.0604H90.2169V94.0514C90.2169 94.6927 90.3772 95.1867 90.6979 95.5334C91.0186 95.8714 91.4562 96.0404 92.0109 96.0404C92.5656 96.0404 93.0032 95.8714 93.3239 95.5334C93.6532 95.1867 93.8179 94.6927 93.8179 94.0514V90.0604H95.2999ZM98.7373 87.6034V97.2234H97.2553V87.6034H98.7373ZM104.684 95.2084C105.516 94.4891 106.17 93.8997 106.647 93.4404C107.132 92.9724 107.535 92.4871 107.856 91.9844C108.177 91.4817 108.337 90.9791 108.337 90.4764C108.337 89.9564 108.211 89.5491 107.96 89.2544C107.717 88.9597 107.332 88.8124 106.803 88.8124C106.292 88.8124 105.893 88.9771 105.607 89.3064C105.33 89.6271 105.182 90.0604 105.165 90.6064H103.735C103.761 89.6184 104.056 88.8644 104.619 88.3444C105.191 87.8157 105.915 87.5514 106.79 87.5514C107.735 87.5514 108.471 87.8114 109 88.3314C109.537 88.8514 109.806 89.5447 109.806 90.4114C109.806 91.0354 109.646 91.6377 109.325 92.2184C109.013 92.7904 108.636 93.3061 108.194 93.7654C107.761 94.2161 107.206 94.7404 106.53 95.3384L105.945 95.8584H110.066V97.0934H103.748V96.0144L104.684 95.2084ZM111.368 92.3614C111.368 90.8621 111.619 89.6921 112.122 88.8514C112.633 88.0021 113.509 87.5774 114.748 87.5774C115.987 87.5774 116.858 88.0021 117.361 88.8514C117.872 89.6921 118.128 90.8621 118.128 92.3614C118.128 93.8781 117.872 95.0654 117.361 95.9234C116.858 96.7727 115.987 97.1974 114.748 97.1974C113.509 97.1974 112.633 96.7727 112.122 95.9234C111.619 95.0654 111.368 93.8781 111.368 92.3614ZM116.672 92.3614C116.672 91.6594 116.624 91.0657 116.529 90.5804C116.442 90.0951 116.26 89.7007 115.983 89.3974C115.706 89.0854 115.294 88.9294 114.748 88.9294C114.202 88.9294 113.79 89.0854 113.513 89.3974C113.236 89.7007 113.049 90.0951 112.954 90.5804C112.867 91.0657 112.824 91.6594 112.824 92.3614C112.824 93.0894 112.867 93.7004 112.954 94.1944C113.041 94.6884 113.223 95.0871 113.5 95.3904C113.786 95.6937 114.202 95.8454 114.748 95.8454C115.294 95.8454 115.706 95.6937 115.983 95.3904C116.269 95.0871 116.455 94.6884 116.542 94.1944C116.629 93.7004 116.672 93.0894 116.672 92.3614ZM120.515 95.2084C121.347 94.4891 122.001 93.8997 122.478 93.4404C122.963 92.9724 123.366 92.4871 123.687 91.9844C124.008 91.4817 124.168 90.9791 124.168 90.4764C124.168 89.9564 124.042 89.5491 123.791 89.2544C123.548 88.9597 123.163 88.8124 122.634 88.8124C122.123 88.8124 121.724 88.9771 121.438 89.3064C121.161 89.6271 121.013 90.0604 120.996 90.6064H119.566C119.592 89.6184 119.887 88.8644 120.45 88.3444C121.022 87.8157 121.746 87.5514 122.621 87.5514C123.566 87.5514 124.302 87.8114 124.831 88.3314C125.368 88.8514 125.637 89.5447 125.637 90.4114C125.637 91.0354 125.477 91.6377 125.156 92.2184C124.844 92.7904 124.467 93.3061 124.025 93.7654C123.592 94.2161 123.037 94.7404 122.361 95.3384L121.776 95.8584H125.897V97.0934H119.579V96.0144L120.515 95.2084ZM128.018 95.2084C128.85 94.4891 129.504 93.8997 129.981 93.4404C130.466 92.9724 130.869 92.4871 131.19 91.9844C131.511 91.4817 131.671 90.9791 131.671 90.4764C131.671 89.9564 131.545 89.5491 131.294 89.2544C131.051 88.9597 130.666 88.8124 130.137 88.8124C129.626 88.8124 129.227 88.9771 128.941 89.3064C128.664 89.6271 128.516 90.0604 128.499 90.6064H127.069C127.095 89.6184 127.39 88.8644 127.953 88.3444C128.525 87.8157 129.249 87.5514 130.124 87.5514C131.069 87.5514 131.805 87.8114 132.334 88.3314C132.871 88.8514 133.14 89.5447 133.14 90.4114C133.14 91.0354 132.98 91.6377 132.659 92.2184C132.347 92.7904 131.97 93.3061 131.528 93.7654C131.095 94.2161 130.54 94.7404 129.864 95.3384L129.279 95.8584H133.4V97.0934H127.082V96.0144L128.018 95.2084Z" fill="#9E9E9E"/>
<path d="M146.692 95.0618C146.726 95.1117 146.772 95.1526 146.826 95.1808C146.88 95.209 146.939 95.2238 147 95.2238C147.061 95.2238 147.12 95.209 147.174 95.1808C147.228 95.1526 147.274 95.1117 147.308 95.0618L150.683 90.1868C150.722 90.1305 150.745 90.0647 150.749 89.9963C150.754 89.928 150.739 89.8598 150.707 89.7992C150.676 89.7385 150.628 89.6877 150.569 89.6523C150.511 89.6169 150.443 89.5983 150.375 89.5984H143.625C143.557 89.5987 143.49 89.6176 143.431 89.6531C143.373 89.6885 143.325 89.7393 143.294 89.7998C143.262 89.8603 143.247 89.9283 143.251 89.9965C143.256 90.0647 143.278 90.1304 143.317 90.1868L146.692 95.0618Z" fill="#9E9E9E"/>
<path d="M73.7817 44.4641H78.623C79.5801 44.4641 80.3516 44.7351 80.9375 45.2771C81.5234 45.8142 81.8164 46.571 81.8164 47.5476C81.8164 48.3875 81.5552 49.1199 81.0327 49.7449C80.5103 50.365 79.707 50.675 78.623 50.675H75.2393V55.2234H73.7817V44.4641ZM80.3442 47.5549C80.3442 46.7639 80.0513 46.2268 79.4653 45.9436C79.1431 45.7922 78.7012 45.7166 78.1396 45.7166H75.2393V49.4446H78.1396C78.7939 49.4446 79.3237 49.3054 79.729 49.0271C80.1392 48.7488 80.3442 48.2581 80.3442 47.5549ZM83.5083 47.3792H84.7607V48.7341C84.8633 48.4705 85.1147 48.1506 85.5151 47.7747C85.9155 47.3938 86.377 47.2034 86.8994 47.2034C86.9238 47.2034 86.9653 47.2058 87.0239 47.2107C87.0825 47.2156 87.1826 47.2253 87.3242 47.24V48.6316C87.2461 48.6169 87.1729 48.6072 87.1045 48.6023C87.041 48.5974 86.9702 48.595 86.8921 48.595C86.228 48.595 85.7178 48.8098 85.3613 49.2395C85.0049 49.6643 84.8267 50.155 84.8267 50.7117V55.2234H83.5083V47.3792ZM91.5796 54.3738C92.4536 54.3738 93.0518 54.0442 93.374 53.385C93.7012 52.7209 93.8647 51.9836 93.8647 51.1731C93.8647 50.4407 93.7476 49.845 93.5132 49.386C93.1421 48.6633 92.5024 48.302 91.5942 48.302C90.7886 48.302 90.2026 48.6096 89.8364 49.2249C89.4702 49.8401 89.2871 50.5823 89.2871 51.4514C89.2871 52.2864 89.4702 52.9822 89.8364 53.5388C90.2026 54.0955 90.7837 54.3738 91.5796 54.3738ZM91.6309 47.1521C92.6416 47.1521 93.4961 47.489 94.1943 48.1628C94.8926 48.8367 95.2417 49.8279 95.2417 51.1365C95.2417 52.4011 94.9341 53.446 94.3188 54.2712C93.7036 55.0964 92.749 55.509 91.4551 55.509C90.376 55.509 89.519 55.1453 88.8843 54.4177C88.2495 53.6853 87.9321 52.7039 87.9321 51.4734C87.9321 50.155 88.2666 49.1052 88.9355 48.324C89.6045 47.5427 90.5029 47.1521 91.6309 47.1521ZM97.146 46.1853C97.1655 45.6384 97.2607 45.238 97.4316 44.9841C97.7393 44.5349 98.3325 44.3103 99.2114 44.3103C99.2944 44.3103 99.3799 44.3127 99.4678 44.3176C99.5557 44.3225 99.6558 44.3298 99.7681 44.3396V45.5408C99.6313 45.531 99.5312 45.5261 99.4678 45.5261C99.4092 45.5212 99.353 45.5188 99.2993 45.5188C98.8989 45.5188 98.6597 45.6238 98.5815 45.8337C98.5034 46.0388 98.4644 46.5662 98.4644 47.4158H99.7681V48.4558H98.4497V55.2234H97.146V48.4558H96.0547V47.4158H97.146V46.1853ZM101.035 45.9583V44.4641H102.354V45.9583H101.035ZM101.035 47.4158H102.354V55.2234H101.035V47.4158ZM104.58 45.1892H105.913V47.3792H107.166V48.4558H105.913V53.5754C105.913 53.8489 106.006 54.032 106.191 54.1248C106.294 54.1785 106.465 54.2053 106.704 54.2053C106.768 54.2053 106.836 54.2053 106.909 54.2053C106.982 54.2004 107.068 54.1931 107.166 54.1833V55.2234C107.014 55.2673 106.855 55.2991 106.689 55.3186C106.528 55.3381 106.353 55.3479 106.162 55.3479C105.547 55.3479 105.129 55.1917 104.91 54.8792C104.69 54.5618 104.58 54.1516 104.58 53.6487V48.4558H103.518V47.3792H104.58V45.1892ZM109.275 52.7625C109.314 53.2019 109.424 53.5388 109.604 53.7732C109.937 54.198 110.513 54.4104 111.333 54.4104C111.821 54.4104 112.251 54.3054 112.622 54.0955C112.993 53.8806 113.179 53.551 113.179 53.1067C113.179 52.7698 113.03 52.5134 112.732 52.3376C112.542 52.2302 112.166 52.1057 111.604 51.9641L110.557 51.7004C109.888 51.5344 109.395 51.3489 109.077 51.1438C108.511 50.7874 108.228 50.2942 108.228 49.6643C108.228 48.9221 108.494 48.3215 109.026 47.8625C109.563 47.4036 110.283 47.1741 111.187 47.1741C112.368 47.1741 113.22 47.5208 113.743 48.2141C114.07 48.6536 114.229 49.1272 114.219 49.635H112.974C112.949 49.3372 112.844 49.0662 112.659 48.822C112.356 48.4753 111.831 48.302 111.084 48.302C110.586 48.302 110.208 48.3972 109.949 48.5876C109.695 48.7781 109.568 49.0295 109.568 49.342C109.568 49.6838 109.736 49.9573 110.073 50.1624C110.269 50.2844 110.557 50.3918 110.938 50.4846L111.809 50.697C112.756 50.9265 113.391 51.1487 113.713 51.3635C114.226 51.7004 114.482 52.2302 114.482 52.9529C114.482 53.6511 114.216 54.2542 113.684 54.762C113.157 55.2698 112.351 55.5237 111.267 55.5237C110.1 55.5237 109.272 55.26 108.784 54.7327C108.301 54.2004 108.042 53.5437 108.008 52.7625H109.275ZM120.481 44.4641H128.325V45.7825H121.902V49.0491H127.842V50.2942H121.902V53.9417H128.435V55.2234H120.481V44.4641ZM131.182 53.136C131.182 53.5168 131.321 53.8171 131.599 54.0369C131.877 54.2566 132.207 54.3665 132.588 54.3665C133.052 54.3665 133.501 54.259 133.936 54.0442C134.668 53.6877 135.034 53.1042 135.034 52.2937V51.2317C134.873 51.3342 134.666 51.4197 134.412 51.488C134.158 51.5564 133.909 51.6052 133.665 51.6345L132.866 51.7371C132.388 51.8005 132.029 51.9006 131.79 52.0374C131.384 52.2668 131.182 52.6331 131.182 53.136ZM134.375 50.47C134.678 50.4309 134.88 50.304 134.983 50.0891C135.042 49.9719 135.071 49.8035 135.071 49.5837C135.071 49.1345 134.91 48.8098 134.587 48.6096C134.27 48.4045 133.813 48.302 133.218 48.302C132.529 48.302 132.041 48.4875 131.753 48.8586C131.592 49.0637 131.487 49.3689 131.438 49.7742H130.208C130.232 48.8074 130.544 48.136 131.145 47.76C131.75 47.3792 132.451 47.1887 133.247 47.1887C134.17 47.1887 134.919 47.3645 135.496 47.7161C136.067 48.0676 136.353 48.6145 136.353 49.3567V53.8757C136.353 54.0125 136.379 54.1223 136.433 54.2053C136.492 54.2883 136.611 54.3298 136.792 54.3298C136.851 54.3298 136.917 54.3274 136.99 54.3225C137.063 54.3127 137.141 54.3005 137.224 54.2859V55.26C137.019 55.3186 136.863 55.3552 136.755 55.3699C136.648 55.3845 136.501 55.3918 136.316 55.3918C135.862 55.3918 135.532 55.2307 135.327 54.9084C135.22 54.7375 135.144 54.4958 135.1 54.1833C134.832 54.5349 134.446 54.8401 133.943 55.0989C133.44 55.3577 132.886 55.4871 132.28 55.4871C131.553 55.4871 130.957 55.2673 130.493 54.8279C130.034 54.3835 129.805 53.8293 129.805 53.1653C129.805 52.4377 130.032 51.8738 130.486 51.4734C130.94 51.073 131.536 50.8264 132.273 50.7336L134.375 50.47ZM138.557 47.3792H139.81V48.7341C139.912 48.4705 140.164 48.1506 140.564 47.7747C140.964 47.3938 141.426 47.2034 141.948 47.2034C141.973 47.2034 142.014 47.2058 142.073 47.2107C142.131 47.2156 142.231 47.2253 142.373 47.24V48.6316C142.295 48.6169 142.222 48.6072 142.153 48.6023C142.09 48.5974 142.019 48.595 141.941 48.595C141.277 48.595 140.767 48.8098 140.41 49.2395C140.054 49.6643 139.875 50.155 139.875 50.7117V55.2234H138.557V47.3792ZM143.516 47.3792H144.768V48.4924C145.139 48.0334 145.532 47.7039 145.947 47.5037C146.362 47.3035 146.824 47.2034 147.332 47.2034C148.445 47.2034 149.197 47.5916 149.587 48.3679C149.802 48.7927 149.91 49.4006 149.91 50.1917V55.2234H148.569V50.2795C148.569 49.801 148.499 49.4153 148.357 49.1223C148.123 48.634 147.698 48.3899 147.083 48.3899C146.77 48.3899 146.514 48.4216 146.313 48.4851C145.952 48.5925 145.635 48.8074 145.361 49.1296C145.142 49.3884 144.998 49.657 144.929 49.9353C144.866 50.2087 144.834 50.6018 144.834 51.1145V55.2234H143.516V47.3792ZM155.132 47.2034C155.688 47.2034 156.228 47.3352 156.75 47.5989C157.273 47.8577 157.671 48.1946 157.944 48.6096C158.208 49.0051 158.384 49.4666 158.472 49.9939C158.55 50.3552 158.589 50.9314 158.589 51.7224H152.839C152.864 52.5183 153.052 53.158 153.403 53.6414C153.755 54.1199 154.299 54.3591 155.037 54.3591C155.725 54.3591 156.274 54.1321 156.685 53.678C156.919 53.4143 157.085 53.1091 157.183 52.7625H158.479C158.445 53.0505 158.33 53.3728 158.135 53.7292C157.944 54.0808 157.729 54.3689 157.49 54.5935C157.09 54.9841 156.594 55.2478 156.003 55.3845C155.686 55.4626 155.327 55.5017 154.927 55.5017C153.95 55.5017 153.123 55.1477 152.444 54.4397C151.765 53.7268 151.426 52.7307 151.426 51.4514C151.426 50.1917 151.768 49.1687 152.451 48.3826C153.135 47.5964 154.028 47.2034 155.132 47.2034ZM157.234 50.675C157.18 50.1038 157.056 49.6472 156.86 49.3054C156.499 48.6707 155.896 48.3533 155.051 48.3533C154.446 48.3533 153.938 48.573 153.528 49.0125C153.118 49.447 152.9 50.0012 152.876 50.675H157.234ZM161.05 51.3928C161.05 52.2327 161.228 52.9358 161.584 53.5022C161.941 54.0686 162.512 54.3518 163.298 54.3518C163.909 54.3518 164.409 54.0906 164.8 53.5681C165.195 53.0408 165.393 52.2864 165.393 51.3049C165.393 50.3137 165.19 49.5813 164.785 49.1077C164.38 48.6292 163.879 48.3899 163.284 48.3899C162.62 48.3899 162.08 48.6438 161.665 49.1516C161.255 49.6594 161.05 50.4065 161.05 51.3928ZM163.035 47.24C163.635 47.24 164.138 47.3669 164.543 47.6208C164.778 47.7673 165.044 48.0237 165.342 48.3899V44.4275H166.609V55.2234H165.422V54.1321C165.115 54.6155 164.751 54.9646 164.331 55.1794C163.911 55.3943 163.43 55.5017 162.888 55.5017C162.014 55.5017 161.257 55.1355 160.618 54.4031C159.978 53.6658 159.658 52.6868 159.658 51.4661C159.658 50.3235 159.949 49.3347 160.53 48.4998C161.116 47.6599 161.951 47.24 163.035 47.24Z" fill="#6963E5"/>
<path d="M73.4297 20.4949L74.0039 17.7468H77.3809C77.3444 17.2911 77.3262 16.8126 77.3262 16.3113C77.3262 15.8738 77.3398 15.4454 77.3672 15.0261H73.4297L74.0039 12.2781H77.75C78.1328 10.6466 78.7845 9.27938 79.7051 8.17651C81.0814 6.51766 82.8359 5.68823 84.9688 5.68823C87.8125 5.68823 89.8952 6.80021 91.2168 9.02417C91.946 10.2729 92.3379 11.5261 92.3926 12.7839H88.8516C88.6237 11.8178 88.3275 11.0886 87.9629 10.5964C87.3249 9.72144 86.3724 9.28394 85.1055 9.28394C83.8203 9.28394 82.804 9.90373 82.0566 11.1433C81.8561 11.4806 81.6829 11.8588 81.5371 12.2781H86.9648L86.3906 15.0261H80.9902C80.9629 15.4545 80.9492 15.9057 80.9492 16.3796C80.9492 16.8627 80.9629 17.3184 80.9902 17.7468H86.0488L85.4746 20.4949H81.6055C81.7513 20.8503 81.9245 21.1739 82.125 21.4656C82.9089 22.5867 83.9069 23.1472 85.1191 23.1472C86.3587 23.1472 87.3021 22.6641 87.9492 21.698C88.3138 21.1785 88.6146 20.3992 88.8516 19.3601H92.3516C92.0417 21.5567 91.2578 23.3432 90 24.7195C88.7422 26.0958 87.1289 26.7839 85.1602 26.7839C82.7266 26.7839 80.8125 25.8542 79.418 23.9949C78.6888 23.0196 78.151 21.8529 77.8047 20.4949H73.4297ZM105.914 19.948C105.914 21.0144 106.201 21.8848 106.775 22.5593C107.35 23.2338 108.079 23.571 108.963 23.571C109.829 23.571 110.508 23.2475 111 22.6003C111.501 21.9441 111.752 21.0964 111.752 20.0574C111.752 18.8998 111.469 18.0157 110.904 17.405C110.339 16.7852 109.646 16.4753 108.826 16.4753C108.161 16.4753 107.573 16.6759 107.062 17.0769C106.297 17.6694 105.914 18.6264 105.914 19.948ZM111.396 11.3894C111.396 11.0704 111.273 10.7195 111.027 10.3367C110.608 9.71688 109.975 9.40698 109.127 9.40698C107.86 9.40698 106.958 10.1179 106.42 11.5398C106.128 12.3236 105.928 13.4812 105.818 15.0125C106.301 14.4382 106.862 14.019 107.5 13.7546C108.138 13.4903 108.867 13.3582 109.688 13.3582C111.447 13.3582 112.887 13.9552 114.008 15.1492C115.138 16.3432 115.703 17.8699 115.703 19.7292C115.703 21.5795 115.152 23.211 114.049 24.6238C112.946 26.0365 111.232 26.7429 108.908 26.7429C106.411 26.7429 104.57 25.6993 103.385 23.6121C102.464 21.9806 102.004 19.8751 102.004 17.2957C102.004 15.7826 102.068 14.5522 102.195 13.6042C102.423 11.9181 102.865 10.5144 103.521 9.39331C104.087 8.43628 104.825 7.6661 105.736 7.08276C106.657 6.49943 107.755 6.20776 109.031 6.20776C110.872 6.20776 112.34 6.68172 113.434 7.62964C114.527 8.56844 115.143 9.8217 115.279 11.3894H111.396ZM121.568 16.5027C121.568 18.7813 121.755 20.5268 122.129 21.739C122.503 22.9421 123.268 23.5437 124.426 23.5437C125.583 23.5437 126.34 22.9421 126.695 21.739C127.06 20.5268 127.242 18.7813 127.242 16.5027C127.242 14.1147 127.06 12.3464 126.695 11.198C126.34 10.0496 125.583 9.47534 124.426 9.47534C123.268 9.47534 122.503 10.0496 122.129 11.198C121.755 12.3464 121.568 14.1147 121.568 16.5027ZM124.426 6.26245C126.951 6.26245 128.719 7.15112 129.73 8.92847C130.751 10.7058 131.262 13.2306 131.262 16.5027C131.262 19.7748 130.751 22.295 129.73 24.0632C128.719 25.8315 126.951 26.7156 124.426 26.7156C121.901 26.7156 120.128 25.8315 119.107 24.0632C118.096 22.295 117.59 19.7748 117.59 16.5027C117.59 13.2306 118.096 10.7058 119.107 8.92847C120.128 7.15112 121.901 6.26245 124.426 6.26245ZM134.502 6.07104H138.645V14.3699L146.424 6.07104H151.865L143.607 14.3699L152.289 26.2234H146.875L140.654 17.4187L138.645 19.4832V26.2234H134.502V6.07104Z" fill="#442FB8"/>
</svg>
