<svg width="208" height="99" viewBox="0 0 208 99" fill="none" xmlns="http://www.w3.org/2000/svg">
<circle cx="31.5" cy="31.2234" r="31" fill="#E0F2F1"/>
<path d="M23.5502 32.3683C23.5519 32.5001 23.5272 32.6309 23.4775 32.753C23.4279 32.875 23.3543 32.9859 23.2611 33.0791C23.1679 33.1723 23.057 33.2459 22.9349 33.2956C22.8128 33.3453 22.682 33.37 22.5502 33.3683H17.0502C16.8644 33.3668 16.6826 33.3148 16.524 33.2179C16.3655 33.1211 16.2363 32.9829 16.1502 32.8183C16.0702 32.6506 16.0372 32.4644 16.0548 32.2794C16.0724 32.0945 16.14 31.9178 16.2502 31.7683C17.1352 30.5803 18.3161 29.6451 19.6752 29.0558C19.0912 28.5212 18.6425 27.8556 18.366 27.1137C18.0895 26.3718 17.9932 25.5748 18.0849 24.7884C18.1767 24.002 18.4538 23.2486 18.8936 22.5902C19.3334 21.9319 19.9233 21.3874 20.6147 21.0016C21.306 20.6157 22.0792 20.3996 22.8704 20.3709C23.6616 20.3423 24.4483 20.502 25.1658 20.8368C25.8832 21.1716 26.5109 21.672 26.9972 22.2969C27.4834 22.9217 27.8144 23.6531 27.9627 24.4308C27.9997 24.6334 27.974 24.8424 27.8892 25.03C27.8043 25.2176 27.6643 25.3748 27.4877 25.4808C25.871 26.4395 24.6414 27.9345 24.0127 29.7058C23.7028 30.5591 23.5462 31.4605 23.5502 32.3683ZM46.8502 31.7683C45.9652 30.5803 44.7843 29.6451 43.4252 29.0558C44.0092 28.5212 44.4579 27.8556 44.7344 27.1137C45.0109 26.3718 45.1072 25.5748 45.0155 24.7884C44.9238 24.002 44.6466 23.2486 44.2068 22.5902C43.767 21.9319 43.1771 21.3874 42.4858 21.0016C41.7944 20.6157 41.0213 20.3996 40.23 20.3709C39.4388 20.3423 38.6521 20.502 37.9346 20.8368C37.2172 21.1716 36.5895 21.672 36.1032 22.2969C35.617 22.9217 35.2861 23.6531 35.1377 24.4308C35.1007 24.6334 35.1264 24.8424 35.2112 25.03C35.2961 25.2176 35.4362 25.3748 35.6127 25.4808C37.2315 26.437 38.4618 27.9329 39.0877 29.7058C39.3976 30.5591 39.5542 31.4605 39.5502 32.3683C39.5485 32.5001 39.5733 32.6309 39.6229 32.753C39.6726 32.875 39.7462 32.9859 39.8394 33.0791C39.9326 33.1723 40.0435 33.2459 40.1656 33.2956C40.2876 33.3453 40.4184 33.37 40.5502 33.3683H46.0502C46.2359 33.3683 46.418 33.3166 46.5759 33.2189C46.7339 33.1213 46.8616 32.9816 46.9446 32.8155C47.0277 32.6494 47.0628 32.4635 47.0462 32.2785C47.0295 32.0935 46.9616 31.9169 46.8502 31.7683ZM35.2002 37.1308C36.1954 36.368 36.9267 35.3125 37.2911 34.1127C37.6556 32.9129 37.6351 31.6291 37.2323 30.4416C36.8296 29.2541 36.0649 28.2226 35.0457 27.4921C34.0266 26.7616 32.8041 26.3687 31.5502 26.3687C30.2963 26.3687 29.0738 26.7616 28.0547 27.4921C27.0355 28.2226 26.2709 29.2541 25.8681 30.4416C25.4654 31.6291 25.4448 32.9129 25.8093 34.1127C26.1738 35.3125 26.905 36.368 27.9002 37.1308C25.9559 37.994 24.3796 39.5172 23.4502 41.4308C23.3763 41.5829 23.3431 41.7516 23.3541 41.9203C23.3651 42.0891 23.4197 42.2521 23.5127 42.3933C23.5993 42.5382 23.7219 42.6581 23.8687 42.7414C24.0155 42.8246 24.1814 42.8684 24.3502 42.8683H38.7502C38.919 42.8684 39.0849 42.8246 39.2317 42.7414C39.3785 42.6581 39.5012 42.5382 39.5877 42.3933C39.6807 42.2521 39.7354 42.0891 39.7463 41.9203C39.7573 41.7516 39.7242 41.5829 39.6502 41.4308C38.7209 39.5172 37.1446 37.994 35.2002 37.1308Z" fill="#442FB8"/>
<path d="M74.4922 42.4641L77.583 51.6267L80.6372 42.4641H82.2705L78.3447 53.2234H76.7993L72.8809 42.4641H74.4922ZM85.918 45.2034C86.4746 45.2034 87.0142 45.3352 87.5366 45.5989C88.0591 45.8577 88.457 46.1946 88.7305 46.6096C88.9941 47.0051 89.1699 47.4666 89.2578 47.9939C89.3359 48.3552 89.375 48.9314 89.375 49.7224H83.6255C83.6499 50.5183 83.8379 51.158 84.1895 51.6414C84.541 52.1199 85.0854 52.3591 85.8228 52.3591C86.5112 52.3591 87.0605 52.1321 87.4707 51.678C87.7051 51.4143 87.8711 51.1091 87.9688 50.7625H89.2651C89.231 51.0505 89.1162 51.3728 88.9209 51.7292C88.7305 52.0808 88.5156 52.3689 88.2764 52.5935C87.876 52.9841 87.3804 53.2478 86.7896 53.3845C86.4722 53.4626 86.1133 53.5017 85.7129 53.5017C84.7363 53.5017 83.9087 53.1477 83.23 52.4397C82.5513 51.7268 82.2119 50.7307 82.2119 49.4514C82.2119 48.1917 82.5537 47.1687 83.2373 46.3826C83.9209 45.5964 84.8145 45.2034 85.918 45.2034ZM88.02 48.675C87.9663 48.1038 87.8418 47.6472 87.6465 47.3054C87.2852 46.6707 86.6821 46.3533 85.8374 46.3533C85.2319 46.3533 84.7241 46.573 84.314 47.0125C83.9038 47.447 83.6865 48.0012 83.6621 48.675H88.02ZM91.001 45.3792H92.2534V46.4924C92.6245 46.0334 93.0176 45.7039 93.4326 45.5037C93.8477 45.3035 94.3091 45.2034 94.8169 45.2034C95.9302 45.2034 96.6821 45.5916 97.0728 46.3679C97.2876 46.7927 97.395 47.4006 97.395 48.1917V53.2234H96.0547V48.2795C96.0547 47.801 95.9839 47.4153 95.8423 47.1223C95.6079 46.634 95.1831 46.3899 94.5679 46.3899C94.2554 46.3899 93.999 46.4216 93.7988 46.4851C93.4375 46.5925 93.1201 46.8074 92.8467 47.1296C92.627 47.3884 92.4829 47.657 92.4146 47.9353C92.3511 48.2087 92.3193 48.6018 92.3193 49.1145V53.2234H91.001V45.3792ZM100.186 49.3928C100.186 50.2327 100.364 50.9358 100.72 51.5022C101.077 52.0686 101.648 52.3518 102.434 52.3518C103.044 52.3518 103.545 52.0906 103.936 51.5681C104.331 51.0408 104.529 50.2864 104.529 49.3049C104.529 48.3137 104.326 47.5813 103.921 47.1077C103.516 46.6292 103.015 46.3899 102.419 46.3899C101.755 46.3899 101.216 46.6438 100.801 47.1516C100.391 47.6594 100.186 48.4065 100.186 49.3928ZM102.17 45.24C102.771 45.24 103.274 45.3669 103.679 45.6208C103.914 45.7673 104.18 46.0237 104.478 46.3899V42.4275H105.745V53.2234H104.558V52.1321C104.25 52.6155 103.887 52.9646 103.467 53.1794C103.047 53.3943 102.566 53.5017 102.024 53.5017C101.15 53.5017 100.393 53.1355 99.7534 52.4031C99.1138 51.6658 98.7939 50.6868 98.7939 49.4661C98.7939 48.3235 99.0845 47.3347 99.6655 46.4998C100.251 45.6599 101.086 45.24 102.17 45.24ZM110.813 52.3738C111.687 52.3738 112.285 52.0442 112.607 51.385C112.935 50.7209 113.098 49.9836 113.098 49.1731C113.098 48.4407 112.981 47.845 112.747 47.386C112.375 46.6633 111.736 46.302 110.828 46.302C110.022 46.302 109.436 46.6096 109.07 47.2249C108.704 47.8401 108.521 48.5823 108.521 49.4514C108.521 50.2864 108.704 50.9822 109.07 51.5388C109.436 52.0955 110.017 52.3738 110.813 52.3738ZM110.864 45.1521C111.875 45.1521 112.729 45.489 113.428 46.1628C114.126 46.8367 114.475 47.8279 114.475 49.1365C114.475 50.4011 114.167 51.446 113.552 52.2712C112.937 53.0964 111.982 53.509 110.688 53.509C109.609 53.509 108.752 53.1453 108.118 52.4177C107.483 51.6853 107.166 50.7039 107.166 49.4734C107.166 48.155 107.5 47.1052 108.169 46.324C108.838 45.5427 109.736 45.1521 110.864 45.1521ZM116.086 45.3792H117.339V46.7341C117.441 46.4705 117.693 46.1506 118.093 45.7747C118.494 45.3938 118.955 45.2034 119.478 45.2034C119.502 45.2034 119.543 45.2058 119.602 45.2107C119.661 45.2156 119.761 45.2253 119.902 45.24V46.6316C119.824 46.6169 119.751 46.6072 119.683 46.6023C119.619 46.5974 119.548 46.595 119.47 46.595C118.806 46.595 118.296 46.8098 117.939 47.2395C117.583 47.6643 117.405 48.155 117.405 48.7117V53.2234H116.086V45.3792ZM121.829 50.7625C121.868 51.2019 121.978 51.5388 122.158 51.7732C122.49 52.198 123.066 52.4104 123.887 52.4104C124.375 52.4104 124.805 52.3054 125.176 52.0955C125.547 51.8806 125.732 51.551 125.732 51.1067C125.732 50.7698 125.583 50.5134 125.286 50.3376C125.095 50.2302 124.719 50.1057 124.158 49.9641L123.11 49.7004C122.441 49.5344 121.948 49.3489 121.631 49.1438C121.064 48.7874 120.781 48.2942 120.781 47.6643C120.781 46.9221 121.047 46.3215 121.58 45.8625C122.117 45.4036 122.837 45.1741 123.74 45.1741C124.922 45.1741 125.774 45.5208 126.296 46.2141C126.624 46.6536 126.782 47.1272 126.772 47.635H125.527C125.503 47.3372 125.398 47.0662 125.212 46.822C124.91 46.4753 124.385 46.302 123.638 46.302C123.14 46.302 122.761 46.3972 122.502 46.5876C122.249 46.7781 122.122 47.0295 122.122 47.342C122.122 47.6838 122.29 47.9573 122.627 48.1624C122.822 48.2844 123.11 48.3918 123.491 48.4846L124.363 48.697C125.31 48.9265 125.945 49.1487 126.267 49.3635C126.78 49.7004 127.036 50.2302 127.036 50.9529C127.036 51.6511 126.77 52.2542 126.238 52.762C125.71 53.2698 124.905 53.5237 123.821 53.5237C122.654 53.5237 121.826 53.26 121.338 52.7327C120.854 52.2004 120.596 51.5437 120.562 50.7625H121.829ZM137.539 42.1711C139.438 42.1711 140.845 42.7815 141.758 44.0022C142.471 44.9543 142.827 46.1726 142.827 47.657C142.827 49.2634 142.419 50.5989 141.604 51.6633C140.647 52.9133 139.282 53.5383 137.51 53.5383C135.854 53.5383 134.553 52.9915 133.606 51.8977C132.761 50.843 132.339 49.51 132.339 47.8987C132.339 46.4436 132.7 45.1985 133.423 44.1633C134.351 42.8352 135.723 42.1711 137.539 42.1711ZM137.686 52.2346C138.97 52.2346 139.897 51.7756 140.469 50.8577C141.045 49.9348 141.333 48.8752 141.333 47.679C141.333 46.4143 141.001 45.3962 140.337 44.6248C139.678 43.8533 138.774 43.4675 137.627 43.4675C136.514 43.4675 135.605 43.8508 134.902 44.6174C134.199 45.3792 133.848 46.5046 133.848 47.9939C133.848 49.1853 134.148 50.1912 134.749 51.0115C135.354 51.8269 136.333 52.2346 137.686 52.2346ZM144.395 45.3792H145.647V46.4924C146.018 46.0334 146.411 45.7039 146.826 45.5037C147.241 45.3035 147.703 45.2034 148.21 45.2034C149.324 45.2034 150.076 45.5916 150.466 46.3679C150.681 46.7927 150.789 47.4006 150.789 48.1917V53.2234H149.448V48.2795C149.448 47.801 149.377 47.4153 149.236 47.1223C149.001 46.634 148.577 46.3899 147.961 46.3899C147.649 46.3899 147.393 46.4216 147.192 46.4851C146.831 46.5925 146.514 46.8074 146.24 47.1296C146.021 47.3884 145.876 47.657 145.808 47.9353C145.745 48.2087 145.713 48.6018 145.713 49.1145V53.2234H144.395V45.3792ZM152.642 42.4275H153.923V46.3313C154.211 45.9553 154.556 45.6697 154.956 45.4744C155.356 45.2742 155.791 45.1741 156.26 45.1741C157.236 45.1741 158.027 45.511 158.633 46.1848C159.243 46.8538 159.548 47.8425 159.548 49.1511C159.548 50.3914 159.248 51.4216 158.647 52.2419C158.047 53.0623 157.214 53.4724 156.15 53.4724C155.554 53.4724 155.051 53.3284 154.641 53.0403C154.397 52.8694 154.136 52.5959 153.857 52.22V53.2234H152.642V42.4275ZM156.069 52.3079C156.782 52.3079 157.314 52.0247 157.666 51.4583C158.022 50.8918 158.201 50.1448 158.201 49.217C158.201 48.3918 158.022 47.7083 157.666 47.1663C157.314 46.6243 156.794 46.3533 156.106 46.3533C155.505 46.3533 154.978 46.5754 154.524 47.0198C154.075 47.4641 153.85 48.1965 153.85 49.217C153.85 49.9543 153.943 50.5525 154.128 51.0115C154.475 51.8757 155.122 52.3079 156.069 52.3079ZM164.207 52.3738C165.081 52.3738 165.679 52.0442 166.001 51.385C166.328 50.7209 166.492 49.9836 166.492 49.1731C166.492 48.4407 166.375 47.845 166.14 47.386C165.769 46.6633 165.129 46.302 164.221 46.302C163.416 46.302 162.83 46.6096 162.463 47.2249C162.097 47.8401 161.914 48.5823 161.914 49.4514C161.914 50.2864 162.097 50.9822 162.463 51.5388C162.83 52.0955 163.411 52.3738 164.207 52.3738ZM164.258 45.1521C165.269 45.1521 166.123 45.489 166.821 46.1628C167.52 46.8367 167.869 47.8279 167.869 49.1365C167.869 50.4011 167.561 51.446 166.946 52.2712C166.331 53.0964 165.376 53.509 164.082 53.509C163.003 53.509 162.146 53.1453 161.511 52.4177C160.876 51.6853 160.559 50.7039 160.559 49.4734C160.559 48.155 160.894 47.1052 161.562 46.324C162.231 45.5427 163.13 45.1521 164.258 45.1521ZM170.454 51.136C170.454 51.5168 170.593 51.8171 170.872 52.0369C171.15 52.2566 171.479 52.3665 171.86 52.3665C172.324 52.3665 172.773 52.259 173.208 52.0442C173.94 51.6877 174.307 51.1042 174.307 50.2937V49.2317C174.146 49.3342 173.938 49.4197 173.684 49.488C173.43 49.5564 173.181 49.6052 172.937 49.6345L172.139 49.7371C171.66 49.8005 171.301 49.9006 171.062 50.0374C170.657 50.2668 170.454 50.6331 170.454 51.136ZM173.647 48.47C173.95 48.4309 174.153 48.304 174.255 48.0891C174.314 47.9719 174.343 47.8035 174.343 47.5837C174.343 47.1345 174.182 46.8098 173.86 46.6096C173.542 46.4045 173.086 46.302 172.49 46.302C171.802 46.302 171.313 46.4875 171.025 46.8586C170.864 47.0637 170.759 47.3689 170.71 47.7742H169.48C169.504 46.8074 169.817 46.136 170.417 45.76C171.023 45.3792 171.724 45.1887 172.52 45.1887C173.442 45.1887 174.192 45.3645 174.768 45.7161C175.339 46.0676 175.625 46.6145 175.625 47.3567V51.8757C175.625 52.0125 175.652 52.1223 175.706 52.2053C175.764 52.2883 175.884 52.3298 176.064 52.3298C176.123 52.3298 176.189 52.3274 176.262 52.3225C176.335 52.3127 176.414 52.3005 176.497 52.2859V53.26C176.292 53.3186 176.135 53.3552 176.028 53.3699C175.92 53.3845 175.774 53.3918 175.588 53.3918C175.134 53.3918 174.805 53.2307 174.6 52.9084C174.492 52.7375 174.417 52.4958 174.373 52.1833C174.104 52.5349 173.718 52.8401 173.215 53.0989C172.712 53.3577 172.158 53.4871 171.553 53.4871C170.825 53.4871 170.229 53.2673 169.766 52.8279C169.307 52.3835 169.077 51.8293 169.077 51.1653C169.077 50.4377 169.304 49.8738 169.758 49.4734C170.212 49.073 170.808 48.8264 171.545 48.7336L173.647 48.47ZM177.83 45.3792H179.082V46.7341C179.185 46.4705 179.436 46.1506 179.836 45.7747C180.237 45.3938 180.698 45.2034 181.221 45.2034C181.245 45.2034 181.287 45.2058 181.345 45.2107C181.404 45.2156 181.504 45.2253 181.646 45.24V46.6316C181.567 46.6169 181.494 46.6072 181.426 46.6023C181.362 46.5974 181.292 46.595 181.213 46.595C180.549 46.595 180.039 46.8098 179.683 47.2395C179.326 47.6643 179.148 48.155 179.148 48.7117V53.2234H177.83V45.3792ZM183.623 49.3928C183.623 50.2327 183.801 50.9358 184.158 51.5022C184.514 52.0686 185.085 52.3518 185.872 52.3518C186.482 52.3518 186.982 52.0906 187.373 51.5681C187.769 51.0408 187.966 50.2864 187.966 49.3049C187.966 48.3137 187.764 47.5813 187.358 47.1077C186.953 46.6292 186.453 46.3899 185.857 46.3899C185.193 46.3899 184.653 46.6438 184.238 47.1516C183.828 47.6594 183.623 48.4065 183.623 49.3928ZM185.608 45.24C186.208 45.24 186.711 45.3669 187.117 45.6208C187.351 45.7673 187.617 46.0237 187.915 46.3899V42.4275H189.182V53.2234H187.996V52.1321C187.688 52.6155 187.324 52.9646 186.904 53.1794C186.484 53.3943 186.003 53.5017 185.461 53.5017C184.587 53.5017 183.831 53.1355 183.191 52.4031C182.551 51.6658 182.231 50.6868 182.231 49.4661C182.231 48.3235 182.522 47.3347 183.103 46.4998C183.689 45.6599 184.524 45.24 185.608 45.24ZM194.404 45.2034C194.961 45.2034 195.5 45.3352 196.023 45.5989C196.545 45.8577 196.943 46.1946 197.217 46.6096C197.48 47.0051 197.656 47.4666 197.744 47.9939C197.822 48.3552 197.861 48.9314 197.861 49.7224H192.112C192.136 50.5183 192.324 51.158 192.676 51.6414C193.027 52.1199 193.572 52.3591 194.309 52.3591C194.998 52.3591 195.547 52.1321 195.957 51.678C196.191 51.4143 196.357 51.1091 196.455 50.7625H197.751C197.717 51.0505 197.603 51.3728 197.407 51.7292C197.217 52.0808 197.002 52.3689 196.763 52.5935C196.362 52.9841 195.867 53.2478 195.276 53.3845C194.958 53.4626 194.6 53.5017 194.199 53.5017C193.223 53.5017 192.395 53.1477 191.716 52.4397C191.038 51.7268 190.698 50.7307 190.698 49.4514C190.698 48.1917 191.04 47.1687 191.724 46.3826C192.407 45.5964 193.301 45.2034 194.404 45.2034ZM196.506 48.675C196.453 48.1038 196.328 47.6472 196.133 47.3054C195.771 46.6707 195.168 46.3533 194.324 46.3533C193.718 46.3533 193.21 46.573 192.8 47.0125C192.39 47.447 192.173 48.0012 192.148 48.675H196.506ZM200.322 49.3928C200.322 50.2327 200.5 50.9358 200.857 51.5022C201.213 52.0686 201.785 52.3518 202.571 52.3518C203.181 52.3518 203.682 52.0906 204.072 51.5681C204.468 51.0408 204.666 50.2864 204.666 49.3049C204.666 48.3137 204.463 47.5813 204.058 47.1077C203.652 46.6292 203.152 46.3899 202.556 46.3899C201.892 46.3899 201.353 46.6438 200.938 47.1516C200.527 47.6594 200.322 48.4065 200.322 49.3928ZM202.307 45.24C202.908 45.24 203.411 45.3669 203.816 45.6208C204.05 45.7673 204.316 46.0237 204.614 46.3899V42.4275H205.881V53.2234H204.695V52.1321C204.387 52.6155 204.023 52.9646 203.604 53.1794C203.184 53.3943 202.703 53.5017 202.161 53.5017C201.287 53.5017 200.53 53.1355 199.89 52.4031C199.25 51.6658 198.931 50.6868 198.931 49.4661C198.931 48.3235 199.221 47.3347 199.802 46.4998C200.388 45.6599 201.223 45.24 202.307 45.24Z" fill="#6963E5"/>
<path d="M77.0664 20.1394C77.0664 20.9324 77.194 21.5886 77.4492 22.1082C77.9232 23.0652 78.7845 23.5437 80.0332 23.5437C80.7988 23.5437 81.4642 23.2839 82.0293 22.7644C82.6035 22.2358 82.8906 21.4792 82.8906 20.4949C82.8906 19.1915 82.362 18.321 81.3047 17.8835C80.7031 17.6375 79.7552 17.5144 78.4609 17.5144V14.7253C79.7279 14.7071 80.612 14.5841 81.1133 14.3562C81.9792 13.9734 82.4121 13.1986 82.4121 12.032C82.4121 11.2755 82.1888 10.6602 81.7422 10.1863C81.3047 9.71232 80.6849 9.47534 79.8828 9.47534C78.9622 9.47534 78.2832 9.76701 77.8457 10.3503C77.4173 10.9337 77.2122 11.713 77.2305 12.6882H73.5938C73.6302 11.7039 73.7988 10.7696 74.0996 9.8855C74.4186 9.11076 74.9199 8.39526 75.6035 7.73901C76.1139 7.27417 76.7201 6.9187 77.4219 6.67261C78.1237 6.42651 78.985 6.30347 80.0059 6.30347C81.9017 6.30347 83.4284 6.79565 84.5859 7.78003C85.7526 8.75529 86.3359 10.0678 86.3359 11.7175C86.3359 12.8842 85.9896 13.8686 85.2969 14.6707C84.8594 15.172 84.4036 15.5138 83.9297 15.696C84.2852 15.696 84.7956 16.0014 85.4609 16.6121C86.4544 17.5326 86.9512 18.7904 86.9512 20.3855C86.9512 22.0626 86.3678 23.5391 85.2012 24.8152C84.0436 26.0821 82.3255 26.7156 80.0469 26.7156C77.2396 26.7156 75.2891 25.7996 74.1953 23.9675C73.6211 22.9923 73.3021 21.7162 73.2383 20.1394H77.0664ZM92.9395 16.5027C92.9395 18.7813 93.1263 20.5268 93.5 21.739C93.8737 22.9421 94.6393 23.5437 95.7969 23.5437C96.9544 23.5437 97.7109 22.9421 98.0664 21.739C98.431 20.5268 98.6133 18.7813 98.6133 16.5027C98.6133 14.1147 98.431 12.3464 98.0664 11.198C97.7109 10.0496 96.9544 9.47534 95.7969 9.47534C94.6393 9.47534 93.8737 10.0496 93.5 11.198C93.1263 12.3464 92.9395 14.1147 92.9395 16.5027ZM95.7969 6.26245C98.3216 6.26245 100.09 7.15112 101.102 8.92847C102.122 10.7058 102.633 13.2306 102.633 16.5027C102.633 19.7748 102.122 22.295 101.102 24.0632C100.09 25.8315 98.3216 26.7156 95.7969 26.7156C93.2721 26.7156 91.4993 25.8315 90.4785 24.0632C89.4668 22.295 88.9609 19.7748 88.9609 16.5027C88.9609 13.2306 89.4668 10.7058 90.4785 8.92847C91.4993 7.15112 93.2721 6.26245 95.7969 6.26245ZM108.525 16.5027C108.525 18.7813 108.712 20.5268 109.086 21.739C109.46 22.9421 110.225 23.5437 111.383 23.5437C112.54 23.5437 113.297 22.9421 113.652 21.739C114.017 20.5268 114.199 18.7813 114.199 16.5027C114.199 14.1147 114.017 12.3464 113.652 11.198C113.297 10.0496 112.54 9.47534 111.383 9.47534C110.225 9.47534 109.46 10.0496 109.086 11.198C108.712 12.3464 108.525 14.1147 108.525 16.5027ZM111.383 6.26245C113.908 6.26245 115.676 7.15112 116.688 8.92847C117.708 10.7058 118.219 13.2306 118.219 16.5027C118.219 19.7748 117.708 22.295 116.688 24.0632C115.676 25.8315 113.908 26.7156 111.383 26.7156C108.858 26.7156 107.085 25.8315 106.064 24.0632C105.053 22.295 104.547 19.7748 104.547 16.5027C104.547 13.2306 105.053 10.7058 106.064 8.92847C107.085 7.15112 108.858 6.26245 111.383 6.26245Z" fill="#442FB8"/>
<path d="M140 65.7234C148.837 65.7234 156 72.8868 156 81.7234C156 90.5599 148.837 97.7234 140 97.7234H88C79.1634 97.7234 72 90.5599 72 81.7234C72 72.8868 79.1634 65.7234 88 65.7234H140Z" stroke="#E0E0E0"/>
<path d="M86.0669 83.4431C86.0669 84.2302 85.9505 84.8417 85.7178 85.2776C85.2861 86.0732 84.4652 86.4709 83.2549 86.4709C82.5566 86.4709 81.96 86.2826 81.4648 85.906C80.9697 85.5251 80.7222 84.8502 80.7222 83.8811V83.2146H81.9092V83.8811C81.9092 84.3889 82.0213 84.7719 82.2456 85.03C82.4741 85.2839 82.8275 85.4109 83.3057 85.4109C83.9785 85.4109 84.4186 85.1803 84.626 84.719C84.7529 84.4355 84.8164 83.9001 84.8164 83.113V76.8987H86.0669V83.4431ZM88.9805 79.425V83.9382C88.9805 84.2852 89.0355 84.5688 89.1455 84.7888C89.3486 85.1951 89.7274 85.3982 90.2817 85.3982C91.0773 85.3982 91.619 85.0427 91.9067 84.3318C92.0633 83.9509 92.1416 83.4283 92.1416 82.7639V79.425H93.2842V86.2234H92.2051L92.2178 85.2205C92.0697 85.4786 91.8856 85.6965 91.6655 85.8743C91.2297 86.2297 90.7007 86.4075 90.0786 86.4075C89.1095 86.4075 88.4494 86.0837 88.0981 85.4363C87.9077 85.0893 87.8125 84.6259 87.8125 84.0461V79.425H88.9805ZM95.106 76.8987H96.2485V86.2234H95.106V76.8987ZM101.155 86.2234C101.198 85.4405 101.358 84.7592 101.638 84.1794C101.921 83.5997 102.471 83.0728 103.288 82.5989L104.507 81.8943C105.053 81.5769 105.436 81.3061 105.656 81.0818C106.003 80.7306 106.176 80.3285 106.176 79.8757C106.176 79.3468 106.018 78.9278 105.7 78.6189C105.383 78.3057 104.96 78.1492 104.431 78.1492C103.648 78.1492 103.106 78.4454 102.806 79.0378C102.645 79.3552 102.556 79.7953 102.539 80.3582H101.377C101.39 79.5668 101.536 78.9215 101.815 78.4221C102.311 77.5419 103.184 77.1018 104.437 77.1018C105.478 77.1018 106.238 77.3832 106.716 77.946C107.198 78.5089 107.439 79.1352 107.439 79.825C107.439 80.5528 107.183 81.1749 106.671 81.6912C106.375 81.9916 105.844 82.3556 105.078 82.783L104.208 83.2654C103.794 83.4939 103.468 83.7118 103.231 83.9192C102.808 84.2874 102.541 84.6957 102.431 85.1443H107.395V86.2234H101.155ZM111.502 77.1335C112.678 77.1335 113.529 77.6181 114.054 78.5872C114.46 79.3362 114.663 80.3624 114.663 81.6658C114.663 82.9014 114.479 83.9234 114.111 84.7317C113.578 85.8912 112.706 86.4709 111.496 86.4709C110.404 86.4709 109.591 85.997 109.058 85.0491C108.614 84.2577 108.392 83.1956 108.392 81.8625C108.392 80.83 108.525 79.9434 108.792 79.2029C109.291 77.8233 110.194 77.1335 111.502 77.1335ZM111.489 85.4299C112.082 85.4299 112.554 85.1676 112.905 84.6428C113.256 84.1181 113.432 83.1405 113.432 81.7102C113.432 80.6777 113.305 79.8292 113.051 79.1648C112.797 78.4962 112.304 78.1619 111.572 78.1619C110.899 78.1619 110.406 78.4792 110.093 79.114C109.784 79.7445 109.629 80.6755 109.629 81.907C109.629 82.8337 109.729 83.5785 109.928 84.1414C110.232 85.0004 110.753 85.4299 111.489 85.4299ZM115.628 86.2234C115.67 85.4405 115.831 84.7592 116.11 84.1794C116.394 83.5997 116.944 83.0728 117.761 82.5989L118.979 81.8943C119.525 81.5769 119.908 81.3061 120.128 81.0818C120.475 80.7306 120.649 80.3285 120.649 79.8757C120.649 79.3468 120.49 78.9278 120.173 78.6189C119.855 78.3057 119.432 78.1492 118.903 78.1492C118.12 78.1492 117.579 78.4454 117.278 79.0378C117.118 79.3552 117.029 79.7953 117.012 80.3582H115.85C115.863 79.5668 116.009 78.9215 116.288 78.4221C116.783 77.5419 117.657 77.1018 118.91 77.1018C119.951 77.1018 120.71 77.3832 121.188 77.946C121.671 78.5089 121.912 79.1352 121.912 79.825C121.912 80.5528 121.656 81.1749 121.144 81.6912C120.848 81.9916 120.317 82.3556 119.551 82.783L118.681 83.2654C118.266 83.4939 117.941 83.7118 117.704 83.9192C117.28 84.2874 117.014 84.6957 116.904 85.1443H121.868V86.2234H115.628ZM122.864 86.2234C122.907 85.4405 123.067 84.7592 123.347 84.1794C123.63 83.5997 124.18 83.0728 124.997 82.5989L126.216 81.8943C126.762 81.5769 127.145 81.3061 127.365 81.0818C127.712 80.7306 127.885 80.3285 127.885 79.8757C127.885 79.3468 127.727 78.9278 127.409 78.6189C127.092 78.3057 126.669 78.1492 126.14 78.1492C125.357 78.1492 124.815 78.4454 124.515 79.0378C124.354 79.3552 124.265 79.7953 124.248 80.3582H123.086C123.099 79.5668 123.245 78.9215 123.524 78.4221C124.02 77.5419 124.893 77.1018 126.146 77.1018C127.187 77.1018 127.947 77.3832 128.425 77.946C128.907 78.5089 129.148 79.1352 129.148 79.825C129.148 80.5528 128.892 81.1749 128.38 81.6912C128.084 81.9916 127.553 82.3556 126.787 82.783L125.917 83.2654C125.503 83.4939 125.177 83.7118 124.94 83.9192C124.517 84.2874 124.25 84.6957 124.14 85.1443H129.104V86.2234H122.864Z" fill="#9E9E9E"/>
<path d="M142.692 84.5618C142.726 84.6117 142.772 84.6526 142.826 84.6808C142.88 84.709 142.939 84.7238 143 84.7238C143.061 84.7238 143.12 84.709 143.174 84.6808C143.228 84.6526 143.274 84.6117 143.308 84.5618L146.683 79.6868C146.722 79.6305 146.745 79.5647 146.75 79.4963C146.754 79.428 146.739 79.3598 146.707 79.2992C146.676 79.2385 146.628 79.1877 146.569 79.1523C146.511 79.1169 146.444 79.0983 146.375 79.0984H139.625C139.557 79.0987 139.49 79.1176 139.431 79.1531C139.373 79.1885 139.325 79.2393 139.294 79.2998C139.262 79.3603 139.247 79.4283 139.252 79.4965C139.256 79.5647 139.278 79.6304 139.317 79.6868L142.692 84.5618Z" fill="#9E9E9E"/>
</svg>
